<svg width="150" height="48" viewBox="0 0 150 48" fill="none" xmlns="http://www.w3.org/2000/svg">
<g id="Indonesia">
<path id="Vector" fill-rule="evenodd" clip-rule="evenodd" d="M11.3353 7.39816C11.7634 8.06851 13.535 14.0825 13.7941 15.2552L8.94177 15.2128L11.3353 7.39816ZM27.2581 0.171736C24.9087 0.866334 24.9184 3.33426 24.9184 5.95682C24.9184 10.2181 24.7463 18.2534 24.9238 22.0214C25.1328 26.461 30.0519 26.916 31.311 23.4358C31.8289 22.0038 31.5985 13.5619 31.5985 11.7113C31.5985 9.12753 31.7198 6.23636 31.5837 3.6899C31.4597 1.36993 29.8826 -0.604419 27.2581 0.171736ZM35.8304 7.08952C32.0989 7.11165 32.0173 11.3423 35.8304 11.6182C35.8304 14.5045 35.8304 17.3906 35.8304 20.2766C35.8304 21.6782 35.6653 22.9231 36.2658 24.0588C37.4644 26.3263 40.9419 26.1114 41.9061 24.1552C42.8035 22.3352 41.9388 15.0575 42.3482 11.6173C44.3686 11.6173 46.5045 11.5479 46.4461 9.30368C46.3875 7.05102 44.4064 7.08922 42.3086 7.08922C42.3086 5.68638 42.1535 4.87414 43.6396 4.73559C44.9349 4.61492 45.9388 5.03847 46.5205 4.02401C47.5821 2.17306 46.0866 0.500692 43.4811 0.122316C41.1759 -0.212704 38.9185 0.260872 37.4333 1.33779C35.7439 2.56326 35.8304 5.127 35.8304 7.08952ZM55.7157 11.4193C58.3968 10.8472 59.1106 13.317 59.2561 15.5875C59.4121 18.0254 59.1475 20.9266 56.7316 21.1413C53.9426 21.3893 53.0652 19.3306 52.9397 16.7993C52.807 14.1192 53.4434 11.9044 55.7157 11.4193ZM60.0595 24.7446C58.5226 25.2506 58.2232 26.1093 54.9891 25.8679C53.2188 25.736 51.6338 25.1736 50.3663 24.3753C48.0828 22.9376 46.2242 20.0992 46.3542 16.1251C46.4827 12.1991 48.3377 9.46134 50.5039 8.01696C51.736 7.19503 53.3524 6.64778 55.1173 6.50286C58.3826 6.23484 58.9921 7.35178 60.2403 7.61039C61.5788 5.60634 64.7283 6.34277 65.5933 8.43536L65.4612 24.2247C64.5611 25.8816 62.5954 26.2997 61.1507 25.6035C60.5596 25.3182 60.5499 25.0924 60.0595 24.7446ZM7.38006 20.8517L15.3882 20.8102C15.7211 22.2461 16.2992 24.322 17.1767 25.0032C18.5642 26.0805 20.5976 25.8109 21.7487 24.6867C23.2052 23.2642 22.8823 21.9359 22.1938 19.9691C21.6544 18.4281 21.1416 16.9588 20.5961 15.4174C19.5242 12.3895 18.4675 9.3722 17.4334 6.41281C16.09 2.56842 16.142 0.179619 11.345 0.202054C9.33968 0.211756 7.80306 0.606504 7.03264 1.90232C6.27552 3.1757 1.66023 16.9609 0.587141 19.9306C-0.0671754 21.741 -0.344746 23.3187 0.903111 24.5903C2.36353 26.0786 5.659 26.4794 6.66466 23.2123C6.90897 22.4177 7.1424 21.6715 7.38006 20.8517Z" fill="#005AAB"/>
<path id="Vector_2" fill-rule="evenodd" clip-rule="evenodd" d="M0 40.2169L0.0250962 42.8613L120.519 42.861C127.191 42.861 133.871 42.8943 140.543 42.8625C143.189 42.85 145.994 41.6528 147.392 39.7288C149.412 36.9491 149.419 35.8158 149.419 31.714C147.936 31.4797 21.8383 31.6516 8.80848 31.6519C4.05108 31.6519 0 35.4393 0 40.2169Z" fill="#ED1C24"/>
<path id="Vector_3" fill-rule="evenodd" clip-rule="evenodd" d="M138.267 2.62836C138.644 3.5552 138.849 3.23322 138.805 4.75581C138.781 5.59624 138.64 6.42818 138.485 7.24891C138.209 8.70996 137.785 10.1968 137.446 11.6778C136.119 17.4893 133.316 26.919 142.173 25.7923C145.143 25.4146 148.591 23.711 146.675 20.4348C145.399 21.1721 141.469 23.9229 141.469 19.7438C141.468 17.1607 142.419 14.6651 142.776 12.2136C145.581 12.2075 149.237 12.8281 149.419 8.55473C147.426 8.95918 145.681 9.13533 143.547 9.03467C143.806 7.40353 145.296 3.85141 144.4 2.61957C143.248 1.03664 139.905 2.22482 138.267 2.62836ZM76.4862 12.1799C76.7433 10.6607 77.8541 7.86438 76.4872 6.88327C75.2305 5.98129 72.2979 6.61707 71.0516 7.32198C71.8138 7.94745 71.6475 8.98616 71.4939 10.2153C71.168 12.8221 70.3477 16.4585 69.6885 18.9507C69.3378 20.2768 68.1752 23.369 68.834 24.5881C69.7236 26.2338 72.4213 25.7651 74.197 25.1878C74.0307 23.8232 73.3193 23.7343 74.7561 20.8301C75.3926 19.5434 75.9931 18.3319 76.6323 17.0882C77.2866 15.8151 78.0362 14.6742 78.7504 13.5888C79.1286 13.0137 79.5785 12.4285 79.9504 11.981C80.1938 11.6885 80.3858 11.586 80.6292 11.3261C80.9788 10.9535 80.9319 10.8404 81.5542 10.7768C81.7737 12.3818 80.0738 18.743 79.626 20.6294C79.2798 22.0877 78.4773 24.1764 79.6874 25.2211C80.7248 26.1168 83.4034 25.745 84.4817 25.0941C83.8156 23.3508 84.3305 22.2787 85.0758 20.7404C85.7126 19.4264 86.2804 18.2548 86.9738 17.0188C87.7765 15.5877 90.5441 10.8392 91.8243 10.7822C92.0456 11.4004 90.1809 19.5088 89.923 20.9117C89.562 22.8766 89.6648 24.8149 91.2824 25.5052C93.2285 26.3357 94.8101 25.139 96.1339 24.6223C95.9331 24.1624 96.1635 24.6227 95.8974 24.2267C95.6831 23.9077 95.8342 24.2288 95.6274 23.8201C94.6828 21.9528 95.5778 18.6484 95.9818 16.6889C96.3631 14.8419 97.5674 10.1386 97.3403 8.44467C96.9249 5.34521 93.4803 5.98948 91.1769 7.58332C90.1232 8.31248 89.4541 9.10349 88.6918 9.91088C87.7324 10.9275 87.0176 12.1002 86.4891 12.6599C86.63 11.0596 87.4179 9.31027 86.7391 7.71612C86.1229 6.26841 84.5007 5.92247 82.6784 6.55643C80.4484 7.33198 79.2106 8.91885 77.8188 10.5151C77.5639 10.8074 77.4529 10.9672 77.1732 11.3413L76.4862 12.1799ZM111.975 11.6287C111.6 12.1108 109.654 15.9215 108.302 17.7964C107.707 18.6205 103.92 24.4201 104.263 19.2041C104.42 16.8041 105.804 8.92825 109.217 9.53038C110.315 9.72412 111.672 10.9184 111.975 11.6287ZM110.245 19.4785C109.796 19.8499 109.068 21.1533 108.608 21.7166C107.436 23.1531 107.665 22.7475 106.831 23.681C105.819 24.8149 103.807 26.1744 101.491 25.8136C97.2871 25.159 98.1095 18.2348 99.4759 14.8322C101.526 9.72624 106.084 4.89649 111.489 6.57584C111.819 6.67831 112.667 7.11066 112.816 7.13491C113.314 7.21677 113.702 6.76897 114.236 6.62101C115.539 6.25992 118.007 6.67346 118.906 7.29439L117.484 11.0781C116.586 13.8292 116.048 17.0939 115.936 20.0079C115.821 23.0143 116.146 22.7853 116.662 24.6051C115.465 25.6665 113.139 26.2996 111.348 25.1905C109.74 24.1952 110.182 21.6172 110.245 19.4785ZM127.105 12.3254C128.475 10.4651 130.99 6.71803 133.528 6.29994C137.728 5.60807 134.865 12.1781 132.664 13.5524C132.255 13.0058 131.842 12.3652 130.864 12.7075C129.654 13.1313 127.726 16.1677 127.122 17.2637C126.443 18.4956 125.884 19.6134 125.327 20.949C124.037 24.0433 124.67 23.5976 124.869 25.1732C123.151 25.7684 120.29 26.3002 119.281 24.7303C118.565 23.6164 119.775 20.2374 120.118 18.9294C120.619 17.0166 121.087 15.0417 121.497 13.0907C122.018 10.6124 122.439 9.24963 121.634 7.20949C123.161 6.77351 125.677 5.83576 127.111 6.97331C128.628 8.17605 127.136 10.6564 127.105 12.3254Z" fill="#ED1C24"/>
<path id="Vector_4" fill-rule="evenodd" clip-rule="evenodd" d="M0 47.9792C45.6452 47.9792 91.2904 47.9792 136.936 47.9792C140.352 47.9792 142.724 48.2749 145.341 46.6364C146.759 45.7484 149.201 43.1707 149.211 40.791C148.74 41.113 148.498 41.582 148.042 41.9868C143.808 45.7475 140.12 44.9477 134.133 44.9477L0.0102804 44.9474L0 47.9792Z" fill="#FFD503"/>
</g>
</svg>
