<svg width="63" height="20" viewBox="0 0 63 20" fill="none" xmlns="http://www.w3.org/2000/svg">
<g id="Indonesia">
<path id="Vector" d="M11.1518 0C13.9939 0.0100604 16.9277 0.674044 19.943 2.00201L20.0856 2.06237L20.1365 2.20322V2.21328C20.381 2.94769 20.5949 3.68209 20.7681 4.4165C20.9413 5.15091 21.0839 5.88531 21.1858 6.61972C21.3284 7.58551 21.4099 8.54125 21.4303 9.50704V10.6338C21.3691 13.0684 20.9413 15.503 20.1365 17.9376L20.0856 18.0785L19.943 18.1388C17.0907 19.3863 14.2282 20 11.3759 20C11.3046 20 11.2333 20 11.1518 20V19.3159C11.2333 19.3159 11.3046 19.3159 11.3759 19.3159C14.0856 19.3159 16.8055 18.7425 19.5253 17.5755C20.707 13.9537 21.033 10.332 20.5033 6.71026C20.4014 6.00604 20.2588 5.28169 20.0856 4.5674C19.9328 3.90342 19.7393 3.22938 19.5253 2.56539C16.6425 1.31791 13.8513 0.694165 11.1518 0.684105V0ZM2.7885 2.01207C5.45743 0.663984 8.22823 0 11.0907 0C11.1111 0 11.1315 0 11.1518 0V0.684105C11.1315 0.684105 11.1111 0.684105 11.0907 0.684105C8.37084 0.684105 5.75284 1.30785 3.21634 2.56539C2.18748 4.97988 1.60684 7.43461 1.57627 9.93964C1.53553 12.4245 2.05505 14.9698 3.20616 17.5654C5.85471 18.7022 8.50327 19.2857 11.1518 19.3159V20C8.37084 19.9698 5.58986 19.3561 2.80887 18.1388L2.62551 17.9678C1.44385 15.3521 0.893762 12.7767 0.883575 10.2515V10.0704C0.883575 10.0201 0.883575 9.97988 0.883575 9.92958C0.914136 7.30382 1.53553 4.71831 2.62551 2.1831L2.7885 2.01207Z" fill="#003399"/>
<path id="Vector_2" fill-rule="evenodd" clip-rule="evenodd" d="M11.3352 15.5838C11.1926 13.6622 11.2842 11.6602 10.7036 9.82925C10.1637 8.11898 8.11617 7.14313 8.07542 5.26184C8.03467 3.79303 9.1654 2.09283 11.2842 2.09283C13.2707 2.08277 14.5033 3.51134 14.6459 5.10087C14.8191 6.94192 12.5576 8.17935 11.9668 9.92985C11.3556 11.7206 11.5287 13.7025 11.3352 15.5838Z" fill="#003399"/>
<path id="Vector_3" fill-rule="evenodd" clip-rule="evenodd" d="M12.1196 15.1209C12.0381 13.4509 12.0381 11.8513 12.5066 10.4328C13.0262 8.82316 14.106 7.46501 15.7562 7.02236C16.887 6.72055 18.5474 8.02839 18.2825 9.36642C18.0584 10.4429 16.9685 11.7105 15.2163 11.8513C14.4014 11.9218 14.055 12.5656 13.5457 12.9378C15.8275 12.7165 17.3046 11.8312 18.3335 10.9057C18.4863 11.6904 18.5881 13.0083 17.9668 13.461C16.7443 14.3161 15.6136 13.622 14.1773 14.0244C13.3725 14.2558 12.8734 14.7588 12.1196 15.1209Z" fill="#003399"/>
<path id="Vector_4" fill-rule="evenodd" clip-rule="evenodd" d="M10.561 15.1209C10.6527 13.4509 10.6425 11.8513 10.1841 10.4328C9.66455 8.82316 8.58475 7.46501 6.9345 7.02236C5.80377 6.72055 4.13314 8.02839 4.40818 9.36642C4.63229 10.4429 5.72228 11.7105 7.4744 11.8513C8.27915 11.9218 8.63569 12.5656 9.14503 12.9378C6.853 12.7165 5.38611 11.8312 4.35725 10.9057C4.20445 11.6904 4.10258 13.0083 4.72397 13.461C5.94638 14.3161 7.07711 13.622 8.51345 14.0244C9.3182 14.2558 9.80717 14.7588 10.561 15.1209Z" fill="#003399"/>
<path id="Vector_5" fill-rule="evenodd" clip-rule="evenodd" d="M15.9905 17.6054V17.3337L16.1943 17.2834L15.9905 16.9816V16.4786L16.9073 17.7362L16.5814 17.8166L16.3573 17.5048L15.9905 17.6054ZM15.9905 16.4786V16.9816L15.8479 16.7804L15.7868 17.384L15.9905 17.3337V17.6054L15.7562 17.6557L15.7155 18.0279L15.3895 18.1084L15.6034 16.4686L15.9294 16.3881L15.9905 16.4786ZM12.9549 18.4806V18.2191H13.0262C13.1382 18.209 13.2096 18.1989 13.2401 18.1889C13.2809 18.1788 13.3216 18.1486 13.342 18.1185C13.3725 18.0782 13.3827 18.038 13.3827 17.9877C13.3725 17.9374 13.3624 17.8971 13.3318 17.8669C13.3114 17.8368 13.2707 17.8166 13.2299 17.8066C13.1892 17.7965 13.0975 17.7965 12.9549 17.8066V17.545C13.0364 17.545 13.0873 17.535 13.1077 17.535C13.1586 17.5249 13.1994 17.4947 13.2299 17.4645C13.2605 17.4343 13.2707 17.3941 13.2605 17.3438C13.2605 17.2935 13.2401 17.2533 13.2096 17.2331C13.1892 17.203 13.1484 17.1828 13.0873 17.1828C13.0669 17.1828 13.0262 17.1828 12.9549 17.1929V16.9313C13.0669 16.9213 13.1484 16.9213 13.1994 16.9313C13.2605 16.9313 13.3216 16.9515 13.3725 16.9816C13.4235 17.0018 13.4642 17.042 13.505 17.0923C13.5355 17.1426 13.5559 17.203 13.5661 17.2734C13.5763 17.3438 13.5559 17.4142 13.5253 17.4746C13.4948 17.535 13.4438 17.5853 13.3725 17.6255C13.4744 17.6456 13.5559 17.6859 13.6068 17.7462C13.668 17.8066 13.6985 17.877 13.7087 17.9675C13.7087 18.038 13.6985 18.1084 13.6781 18.1788C13.6476 18.2492 13.6068 18.2995 13.5559 18.3498C13.4948 18.3901 13.4337 18.4203 13.3522 18.4404C13.3012 18.4504 13.1688 18.4605 12.9753 18.4806H12.9549ZM14.8802 17.6356L15.196 17.6758C15.1756 17.8468 15.1247 17.9877 15.033 18.0883C14.9413 18.1788 14.8089 18.2492 14.6459 18.2794C14.4421 18.3096 14.2588 18.2694 14.106 18.1587C13.943 18.038 13.8513 17.8669 13.8004 17.6255C13.7596 17.374 13.7902 17.1627 13.9023 17.0018C14.0041 16.8408 14.1671 16.7402 14.381 16.6999C14.5746 16.6698 14.7274 16.6999 14.87 16.7905C14.9515 16.8408 15.0228 16.9213 15.0737 17.042L14.7783 17.1627C14.7478 17.0923 14.6968 17.0319 14.6357 17.0018C14.5644 16.9615 14.4931 16.9515 14.4116 16.9615C14.2995 16.9816 14.218 17.042 14.1569 17.1325C14.0958 17.2331 14.0856 17.3639 14.1162 17.545C14.1569 17.7362 14.218 17.8669 14.2995 17.9374C14.381 18.0078 14.4829 18.038 14.595 18.0179C14.6764 17.9977 14.7376 17.9575 14.7885 17.8971C14.8394 17.8368 14.87 17.7462 14.8802 17.6356ZM12.9549 16.9313V17.1929C12.9141 17.1929 12.8734 17.203 12.8225 17.203L12.6391 17.2231L12.6697 17.5752L12.8836 17.5551C12.9039 17.5551 12.9345 17.5551 12.9549 17.545V17.8066C12.9549 17.8066 12.9549 17.8066 12.9447 17.8066L12.7002 17.8267L12.7308 18.2392L12.9549 18.2191V18.4806L12.4455 18.5309L12.3029 16.9917L12.9243 16.9414C12.9345 16.9313 12.9447 16.9313 12.9549 16.9313ZM10.9888 17.9474V17.6859C11.0601 17.6859 11.1009 17.6758 11.1315 17.6657C11.1722 17.6557 11.2028 17.6255 11.2333 17.5953C11.2537 17.5551 11.2639 17.5148 11.2639 17.4746C11.2741 17.4142 11.2537 17.374 11.2231 17.3337C11.1926 17.2935 11.1518 17.2734 11.1009 17.2633C11.0703 17.2633 11.0398 17.2533 10.9888 17.2533V16.9917C11.1416 16.9917 11.2333 17.0018 11.2843 17.0219C11.3759 17.042 11.4472 17.0923 11.5084 17.1728C11.5695 17.2533 11.6 17.3539 11.5899 17.4746C11.5899 17.5651 11.5695 17.6456 11.5389 17.716C11.4982 17.7764 11.4574 17.8267 11.4065 17.8669C11.3454 17.8971 11.2944 17.9172 11.2333 17.9374C11.1722 17.9474 11.0907 17.9474 10.9888 17.9474ZM10.9888 16.9917V17.2533C10.9583 17.2533 10.9175 17.2533 10.8666 17.2533L10.7138 17.2432V17.6859H10.8768C10.9175 17.6859 10.9583 17.6859 10.9888 17.6859V17.9474C10.9685 17.9474 10.9379 17.9474 10.9073 17.9474H10.7036L10.6934 18.5309L10.3776 18.5209L10.4082 16.9816L10.9073 16.9917C10.9379 16.9917 10.9685 16.9917 10.9888 16.9917ZM8.04487 17.7965V17.3237C8.13655 17.3438 8.19767 17.3438 8.22823 17.3438C8.26898 17.3337 8.29954 17.3237 8.3301 17.2935C8.35047 17.2633 8.37084 17.2331 8.38103 17.1828C8.39122 17.1325 8.38103 17.0923 8.36066 17.0521C8.34028 17.0118 8.29954 16.9917 8.2486 16.9716C8.22823 16.9615 8.15692 16.9515 8.04487 16.9313V16.6698L8.17729 16.6899C8.34028 16.7201 8.45234 16.7502 8.52364 16.7905C8.59495 16.8307 8.64589 16.8911 8.67645 16.9716C8.70701 17.042 8.71719 17.1325 8.69682 17.2231C8.67645 17.3337 8.62551 17.4243 8.54402 17.4847C8.47271 17.545 8.36066 17.5752 8.21804 17.5752C8.27916 17.6255 8.3301 17.6758 8.36066 17.7261C8.4014 17.7865 8.44215 17.877 8.49308 18.0078L8.62551 18.3398L8.25879 18.2694L8.0958 17.8971C8.07543 17.8669 8.06524 17.8267 8.04487 17.7965ZM8.9413 16.8408L9.2469 16.871L9.1756 17.706C9.16541 17.8368 9.16541 17.9273 9.16541 17.9575C9.1756 18.0279 9.20616 18.0782 9.2469 18.1185C9.29784 18.1688 9.35896 18.1889 9.45064 18.1989C9.54232 18.209 9.61363 18.1889 9.65437 18.1587C9.70531 18.1285 9.73587 18.0883 9.75624 18.038C9.76643 17.9877 9.77662 17.8971 9.7868 17.7764L9.85811 16.9213L10.1739 16.9515L10.1026 17.7563C10.0924 17.9474 10.072 18.0782 10.0415 18.1486C10.0211 18.2191 9.98035 18.2895 9.9396 18.3297C9.88867 18.38 9.81736 18.4203 9.73587 18.4404C9.66456 18.4706 9.56269 18.4706 9.44045 18.4605C9.28765 18.4504 9.1756 18.4203 9.10429 18.38C9.03298 18.3398 8.97186 18.2895 8.93111 18.2392C8.89037 18.1788 8.86999 18.1185 8.85981 18.0581C8.84962 17.9676 8.84962 17.8368 8.85981 17.6657L8.9413 16.8408ZM6.46592 17.2935L6.52704 17.042L7.18918 17.213L7.02619 17.8066C6.9447 17.8569 6.84283 17.8871 6.70022 17.8971C6.56779 17.9072 6.44555 17.8971 6.32331 17.8669C6.16032 17.8267 6.02789 17.7563 5.93621 17.6657C5.83434 17.5651 5.77322 17.4444 5.74266 17.3136C5.72229 17.1728 5.72229 17.0319 5.76303 16.8911C5.80378 16.7402 5.87509 16.6094 5.97696 16.4987C6.06864 16.3981 6.19088 16.3378 6.33349 16.3076C6.44555 16.2774 6.57797 16.2875 6.72059 16.3277C6.90395 16.378 7.04657 16.4484 7.12806 16.5591C7.20955 16.6597 7.2503 16.7905 7.24011 16.9313L6.92432 16.9112C6.92432 16.8307 6.90395 16.7603 6.85302 16.6999C6.80208 16.6496 6.74096 16.5993 6.64928 16.5792C6.51685 16.549 6.4048 16.5591 6.30293 16.6195C6.20106 16.6798 6.12976 16.8005 6.07882 16.9615C6.02789 17.1426 6.03808 17.2834 6.08901 17.3941C6.15013 17.5048 6.24181 17.5752 6.36405 17.6054C6.43536 17.6255 6.49648 17.6255 6.56779 17.6255C6.6391 17.6154 6.70022 17.5953 6.76134 17.5752L6.81227 17.384L6.46592 17.2935ZM8.04487 16.6698L7.51516 16.5792L7.2503 18.0983L7.5559 18.1486L7.66796 17.5148L7.73926 17.5249C7.81057 17.535 7.86151 17.5551 7.89207 17.5651C7.92263 17.5853 7.943 17.6154 7.97356 17.6456C7.98375 17.6758 8.01431 17.7261 8.04487 17.7965V17.3237C8.01431 17.3237 7.98375 17.3136 7.943 17.3136L7.71889 17.2734L7.78001 16.8911L8.02449 16.9313C8.03468 16.9313 8.04487 16.9313 8.04487 16.9313V16.6698Z" fill="#003399"/>
<path id="Vector_6" fill-rule="evenodd" clip-rule="evenodd" d="M56.5949 14.7885V11.9514H57.8581V6.9615L56.5949 9.45647V3.2291H61.5559L62.819 17.5752H57.8581V14.7885H56.5949ZM56.5949 3.2291V9.45647L55.3318 11.9514H56.5949V14.7885H54.2112L53.2333 17.4243H50.1569V14.1446L53.5898 6.83071H52.8869L54.8428 3.2291H56.5949ZM50.1569 8.00777L51.6951 4.40616L50.1569 3.56109V8.00777ZM37.9226 6.6295C37.9939 6.21703 37.9939 5.81461 37.9226 5.43232V6.6295ZM50.1569 3.56109V8.00777L49.9532 8.49067C46.9175 6.34781 42.4353 8.29952 42.1807 10.5631C41.926 12.9273 43.7494 14.8388 48.4048 13.4102L46.8055 17.6355C40.6628 18.3096 38.2791 15.9052 37.9226 13.0983V11.5088C38.0143 10.7744 38.2078 10.0601 38.4727 9.3961C41.4982 1.97156 46.4082 3.64158 48.2724 3.50073L48.5474 2.67578L50.1569 3.56109ZM50.1569 14.1446L48.6187 17.4243H50.1569V14.1446ZM32.4014 17.3337C35.6917 16.6899 38.9209 12.7864 35.6815 9.67779C36.9447 9.01381 37.7291 7.81663 37.9226 6.6295V5.43232C37.6985 4.1949 36.7308 3.18886 34.9073 3.15868L32.4014 3.10838V5.86492H33.4404C34.5508 5.86492 34.4082 8.70194 33.0228 8.70194H32.4014V10.875C33.8988 11.1567 33.3691 13.209 32.4014 13.8428V17.3337ZM37.9226 11.5088V13.0983C37.8615 12.5752 37.8615 12.042 37.9226 11.5088ZM28.0618 3.01783L26.0347 6.90113L26.9413 6.83071L24.4965 17.4243H31.4948C31.8004 17.4243 32.0958 17.3941 32.4014 17.3337V13.8428C32.2282 13.9635 32.0347 14.0339 31.8411 14.0339H29.325L30.1603 10.8448H32.0448C32.1773 10.8448 32.2995 10.8549 32.4014 10.875V8.70194H30.6493L31.3521 5.86492H32.4014V3.10838L28.0618 3.01783Z" fill="#003399"/>
</g>
</svg>
