<svg width="687" height="719" viewBox="0 0 687 719" fill="none" xmlns="http://www.w3.org/2000/svg">
<g opacity="0.5">
<path opacity="0.010101" d="M109.093 362.605C103.526 356.84 102.304 348.146 106.067 341.069L243.643 82.326C247.405 75.2495 255.297 71.4006 263.19 72.7923L551.782 123.679C559.675 125.071 565.774 131.387 566.89 139.323L607.674 429.516C608.789 437.453 604.667 445.205 597.464 448.718L334.077 577.181C326.873 580.694 318.227 579.169 312.659 573.404L109.093 362.605Z" stroke="url(#paint0_linear_170_1226)" stroke-width="3"/>
<path opacity="0.020202" d="M105.799 358.996C100.333 353.135 99.2633 344.42 103.149 337.41L244.935 81.6218C248.82 74.6121 256.778 70.9015 264.645 72.4308L551.729 128.234C559.596 129.763 565.584 136.185 566.561 144.14L602.202 434.417C603.179 442.372 598.923 450.051 591.659 453.438L326.603 577.035C319.339 580.423 310.72 578.747 305.254 572.886L105.799 358.996Z" stroke="url(#paint1_linear_170_1226)" stroke-width="3"/>
<path opacity="0.030303" d="M102.587 355.392C97.2243 349.436 96.3065 340.704 100.314 333.763L246.248 80.997C250.256 74.0561 258.277 70.4849 266.116 72.1513L551.607 132.834C559.447 134.501 565.322 141.025 566.159 148.996L596.668 439.266C597.506 447.237 593.116 454.841 585.794 458.101L319.158 576.815C311.837 580.074 303.249 578.249 297.886 572.293L102.587 355.392Z" stroke="url(#paint2_linear_170_1226)" stroke-width="3"/>
<path opacity="0.040404" d="M99.4558 351.794C94.1976 345.745 93.4324 336.998 97.5603 330.129L247.581 80.4518C251.709 73.5818 259.791 70.1512 267.6 71.9541L551.416 137.478C559.225 139.281 564.986 145.907 565.684 153.892L591.071 444.064C591.77 452.049 587.248 459.575 579.87 462.706L311.744 576.519C304.367 579.65 295.812 577.675 290.553 571.627L99.4558 351.794Z" stroke="url(#paint3_linear_170_1226)" stroke-width="3"/>
<path opacity="0.050505" d="M96.4057 348.203C91.254 342.063 90.6415 333.305 94.8886 326.508L248.933 79.9856C253.18 73.1888 261.321 69.8997 269.097 71.8386L551.156 142.164C558.932 144.103 564.576 150.829 565.135 158.824L585.413 448.809C585.972 456.804 581.319 464.25 573.888 467.252L304.362 576.148C296.931 579.151 288.412 577.026 283.26 570.887L96.4057 348.203Z" stroke="url(#paint4_linear_170_1226)" stroke-width="3"/>
<path opacity="0.0606061" d="M93.436 344.619C88.3922 338.391 87.9327 329.623 92.2978 322.901L250.301 79.5978C254.666 72.8761 262.863 69.7296 270.604 71.804L550.825 146.889C558.566 148.963 564.092 155.787 564.511 163.79L579.694 453.498C580.114 461.502 575.332 468.866 567.849 471.738L297.012 575.702C289.53 578.575 281.049 576.302 276.005 570.074L93.436 344.619Z" stroke="url(#paint5_linear_170_1226)" stroke-width="3"/>
<path opacity="0.0707071" d="M90.547 341.046C85.6127 334.73 85.3063 325.955 89.7881 319.311L251.684 79.2895C256.166 72.6451 264.417 69.6421 272.121 71.8513L550.423 151.653C558.128 153.862 563.533 160.781 563.813 168.791L573.917 458.132C574.197 466.142 569.287 473.421 561.755 476.162L289.698 575.183C282.166 577.925 273.726 575.504 268.792 569.189L90.547 341.046Z" stroke="url(#paint6_linear_170_1226)" stroke-width="3"/>
<path opacity="0.0808081" d="M87.7378 337.485C82.9145 331.084 82.7612 322.305 87.3583 315.74L253.082 79.0621C257.679 72.4968 265.98 69.6384 273.645 71.9817L549.95 156.457C557.615 158.8 562.899 165.812 563.039 173.825L568.081 462.712C568.221 470.725 563.185 477.917 555.607 480.526L282.418 574.593C274.84 577.202 266.444 574.635 261.62 568.234L87.7378 337.485Z" stroke="url(#paint7_linear_170_1226)" stroke-width="3"/>
<path opacity="0.0909091" d="M85.0084 333.936C80.2975 327.452 80.2975 318.672 85.0085 312.188L254.492 78.9136C259.203 72.4296 267.553 69.7164 275.175 72.1931L549.405 161.296C557.028 163.772 562.188 170.876 562.188 178.89V467.233C562.188 475.247 557.028 482.351 549.405 484.827L275.175 573.93C267.553 576.407 259.203 573.693 254.492 567.209L85.0084 333.936Z" stroke="url(#paint8_linear_170_1226)" stroke-width="3"/>
<path opacity="0.10101" d="M82.358 330.4C77.761 323.835 77.9142 315.056 82.7376 308.655L255.913 78.8443C260.736 72.4436 269.132 69.8765 276.71 72.4858L548.788 166.17C556.366 168.779 561.402 175.971 561.262 183.984L556.24 471.695C556.1 479.709 550.816 486.721 543.151 489.064L267.97 573.195C260.306 575.539 252.004 572.68 247.407 566.115L82.358 330.4Z" stroke="url(#paint9_linear_170_1226)" stroke-width="3"/>
<path opacity="0.111111" d="M79.7869 326.881C75.3051 320.237 75.6115 311.462 80.5459 305.147L257.343 78.8561C262.278 72.5405 270.718 70.1204 278.249 72.8616L548.097 171.078C555.629 173.82 560.538 181.099 560.259 189.108L550.237 476.1C549.957 484.11 544.552 491.029 536.847 493.238L260.805 572.392C253.101 574.601 244.85 571.598 240.368 564.953L79.7869 326.881Z" stroke="url(#paint10_linear_170_1226)" stroke-width="3"/>
<path opacity="0.121212" d="M77.2939 323.378C72.9288 316.657 73.3883 307.889 78.4321 301.66L258.782 78.9464C263.826 72.7178 272.307 70.4453 279.789 73.3175L547.334 176.018C554.816 178.89 559.598 186.254 559.178 194.258L544.18 480.444C543.761 488.448 538.235 495.271 530.494 497.345L253.68 571.517C245.938 573.592 237.741 570.445 233.376 563.724L77.2939 323.378Z" stroke="url(#paint11_linear_170_1226)" stroke-width="3"/>
<path opacity="0.131313" d="M74.8789 319.895C70.6318 313.098 71.2442 304.339 76.396 298.2L260.228 79.1176C265.379 72.978 273.899 70.8539 281.33 73.8563L546.496 180.99C553.927 183.993 558.58 191.439 558.021 199.434L538.071 484.728C537.512 492.724 531.868 499.449 524.092 501.388L246.596 570.576C238.819 572.515 230.678 569.226 226.431 562.429L74.8789 319.895Z" stroke="url(#paint12_linear_170_1226)" stroke-width="3"/>
<path opacity="0.141414" d="M72.5414 316.43C68.4135 309.56 69.1787 300.814 74.4368 294.765L261.678 79.3683C266.936 73.3195 275.491 71.3444 282.869 74.476L545.584 185.992C552.962 189.124 557.484 196.65 556.785 204.634L531.911 488.951C531.212 496.935 525.452 503.562 517.643 505.365L239.554 569.566C231.745 571.369 223.663 567.939 219.535 561.069L72.5414 316.43Z" stroke="url(#paint13_linear_170_1226)" stroke-width="3"/>
<path opacity="0.151515" d="M70.2809 312.986C66.2736 306.045 67.1914 297.313 72.5542 291.357L263.133 79.698C268.496 73.742 277.084 71.9165 284.406 75.1764L544.598 191.021C551.92 194.281 556.31 201.885 555.472 209.856L525.701 493.111C524.863 501.082 518.988 507.607 511.148 509.273L232.557 568.489C224.717 570.156 216.696 566.585 212.689 559.644L70.2809 312.986Z" stroke="url(#paint14_linear_170_1226)" stroke-width="3"/>
<path opacity="0.161616" d="M68.097 309.565C64.2114 302.555 65.2814 293.841 70.7474 287.979L264.59 80.1079C270.056 74.2463 278.675 72.571 285.939 75.9582L543.537 196.078C550.8 199.465 555.057 207.144 554.08 215.099L519.442 497.209C518.465 505.163 512.477 511.585 504.61 513.114L225.604 567.347C217.736 568.877 209.779 565.166 205.893 558.156L68.097 309.565Z" stroke="url(#paint15_linear_170_1226)" stroke-width="3"/>
<path opacity="0.171717" d="M65.9886 306.168C62.2259 299.091 63.4478 290.396 69.0153 284.631L266.048 80.5976C271.616 74.8323 280.262 73.3077 287.466 76.8211L542.4 201.161C549.603 204.674 553.725 212.426 552.61 220.363L513.135 501.243C512.019 509.179 505.92 515.495 498.027 516.887L218.697 566.141C210.804 567.532 202.912 563.683 199.15 556.607L65.9886 306.168Z" stroke="url(#paint16_linear_170_1226)" stroke-width="3"/>
<path opacity="0.181818" d="M63.956 302.795C60.3174 295.653 61.6909 286.982 67.3581 281.314L267.506 81.1661C273.174 75.4989 281.845 74.1254 288.987 77.764L541.188 206.267C548.329 209.906 552.315 217.729 551.061 225.645L506.782 505.212C505.529 513.128 499.32 519.337 491.404 520.59L211.837 564.869C203.921 566.123 196.098 562.137 192.459 554.996L63.956 302.795Z" stroke="url(#paint17_linear_170_1226)" stroke-width="3"/>
<path opacity="0.191919" d="M61.9978 299.448C58.4844 292.245 60.009 283.598 65.7743 278.031L268.962 81.8142C274.728 76.2467 283.422 75.0248 290.499 78.7874L539.9 211.396C546.977 215.159 550.825 223.051 549.434 230.944L500.384 509.117C498.993 517.01 492.677 523.109 484.74 524.224L205.024 563.536C197.088 564.651 189.336 560.529 185.822 553.326L61.9978 299.448Z" stroke="url(#paint18_linear_170_1226)" stroke-width="3"/>
<path opacity="0.20202" d="M60.114 296.128C56.7268 288.864 58.4021 280.245 64.2637 274.779L270.415 82.5396C276.277 77.0736 284.991 76.0036 292.001 79.8892L538.536 216.546C545.546 220.431 549.257 228.389 547.727 236.256L493.943 512.954C492.413 520.821 485.992 526.809 478.037 527.786L198.262 562.138C190.307 563.115 182.627 558.858 179.24 551.595L60.114 296.128Z" stroke="url(#paint19_linear_170_1226)" stroke-width="3"/>
<path opacity="0.212121" d="M58.3035 292.838C55.0436 285.516 56.8691 276.928 62.8252 271.565L271.864 83.346C277.82 77.9831 286.552 77.0653 293.493 81.0727L537.096 221.717C544.037 225.724 547.608 233.745 545.942 241.585L487.458 516.727C485.792 524.567 479.267 530.442 471.296 531.279L191.548 560.682C183.578 561.52 175.974 557.13 172.714 549.808L58.3035 292.838Z" stroke="url(#paint20_linear_170_1226)" stroke-width="3"/>
<path opacity="0.222222" d="M56.5657 289.576C53.4341 282.199 55.4092 273.644 61.4579 268.386L273.306 84.2292C279.355 78.9711 288.101 78.2058 294.971 82.3337L535.579 226.905C542.449 231.033 545.879 239.115 544.077 246.925L480.932 520.431C479.13 528.241 472.503 534.001 464.519 534.699L184.886 559.164C176.902 559.863 169.376 555.341 166.244 547.963L56.5657 289.576Z" stroke="url(#paint21_linear_170_1226)" stroke-width="3"/>
<path opacity="0.232323" d="M54.9 286.347C51.8977 278.916 54.0217 270.397 60.1613 265.245L274.741 85.1917C280.88 80.0399 289.639 79.4275 296.436 83.6746L533.985 232.112C540.782 236.359 544.071 244.5 542.132 252.277L474.367 524.069C472.428 531.846 465.702 537.49 457.707 538.049L178.276 557.588C170.281 558.147 162.835 553.495 159.832 546.064L54.9 286.347Z" stroke="url(#paint22_linear_170_1226)" stroke-width="3"/>
<path opacity="0.242424" d="M53.3061 283.15C50.4339 275.668 52.7063 267.187 58.9349 262.143L276.167 86.2322C282.396 81.1884 291.164 80.7289 297.885 85.094L532.315 237.335C539.037 241.7 542.183 249.897 540.109 257.638L467.762 527.639C465.688 535.381 458.865 540.906 450.861 541.326L171.719 555.955C163.715 556.374 156.351 551.592 153.479 544.11L53.3061 283.15Z" stroke="url(#paint23_linear_170_1226)" stroke-width="3"/>
<path opacity="0.252525" d="M51.7827 279.986C49.0415 272.455 51.4616 264.015 57.7772 259.081L277.583 87.3495C283.899 82.4151 292.674 82.1087 299.318 86.5904L530.568 242.57C537.212 247.052 540.215 255.303 538.006 263.007L461.121 531.139C458.911 538.843 451.993 544.249 443.983 544.529L165.215 554.263C157.205 554.543 149.926 549.633 147.185 542.102L51.7827 279.986Z" stroke="url(#paint24_linear_170_1226)" stroke-width="3"/>
<path opacity="0.262626" d="M50.3291 276.857C47.7198 269.279 50.2868 260.882 56.6876 256.059L278.988 88.5438C285.389 83.7205 294.167 83.5672 300.733 88.1643L528.744 247.819C535.309 252.416 538.167 260.718 535.824 268.382L454.442 534.57C452.099 542.234 445.087 547.518 437.074 547.658L158.766 552.516C150.752 552.656 143.56 547.62 140.951 540.042L50.3291 276.857Z" stroke="url(#paint25_linear_170_1226)" stroke-width="3"/>
<path opacity="0.272727" d="M48.9448 273.764C46.4681 266.142 49.1813 257.791 55.6653 253.081L280.38 89.816C286.864 85.1051 295.644 85.1051 302.128 89.816L526.842 253.081C533.326 257.791 536.039 266.142 533.563 273.764L447.729 537.932C445.253 545.554 438.15 550.715 430.135 550.715L152.373 550.715C144.358 550.715 137.255 545.554 134.778 537.932L48.9448 273.764Z" stroke="url(#paint26_linear_170_1226)" stroke-width="3"/>
<path opacity="0.282828" d="M47.6291 270.708C45.2858 263.044 48.1443 254.742 54.7096 250.145L281.758 91.1645C288.323 86.5674 297.102 86.7207 303.502 91.544L524.864 258.352C531.264 263.175 533.831 271.572 531.222 279.15L440.983 541.223C438.374 548.801 431.181 553.837 423.168 553.697L146.036 548.86C138.022 548.72 131.01 543.436 128.667 535.772L47.6291 270.708Z" stroke="url(#paint27_linear_170_1226)" stroke-width="3"/>
<path opacity="0.292929" d="M46.3809 267.691C44.1718 259.987 47.1747 251.737 53.8192 247.255L283.12 92.5897C289.764 88.1079 298.539 88.4143 304.855 93.3487L522.808 263.632C529.124 268.567 531.544 277.007 528.803 284.538L434.204 544.444C431.463 551.976 424.184 556.885 416.174 556.606L139.756 546.953C131.746 546.673 124.828 541.268 122.619 533.564L46.3809 267.691Z" stroke="url(#paint28_linear_170_1226)" stroke-width="3"/>
<path opacity="0.30303" d="M45.1994 264.712C43.1251 256.971 46.2715 248.774 52.9932 244.409L284.465 94.0892C291.187 89.7241 299.955 90.1836 306.184 95.2273L520.675 268.919C526.904 273.963 529.176 282.444 526.304 289.926L427.395 547.593C424.522 555.076 417.159 559.858 409.155 559.438L133.535 544.993C125.531 544.574 118.708 539.048 116.633 531.307L45.1994 264.712Z" stroke="url(#paint29_linear_170_1226)" stroke-width="3"/>
<path opacity="0.313131" d="M44.084 261.775C42.145 253.999 45.4341 245.858 52.2309 241.611L285.793 95.6653C292.59 91.4182 301.348 92.0307 307.488 97.1824L518.465 274.213C524.605 279.365 526.729 287.884 523.726 295.315L420.555 550.672C417.553 558.103 410.107 562.756 402.112 562.197L127.372 542.985C119.377 542.426 112.651 536.782 110.712 529.006L44.084 261.775Z" stroke="url(#paint30_linear_170_1226)" stroke-width="3"/>
<path opacity="0.323232" d="M43.0336 258.878C41.2307 251.069 44.6613 242.987 51.5312 238.859L287.101 97.3147C293.971 93.1868 302.717 93.952 308.766 99.2101L516.178 279.51C522.227 284.768 524.202 293.324 521.07 300.701L413.688 553.677C410.556 561.055 403.031 565.577 395.046 564.878L121.269 540.926C113.285 540.227 106.658 534.467 104.855 526.658L43.0336 258.878Z" stroke="url(#paint31_linear_170_1226)" stroke-width="3"/>
<path opacity="0.333333" d="M42.0475 256.025C40.3812 248.186 43.9523 240.165 50.8932 236.157L288.388 99.0395C295.329 95.0322 304.061 95.95 310.017 101.313L513.814 284.812C519.77 290.175 521.595 298.763 518.335 306.085L406.794 556.612C403.534 563.933 395.93 568.323 387.959 567.486L115.226 538.82C107.255 537.982 100.731 532.107 99.0643 524.268L42.0475 256.025Z" stroke="url(#paint32_linear_170_1226)" stroke-width="3"/>
<path opacity="0.343434" d="M41.1244 253.215C39.5952 245.347 43.3058 237.39 50.3156 233.504L289.653 100.837C296.663 96.9517 305.378 98.0217 311.239 103.488L511.372 290.115C517.234 295.581 518.909 304.2 515.522 311.463L399.874 559.472C396.487 566.736 388.807 570.993 380.852 570.016L109.244 536.667C101.289 535.69 94.8682 529.702 93.3389 521.835L41.1244 253.215Z" stroke="url(#paint33_linear_170_1226)" stroke-width="3"/>
<path opacity="0.353535" d="M40.2641 250.45C38.8724 242.557 42.7213 234.666 49.7979 230.903L290.896 102.709C297.972 98.9466 306.667 100.169 312.432 105.736L508.855 295.419C514.62 300.987 516.145 309.634 512.631 316.837L392.93 562.262C389.416 569.465 381.664 573.587 373.727 572.472L103.325 534.469C95.388 533.354 89.0723 527.255 87.6805 519.362L40.2641 250.45Z" stroke="url(#paint34_linear_170_1226)" stroke-width="3"/>
<path opacity="0.363636" d="M39.4652 247.73C38.2114 239.814 42.1974 231.991 49.3386 228.353L292.113 104.653C299.254 101.014 307.926 102.388 313.593 108.055L506.26 300.722C511.927 306.389 513.301 315.061 509.662 322.202L385.963 564.977C382.324 572.118 374.501 576.104 366.585 574.85L97.4674 532.226C89.5514 530.972 83.343 524.764 82.0892 516.848L39.4652 247.73Z" stroke="url(#paint35_linear_170_1226)" stroke-width="3"/>
<path opacity="0.373737" d="M38.7269 245.058C37.6114 237.122 41.7334 229.369 48.937 225.856L293.305 106.67C300.509 103.156 309.155 104.681 314.723 110.446L503.589 306.023C509.157 311.789 510.379 320.483 506.616 327.56L378.974 567.619C375.211 574.696 367.32 578.545 359.427 577.153L91.6733 529.941C83.7804 528.549 77.6813 522.233 76.5658 514.297L38.7269 245.058Z" stroke="url(#paint36_linear_170_1226)" stroke-width="3"/>
<path opacity="0.383838" d="M38.0482 242.433C37.0715 234.478 41.3281 226.798 48.5919 223.411L294.47 108.756C301.734 105.369 310.353 107.045 315.819 112.906L500.842 311.32C506.308 317.181 507.378 325.896 503.493 332.906L371.966 570.187C368.08 577.197 360.123 580.908 352.255 579.378L85.9431 527.612C78.0757 526.083 72.0877 519.662 71.111 511.707L38.0482 242.433Z" stroke="url(#paint37_linear_170_1226)" stroke-width="3"/>
<path opacity="0.393939" d="M37.4279 239.856C36.5901 231.886 40.9801 224.282 48.3019 221.022L295.607 110.915C302.928 107.655 311.517 109.48 316.88 115.437L498.019 316.612C503.382 322.568 504.3 331.3 500.292 338.241L364.938 572.682C360.931 579.623 352.91 583.194 345.07 581.528L80.277 525.244C72.4374 523.578 66.5624 517.053 65.7247 509.082L37.4279 239.856Z" stroke="url(#paint38_linear_170_1226)" stroke-width="3"/>
<path opacity="0.40404" d="M36.8655 237.329C36.167 229.344 40.689 221.818 48.0666 218.687L296.714 113.142C304.092 110.011 312.647 111.986 317.905 118.034L495.12 321.897C500.378 327.946 501.144 336.693 497.016 343.563L357.893 575.101C353.765 581.971 345.683 585.402 337.874 583.599L74.6761 522.835C66.8668 521.032 61.1066 514.406 60.4081 506.422L36.8655 237.329Z" stroke="url(#paint39_linear_170_1226)" stroke-width="3"/>
<path opacity="0.414141" d="M36.3595 234.853C35.8004 226.858 40.4531 219.412 47.8842 216.409L297.791 115.44C305.222 112.438 313.741 114.562 318.893 120.702L492.146 327.176C497.297 333.316 497.91 342.074 493.663 348.871L350.832 577.448C346.585 584.245 338.444 587.534 330.667 585.595L69.1405 520.389C61.3639 518.451 55.7202 511.725 55.1611 503.729L36.3595 234.853Z" stroke="url(#paint40_linear_170_1226)" stroke-width="3"/>
<path opacity="0.424242" d="M35.9091 232.428C35.4897 224.424 40.2716 217.061 47.754 214.189L298.836 117.807C306.319 114.935 314.799 117.207 319.843 123.436L489.096 332.446C494.14 338.674 494.599 347.442 490.234 354.164L343.756 579.721C339.391 586.442 331.194 589.589 323.452 587.515L63.6711 517.906C55.9296 515.832 50.4041 509.009 49.9847 501.005L35.9091 232.428Z" stroke="url(#paint41_linear_170_1226)" stroke-width="3"/>
<path opacity="0.434343" d="M35.5135 230.055C35.2338 222.045 40.1435 214.766 47.6749 212.025L299.849 120.241C307.38 117.5 315.82 119.92 320.754 126.236L485.972 337.705C490.906 344.02 491.212 352.795 486.731 359.44L336.667 581.918C332.185 588.563 323.935 591.566 316.23 589.356L58.2685 515.387C50.5643 513.178 45.1588 506.259 44.8791 498.249L35.5135 230.055Z" stroke="url(#paint42_linear_170_1226)" stroke-width="3"/>
<path opacity="0.444444" d="M35.1713 227.736C35.0314 219.722 40.0674 212.53 47.6454 209.921L300.827 122.744C308.405 120.134 316.801 122.701 321.625 129.102L482.773 342.953C487.596 349.353 487.749 358.132 483.152 364.697L329.566 584.042C324.969 590.607 316.667 593.465 309.002 591.122L52.9328 512.834C45.2683 510.49 39.9844 503.478 39.8445 495.465L35.1713 227.736Z" stroke="url(#paint43_linear_170_1226)" stroke-width="3"/>
<path opacity="0.454545" d="M34.8817 225.471C34.8816 217.456 40.0424 210.353 47.6648 207.877L301.77 125.313C309.393 122.836 317.743 125.549 322.454 132.033L479.499 348.188C484.21 354.672 484.21 363.452 479.499 369.936L322.454 586.091C317.743 592.575 309.393 595.288 301.77 592.811L47.6648 510.248C40.0424 507.771 34.8816 500.668 34.8817 492.653L34.8817 225.471Z" stroke="url(#paint44_linear_170_1226)" stroke-width="3"/>
<path opacity="0.464646" d="M34.6432 223.26C34.7831 215.247 40.067 208.235 47.7315 205.892L302.677 127.947C310.341 125.604 318.643 128.462 323.24 135.028L476.152 353.409C480.749 359.974 480.596 368.753 475.773 375.154L315.332 588.065C310.509 594.466 302.113 597.033 294.534 594.424L42.4646 507.629C34.8866 505.02 29.8506 497.828 29.9905 489.814L34.6432 223.26Z" stroke="url(#paint45_linear_170_1226)" stroke-width="3"/>
<path opacity="0.474747" d="M34.4551 221.105C34.7348 213.095 40.1404 206.176 47.8446 203.967L303.546 130.646C311.251 128.437 319.501 131.44 323.983 138.084L472.732 358.614C477.214 365.258 476.907 374.033 471.973 380.348L308.203 589.964C303.269 596.28 294.829 598.7 287.297 595.959L37.333 504.979C29.8017 502.238 24.8919 494.959 25.1717 486.949L34.4551 221.105Z" stroke="url(#paint46_linear_170_1226)" stroke-width="3"/>
<path opacity="0.484848" d="M34.3163 219.006C34.7357 211.002 40.2612 204.179 48.0028 202.105L304.378 133.409C312.119 131.335 320.316 134.481 324.681 141.203L469.239 363.802C473.604 370.524 473.144 379.292 468.1 385.52L301.067 591.789C296.023 598.018 287.542 600.29 280.06 597.418L32.2702 502.301C24.7878 499.428 20.0059 492.065 20.4254 484.061L34.3163 219.006Z" stroke="url(#paint47_linear_170_1226)" stroke-width="3"/>
<path opacity="0.494949" d="M34.2255 216.964C34.7846 208.969 40.4283 202.243 48.2049 200.304L305.169 136.236C312.946 134.297 321.087 137.586 325.334 144.383L465.673 368.972C469.92 375.769 469.307 384.527 464.156 390.667L293.926 593.539C288.774 599.679 280.255 601.803 272.824 598.801L27.2766 499.593C19.8455 496.591 15.1928 489.145 15.7519 481.15L34.2255 216.964Z" stroke="url(#paint48_linear_170_1226)" stroke-width="3"/>
<path opacity="0.50505" d="M34.1817 214.981C34.8802 206.997 40.6404 200.37 48.4497 198.568L305.92 139.126C313.73 137.323 321.812 140.754 325.939 147.623L462.035 374.124C466.163 380.994 465.397 389.741 460.139 395.789L286.78 595.216C281.522 601.265 272.967 603.24 265.59 600.108L22.3524 496.86C14.9749 493.729 10.4528 486.203 11.1514 478.219L34.1817 214.981Z" stroke="url(#paint49_linear_170_1226)" stroke-width="3"/>
<path opacity="0.515152" d="M34.1836 213.056C35.0214 205.085 40.8963 198.561 48.7359 196.894L306.63 142.077C314.469 140.411 322.49 143.982 326.498 150.923L458.325 379.255C462.333 386.196 461.415 394.928 456.052 400.884L279.632 596.818C274.269 602.774 265.681 604.6 258.359 601.34L17.4981 494.102C10.1763 490.842 5.78634 483.238 6.6241 475.267L34.1836 213.056Z" stroke="url(#paint50_linear_170_1226)" stroke-width="3"/>
<path opacity="0.525253" d="M34.2302 211.19C35.2069 203.235 41.1949 196.814 49.0623 195.285L307.297 145.089C315.164 143.56 323.121 147.27 327.007 154.28L454.545 384.364C458.43 391.374 457.36 400.089 451.894 405.95L272.483 598.346C267.017 604.207 258.398 605.882 251.134 602.495L12.714 491.318C5.45023 487.931 1.19358 480.252 2.17033 472.297L34.2302 211.19Z" stroke="url(#paint51_linear_170_1226)" stroke-width="3"/>
<path opacity="0.535354" d="M34.3207 209.385C35.4361 201.448 41.5352 195.132 49.4281 193.74L307.92 148.161C315.813 146.769 323.705 150.618 327.467 157.695L450.694 389.451C454.457 396.527 453.235 405.222 447.667 410.987L265.334 599.799C259.766 605.565 251.119 607.089 243.916 603.576L8.00063 488.512C0.797082 484.999 -3.3249 477.247 -2.20947 469.31L34.3207 209.385Z" stroke="url(#paint52_linear_170_1226)" stroke-width="3"/>
<path opacity="0.545455" d="M34.4532 207.639C35.707 199.723 41.9154 193.515 49.8314 192.261L308.499 151.292C316.415 150.038 324.238 154.024 327.877 161.165L446.773 394.513C450.412 401.654 449.038 410.326 443.371 415.993L258.185 601.179C252.518 606.846 243.846 608.22 236.705 604.581L3.35764 485.685C-3.78349 482.046 -7.76952 474.223 -6.51574 466.307L34.4532 207.639Z" stroke="url(#paint53_linear_170_1226)" stroke-width="3"/>
<path opacity="0.555556" d="M34.627 205.955C36.0187 198.062 42.3345 191.963 50.2712 190.847L309.032 154.481C316.969 153.365 324.721 157.487 328.235 164.691L442.783 399.55C446.296 406.753 444.772 415.4 439.007 420.967L251.04 602.484C245.275 608.052 236.58 609.274 229.504 605.511L-1.21431 482.836C-8.29084 479.074 -12.1398 471.182 -10.748 463.289L34.627 205.955Z" stroke="url(#paint54_linear_170_1226)" stroke-width="3"/>
<path opacity="0.565657" d="M34.8411 204.333C36.3703 196.466 42.7916 190.478 50.7466 189.501L309.52 157.728C317.475 156.751 325.154 161.007 328.541 168.271L438.724 404.561C442.112 411.824 440.436 420.443 434.575 425.909L243.899 603.717C238.037 609.183 229.323 610.253 222.313 606.368L-5.71486 479.97C-12.7247 476.084 -16.4353 468.127 -14.906 460.259L34.8411 204.333Z" stroke="url(#paint55_linear_170_1226)" stroke-width="3"/>
<path opacity="0.575758" d="M35.0937 202.773C36.76 194.933 43.2849 189.058 51.2556 188.22L309.959 161.029C317.93 160.192 325.534 164.582 328.794 171.903L434.597 409.543C437.857 416.865 436.032 425.453 430.076 430.816L236.763 604.876C230.807 610.239 222.075 611.156 215.134 607.149L-10.1444 477.085C-17.0853 473.077 -20.6564 465.056 -18.9901 457.217L35.0937 202.773Z" stroke="url(#paint56_linear_170_1226)" stroke-width="3"/>
<path opacity="0.585859" d="M35.3842 201.276C37.1871 193.467 43.8135 187.707 51.7977 187.008L310.351 164.388C318.335 163.689 325.861 168.211 328.993 175.589L430.403 414.497C433.535 421.875 431.56 430.43 425.511 435.688L229.633 605.962C223.584 611.22 214.838 611.985 207.968 607.858L-14.5022 474.184C-21.3721 470.056 -24.8027 461.974 -22.9998 454.165L35.3842 201.276Z" stroke="url(#paint57_linear_170_1226)" stroke-width="3"/>
<path opacity="0.59596" d="M35.7108 199.842C37.6498 192.066 44.3757 186.422 52.3708 185.863L310.693 167.799C318.688 167.24 326.134 171.893 329.137 179.324L426.142 419.421C429.144 426.852 427.02 435.372 420.881 440.523L222.511 606.975C216.372 612.127 207.613 612.739 200.816 608.492L-18.7886 471.268C-25.5854 467.021 -28.8745 458.88 -26.9356 451.103L35.7108 199.842Z" stroke="url(#paint58_linear_170_1226)" stroke-width="3"/>
<path opacity="0.606061" d="M36.073 198.473C38.1474 190.732 44.9707 185.206 52.9744 184.787L310.986 171.265C318.989 170.845 326.353 175.627 329.225 183.11L421.815 424.314C424.687 431.797 422.415 440.278 416.186 445.321L215.399 607.916C209.17 612.96 200.402 613.419 193.68 609.054L-23.003 468.338C-29.7247 463.973 -32.8712 455.776 -30.7968 448.035L36.073 198.473Z" stroke="url(#paint59_linear_170_1226)" stroke-width="3"/>
<path opacity="0.616162" d="M36.4691 197.168C38.6782 189.464 45.597 184.058 53.6068 183.778L311.227 174.782C319.237 174.502 326.516 179.412 329.257 186.943L417.422 429.175C420.164 436.706 417.743 445.146 411.428 450.081L208.296 608.784C201.981 613.719 193.206 614.025 186.561 609.543L-27.1457 465.396C-33.7902 460.914 -36.7932 452.664 -34.584 444.959L36.4691 197.168Z" stroke="url(#paint60_linear_170_1226)" stroke-width="3"/>
<path opacity="0.626263" d="M36.8979 195.928C39.2412 188.264 46.2532 182.98 54.2667 182.84L311.417 178.351C319.431 178.211 326.623 183.248 329.232 190.826L412.965 434.003C415.574 441.581 413.007 449.978 406.606 454.801L201.206 609.582C194.805 614.405 186.026 614.558 179.461 609.961L-31.2166 462.443C-37.7818 457.846 -40.6403 449.544 -38.297 441.88L36.8979 195.928Z" stroke="url(#paint61_linear_170_1226)" stroke-width="3"/>
<path opacity="0.636364" d="M37.3583 194.754C39.8349 187.132 46.9381 181.971 54.9528 181.971L311.555 181.971C319.569 181.971 326.673 187.132 329.149 194.754L408.444 438.797C410.92 446.419 408.207 454.77 401.723 459.481L194.128 610.308C187.644 615.018 178.864 615.018 172.38 610.307L-35.2156 459.481C-41.6996 454.77 -44.4128 446.419 -41.9361 438.797L37.3583 194.754Z" stroke="url(#paint62_linear_170_1226)" stroke-width="3"/>
<path opacity="0.646465" d="M37.849 193.645C40.4583 186.067 47.6505 181.031 55.6639 181.171L311.639 185.639C319.653 185.779 326.665 191.063 329.008 198.727L403.859 443.555C406.202 451.219 403.344 459.521 396.779 464.118L187.064 610.962C180.499 615.559 171.72 615.405 165.319 610.582L-39.1426 456.509C-45.5434 451.686 -48.1104 443.289 -45.5011 435.711L37.849 193.645Z" stroke="url(#paint63_linear_170_1226)" stroke-width="3"/>
<path opacity="0.656566" d="M38.3688 192.603C41.11 185.071 48.389 180.162 56.3988 180.441L311.67 189.356C319.679 189.635 326.598 195.041 328.807 202.745L399.212 448.277C401.421 455.981 398.418 464.231 391.774 468.713L180.016 611.546C173.371 616.027 164.597 615.721 158.281 610.787L-42.9976 453.53C-49.3132 448.596 -51.7333 440.156 -48.9921 432.625L38.3688 192.603Z" stroke="url(#paint64_linear_170_1226)" stroke-width="3"/>
<path opacity="0.666667" d="M38.9165 191.626C41.7887 184.143 49.1522 179.361 57.1559 179.781L311.645 193.118C319.649 193.538 326.472 199.063 328.547 206.805L394.504 452.96C396.578 460.701 393.432 468.898 386.71 473.263L172.984 612.058C166.263 616.423 157.495 615.964 151.266 610.92L-46.7807 450.545C-53.0092 445.501 -55.2817 437.02 -52.4095 429.538L38.9165 191.626Z" stroke="url(#paint65_linear_170_1226)" stroke-width="3"/>
<path opacity="0.676768" d="M39.4906 190.717C42.4929 183.286 49.9388 178.633 57.934 179.192L311.565 196.928C319.561 197.487 326.286 203.13 328.225 210.907L389.734 457.605C391.673 465.382 388.384 473.523 381.587 477.77L165.97 612.502C159.174 616.749 150.415 616.137 144.275 610.985L-50.4921 447.556C-56.6317 442.404 -58.7558 433.885 -55.7534 426.454L39.4906 190.717Z" stroke="url(#paint66_linear_170_1226)" stroke-width="3"/>
<path opacity="0.686869" d="M40.0901 189.874C43.2217 182.497 50.7477 177.975 58.7318 178.673L311.43 200.782C319.414 201.48 326.04 207.24 327.843 215.05L384.905 462.211C386.708 470.02 383.277 478.103 376.407 482.23L158.976 612.877C152.106 617.004 143.359 616.239 137.31 610.981L-54.1317 444.563C-60.1804 439.305 -62.1555 430.75 -59.0239 423.372L40.0901 189.874Z" stroke="url(#paint67_linear_170_1226)" stroke-width="3"/>
<path opacity="0.69697" d="M40.7139 189.1C43.9738 181.778 51.5775 177.388 59.5483 178.226L311.237 204.679C319.208 205.517 325.733 211.392 327.399 219.231L380.016 466.776C381.683 474.616 378.112 482.637 371.171 486.644L152.001 613.182C145.06 617.189 136.328 616.271 130.372 610.908L-57.6994 441.568C-63.6555 436.205 -65.4809 427.617 -62.2211 420.295L40.7139 189.1Z" stroke="url(#paint68_linear_170_1226)" stroke-width="3"/>
<path opacity="0.707071" d="M41.3603 188.394C44.7474 181.13 52.4266 176.873 60.3816 177.85L310.987 208.62C318.942 209.597 325.363 215.585 326.893 223.453L375.069 471.301C376.599 479.168 372.888 487.126 365.878 491.012L145.048 613.42C138.038 617.305 129.323 616.235 123.462 610.769L-61.1958 438.573C-67.0573 433.107 -68.7327 424.489 -65.3455 417.225L41.3603 188.394Z" stroke="url(#paint69_linear_170_1226)" stroke-width="3"/>
<path opacity="0.717172" d="M42.0284 187.754C45.5418 180.551 53.2941 176.429 61.2308 177.544L310.679 212.602C318.616 213.717 324.931 219.816 326.323 227.709L370.065 475.782C371.457 483.675 367.608 491.566 360.531 495.329L138.117 613.589C131.041 617.351 122.346 616.13 116.581 610.562L-64.6206 435.578C-70.3859 430.01 -71.9105 421.364 -68.3971 414.16L42.0284 187.754Z" stroke="url(#paint70_linear_170_1226)" stroke-width="3"/>
<path opacity="0.727273" d="M42.7166 187.184C46.3552 180.043 54.1783 176.057 62.0943 177.311L310.312 216.625C318.228 217.879 324.436 224.087 325.69 232.003L365.004 480.221C366.258 488.137 362.272 495.96 355.131 499.598L131.21 613.692C124.069 617.33 115.397 615.957 109.73 610.289L-67.9745 432.585C-73.6417 426.918 -75.0152 418.246 -71.3766 411.105L42.7166 187.184Z" stroke="url(#paint71_linear_170_1226)" stroke-width="3"/>
<path opacity="0.737374" d="M43.4241 186.682C47.1868 179.606 55.0782 175.757 62.9711 177.149L309.886 220.686C317.779 222.078 323.878 228.394 324.994 236.331L359.888 484.615C361.003 492.551 356.881 500.304 349.678 503.817L124.328 613.727C117.125 617.241 108.478 615.716 102.911 609.951L-71.257 429.595C-76.8244 423.83 -78.0464 415.135 -74.2837 408.059L43.4241 186.682Z" stroke="url(#paint72_linear_170_1226)" stroke-width="3"/>
<path opacity="0.747475" d="M44.1491 186.25C48.0347 179.24 55.9921 175.529 63.8596 177.059L309.4 224.787C317.268 226.316 323.256 232.738 324.232 240.693L354.716 488.964C355.693 496.919 351.436 504.598 344.173 507.986L117.472 613.698C110.208 617.085 101.59 615.41 96.1236 609.548L-74.4689 426.61C-79.9349 420.748 -81.005 412.034 -77.1193 405.024L44.1491 186.25Z" stroke="url(#paint73_linear_170_1226)" stroke-width="3"/>
<path opacity="0.757576" d="M44.8908 185.885C48.8981 178.944 56.9191 175.373 64.7586 177.039L308.854 228.923C316.693 230.589 322.568 237.114 323.406 245.085L349.491 493.266C350.329 501.237 345.939 508.841 338.617 512.101L110.643 613.601C103.321 616.861 94.7333 615.036 89.3704 609.08L-77.6102 423.629C-82.973 417.673 -83.8908 408.941 -79.8834 402L44.8908 185.885Z" stroke="url(#paint74_linear_170_1226)" stroke-width="3"/>
<path opacity="0.767677" d="M45.6477 185.59C49.7756 178.72 57.8576 175.289 65.6669 177.092L308.247 233.096C316.056 234.899 321.816 241.525 322.515 249.509L344.213 497.523C344.912 505.507 340.39 513.033 333.012 516.164L103.842 613.441C96.4649 616.573 87.9099 614.598 82.6518 608.549L-80.6811 420.656C-85.9392 414.607 -86.7044 405.86 -82.5766 398.991L45.6477 185.59Z" stroke="url(#paint75_linear_170_1226)" stroke-width="3"/>
<path opacity="0.777778" d="M46.4185 185.364C50.6657 178.567 58.8064 175.278 66.583 177.217L307.578 237.304C315.355 239.243 320.998 245.969 321.558 253.964L338.883 501.732C339.442 509.727 334.79 517.173 327.358 520.175L97.0711 613.217C89.64 616.22 81.1208 614.095 75.969 607.956L-83.682 417.691C-88.8337 411.552 -89.4462 402.793 -85.1991 395.996L46.4185 185.364Z" stroke="url(#paint76_linear_170_1226)" stroke-width="3"/>
<path opacity="0.787879" d="M47.2021 185.208C51.5672 178.486 59.7641 175.339 67.5057 177.414L306.848 241.545C314.589 243.62 320.115 250.443 320.534 258.447L333.502 505.892C333.922 513.896 329.14 521.259 321.658 524.132L90.3302 612.93C82.8478 615.802 74.3669 613.53 69.3231 607.301L-86.6131 414.736C-91.6569 408.507 -92.1164 399.739 -87.7513 393.018L47.2021 185.208Z" stroke="url(#paint77_linear_170_1226)" stroke-width="3"/>
<path opacity="0.79798" d="M47.997 185.119C52.4788 178.475 60.7293 175.472 68.4335 177.681L306.055 245.818C313.759 248.027 319.165 254.946 319.444 262.955L328.071 510.002C328.351 518.012 323.441 525.291 315.91 528.032L83.6205 612.579C76.0892 615.32 67.6493 612.9 62.7149 606.584L-89.475 411.79C-94.4093 405.474 -94.7157 396.699 -90.234 390.055L47.997 185.119Z" stroke="url(#paint78_linear_170_1226)" stroke-width="3"/>
<path opacity="0.808081" d="M48.8024 185.101C53.3994 178.536 61.7011 175.677 69.3655 178.021L305.199 250.122C312.864 252.466 318.148 259.478 318.288 267.491L322.592 514.063C322.732 522.077 317.696 529.269 310.118 531.878L76.9436 612.166C69.3656 614.776 60.9692 612.209 56.1458 605.808L-92.2675 408.857C-97.0909 402.456 -97.2441 393.677 -92.6471 387.112L48.8024 185.101Z" stroke="url(#paint79_linear_170_1226)" stroke-width="3"/>
<path opacity="0.818182" d="M49.6162 185.152C54.3272 178.668 62.6774 175.954 70.2998 178.431L304.281 254.456C311.903 256.933 317.064 264.036 317.064 272.051L317.064 518.072C317.064 526.087 311.903 533.19 304.28 535.667L70.2999 611.692C62.6774 614.169 54.3271 611.455 49.6162 604.971L-94.9918 405.935C-99.7027 399.451 -99.7027 390.671 -94.9918 384.187L49.6162 185.152Z" stroke="url(#paint80_linear_170_1226)" stroke-width="3"/>
<path opacity="0.828283" d="M50.438 185.272C55.2613 178.871 63.6577 176.304 71.2357 178.913L303.298 258.819C310.876 261.428 315.912 268.62 315.772 276.634L311.489 522.031C311.349 530.044 306.065 537.056 298.401 539.399L63.6909 611.157C56.0264 613.501 47.7247 610.642 43.1277 604.077L-97.6475 403.029C-102.245 396.464 -102.091 387.685 -97.2679 381.284L50.438 185.272Z" stroke="url(#paint81_linear_170_1226)" stroke-width="3"/>
<path opacity="0.838384" d="M51.2663 185.461C56.2006 179.145 64.6405 176.725 72.1719 179.466L302.252 263.209C309.783 265.95 314.693 273.229 314.413 281.239L305.868 525.936C305.589 533.946 300.183 540.864 292.479 543.074L57.1177 610.562C49.4135 612.771 41.163 609.768 36.6812 603.124L-100.235 400.137C-104.717 393.493 -104.41 384.718 -99.4761 378.402L51.2663 185.461Z" stroke="url(#paint82_linear_170_1226)" stroke-width="3"/>
<path opacity="0.848485" d="M52.0994 185.72C57.1432 179.492 65.6241 177.219 73.1064 180.092L301.141 267.626C308.624 270.498 313.406 277.862 312.986 285.865L300.203 529.789C299.783 537.793 294.258 544.616 286.516 546.69L50.5806 609.909C42.839 611.984 34.6422 608.837 30.2771 602.115L-102.756 397.263C-107.121 390.541 -106.661 381.773 -101.617 375.545L52.0994 185.72Z" stroke="url(#paint83_linear_170_1226)" stroke-width="3"/>
<path opacity="0.858586" d="M52.9367 186.048C58.0884 179.908 66.6077 177.784 74.0388 180.786L299.966 272.067C307.397 275.069 312.05 282.515 311.491 290.51L294.493 533.587C293.934 541.583 288.291 548.309 280.514 550.247L44.0814 609.197C36.3048 611.136 28.1641 607.847 23.9169 601.05L-105.209 394.405C-109.456 387.608 -108.844 378.85 -103.692 372.71L52.9367 186.048Z" stroke="url(#paint84_linear_170_1226)" stroke-width="3"/>
<path opacity="0.868687" d="M53.7765 186.445C59.0346 180.396 67.5896 178.421 74.9671 181.553L298.726 276.533C306.104 279.664 310.626 287.19 309.927 295.174L288.741 537.332C288.043 545.316 282.282 551.943 274.473 553.746L37.6204 608.427C29.8112 610.23 21.7291 606.8 17.6012 599.93L-107.596 391.567C-111.724 384.697 -110.958 375.951 -105.7 369.902L53.7765 186.445Z" stroke="url(#paint85_linear_170_1226)" stroke-width="3"/>
<path opacity="0.878788" d="M54.618 186.911C59.9808 180.955 68.569 179.13 75.8908 182.39L297.421 281.021C304.743 284.281 309.133 291.885 308.295 299.856L282.947 541.022C282.11 548.993 276.235 555.518 268.395 557.184L31.1992 607.602C23.3596 609.268 15.3387 605.697 11.3313 598.756L-109.916 388.749C-113.924 381.808 -113.006 373.076 -107.643 367.12L54.618 186.911Z" stroke="url(#paint86_linear_170_1226)" stroke-width="3"/>
<path opacity="0.888889" d="M55.4594 187.446C60.9254 181.584 69.5441 179.909 76.8079 183.296L296.05 285.531C303.314 288.918 307.571 296.597 306.594 304.552L277.113 544.656C276.136 552.611 270.148 559.032 262.281 560.562L24.8181 606.72C16.9506 608.249 8.99321 604.539 5.1076 597.529L-112.171 385.952C-116.057 378.942 -114.987 370.227 -109.521 364.366L55.4594 187.446Z" stroke="url(#paint87_linear_170_1226)" stroke-width="3"/>
<path opacity="0.89899" d="M56.2997 188.05C61.8671 182.284 70.5138 180.76 77.7173 184.273L294.614 290.061C301.817 293.574 305.939 301.326 304.824 309.263L271.239 548.234C270.123 556.171 264.024 562.487 256.131 563.878L18.478 605.783C10.5851 607.175 2.69362 603.326 -1.06906 596.249L-114.362 383.177C-118.124 376.1 -116.902 367.406 -111.335 361.64L56.2997 188.05Z" stroke="url(#paint88_linear_170_1226)" stroke-width="3"/>
<path opacity="0.909091" d="M57.138 188.723C62.8052 183.056 71.4772 181.682 78.6183 185.321L293.112 294.611C300.253 298.249 304.239 306.072 302.985 313.988L265.327 551.756C264.073 559.672 257.864 565.881 249.948 567.134L12.1804 604.793C4.26441 606.047 -3.55867 602.061 -7.19726 594.92L-116.487 380.426C-120.126 373.285 -118.752 364.613 -113.085 358.946L57.138 188.723Z" stroke="url(#paint89_linear_170_1226)" stroke-width="3"/>
<path opacity="0.919192" d="M57.9726 189.462C63.7379 183.895 72.4324 182.673 79.509 186.436L291.543 299.177C298.62 302.939 302.469 310.831 301.077 318.724L259.377 555.219C257.985 563.112 251.669 569.211 243.732 570.327L5.92553 603.748C-2.01116 604.864 -9.76345 600.742 -13.2769 593.538L-118.549 377.698C-122.062 370.495 -120.538 361.848 -114.773 356.281L57.9726 189.462Z" stroke="url(#paint90_linear_170_1226)" stroke-width="3"/>
<path opacity="0.929293" d="M58.8025 190.271C64.664 184.805 73.3786 183.735 80.3884 187.621L289.909 303.76C296.919 307.646 300.629 315.603 299.1 323.47L253.391 558.625C251.861 566.493 245.44 572.481 237.485 573.457L-0.285465 602.652C-8.24041 603.629 -15.9196 599.372 -19.3067 592.108L-120.548 374.997C-123.935 367.733 -122.259 359.114 -116.398 353.648L58.8025 190.271Z" stroke="url(#paint91_linear_170_1226)" stroke-width="3"/>
<path opacity="0.939394" d="M59.6266 191.148C65.5826 185.785 74.3146 184.867 81.2555 188.875L288.208 308.359C295.149 312.366 298.72 320.387 297.054 328.227L247.37 561.973C245.703 569.812 239.178 575.687 231.208 576.525L-6.45165 601.504C-14.4224 602.342 -22.0261 597.952 -25.286 590.63L-122.483 372.322C-125.743 365 -123.918 356.412 -117.962 351.049L59.6266 191.148Z" stroke="url(#paint92_linear_170_1226)" stroke-width="3"/>
<path opacity="0.949495" d="M60.4433 192.093C66.4921 186.835 75.2387 186.07 82.1086 190.198L286.441 312.973C293.311 317.101 296.741 325.183 294.938 332.992L241.314 565.263C239.511 573.072 232.885 578.832 224.901 579.531L-12.5726 600.307C-20.5568 601.006 -28.0827 596.484 -31.2143 589.106L-124.357 369.675C-127.489 362.298 -125.514 353.743 -119.465 348.485L60.4433 192.093Z" stroke="url(#paint93_linear_170_1226)" stroke-width="3"/>
<path opacity="0.959596" d="M61.2521 193.104C67.3917 187.952 76.1504 187.34 82.9472 191.587L284.607 317.598C291.404 321.845 294.693 329.986 292.754 337.762L235.227 568.492C233.288 576.268 226.562 581.912 218.567 582.471L-18.6469 599.058C-26.6421 599.618 -34.088 594.965 -37.0903 587.534L-126.169 367.056C-129.171 359.625 -127.047 351.106 -120.908 345.954L61.2521 193.104Z" stroke="url(#paint94_linear_170_1226)" stroke-width="3"/>
<path opacity="0.969697" d="M62.0509 194.183C68.2795 189.139 77.0475 188.679 83.7692 193.045L282.706 322.236C289.428 326.601 292.574 334.798 290.5 342.539L229.107 571.662C227.032 579.403 220.209 584.929 212.205 585.348L-24.6747 597.763C-32.6784 598.182 -40.0419 593.4 -42.9141 585.918L-127.921 364.468C-130.793 356.985 -128.521 348.505 -122.292 343.461L62.0509 194.183Z" stroke="url(#paint95_linear_170_1226)" stroke-width="3"/>
<path opacity="0.979798" d="M62.8395 195.327C69.1552 190.392 77.9298 190.086 84.5743 194.568L280.739 326.882C287.383 331.364 290.386 339.615 288.177 347.319L222.957 574.77C220.747 582.474 213.829 587.88 205.819 588.159L-30.6542 596.417C-38.664 596.697 -45.9429 591.787 -48.6841 584.256L-129.612 361.908C-132.353 354.377 -129.933 345.937 -123.617 341.003L62.8395 195.327Z" stroke="url(#paint96_linear_170_1226)" stroke-width="3"/>
<path opacity="0.989899" d="M63.6161 196.539C70.0169 191.715 78.7956 191.562 85.3608 196.159L278.705 331.54C285.27 336.137 288.129 344.439 285.785 352.103L216.777 577.819C214.434 585.484 207.422 590.768 199.408 590.908L-36.5853 595.027C-44.5988 595.167 -51.791 590.131 -54.4003 582.553L-131.244 359.382C-133.853 351.804 -131.286 343.408 -124.885 338.585L63.6161 196.539Z" stroke="url(#paint97_linear_170_1226)" stroke-width="3"/>
<path d="M64.3799 197.816C70.8639 193.105 79.6439 193.105 86.1279 197.816L276.604 336.205C283.088 340.916 285.801 349.266 283.325 356.889L210.569 580.807C208.093 588.43 200.989 593.59 192.975 593.59H-42.4669C-50.4816 593.59 -57.5848 588.43 -60.0615 580.807L-132.817 356.889C-135.294 349.266 -132.58 340.916 -126.096 336.205L64.3799 197.816Z" stroke="url(#paint98_linear_170_1226)" stroke-width="3"/>
</g>
<defs>
<linearGradient id="paint0_linear_170_1226" x1="392.066" y1="473.303" x2="346.706" y2="150.553" gradientUnits="userSpaceOnUse">
<stop stop-color="#FF1CF7"/>
<stop offset="1" stop-color="#00F0FF"/>
</linearGradient>
<linearGradient id="paint1_linear_170_1226" x1="386.264" y1="474.387" x2="346.617" y2="151.485" gradientUnits="userSpaceOnUse">
<stop stop-color="#FF1CF7"/>
<stop offset="1" stop-color="#00F0FF"/>
</linearGradient>
<linearGradient id="paint2_linear_170_1226" x1="380.467" y1="475.422" x2="346.523" y2="152.469" gradientUnits="userSpaceOnUse">
<stop stop-color="#FF1CF7"/>
<stop offset="1" stop-color="#00F0FF"/>
</linearGradient>
<linearGradient id="paint3_linear_170_1226" x1="374.674" y1="476.408" x2="346.423" y2="153.505" gradientUnits="userSpaceOnUse">
<stop stop-color="#FF1CF7"/>
<stop offset="1" stop-color="#00F0FF"/>
</linearGradient>
<linearGradient id="paint4_linear_170_1226" x1="368.887" y1="477.345" x2="346.317" y2="154.591" gradientUnits="userSpaceOnUse">
<stop stop-color="#FF1CF7"/>
<stop offset="1" stop-color="#00F0FF"/>
</linearGradient>
<linearGradient id="paint5_linear_170_1226" x1="363.106" y1="478.232" x2="346.204" y2="155.727" gradientUnits="userSpaceOnUse">
<stop stop-color="#FF1CF7"/>
<stop offset="1" stop-color="#00F0FF"/>
</linearGradient>
<linearGradient id="paint6_linear_170_1226" x1="357.333" y1="479.071" x2="346.083" y2="156.914" gradientUnits="userSpaceOnUse">
<stop stop-color="#FF1CF7"/>
<stop offset="1" stop-color="#00F0FF"/>
</linearGradient>
<linearGradient id="paint7_linear_170_1226" x1="351.568" y1="479.862" x2="345.953" y2="158.153" gradientUnits="userSpaceOnUse">
<stop stop-color="#FF1CF7"/>
<stop offset="1" stop-color="#00F0FF"/>
</linearGradient>
<linearGradient id="paint8_linear_170_1226" x1="345.813" y1="480.604" x2="345.813" y2="159.441" gradientUnits="userSpaceOnUse">
<stop stop-color="#FF1CF7"/>
<stop offset="1" stop-color="#00F0FF"/>
</linearGradient>
<linearGradient id="paint9_linear_170_1226" x1="340.067" y1="481.297" x2="345.662" y2="160.777" gradientUnits="userSpaceOnUse">
<stop stop-color="#FF1CF7"/>
<stop offset="1" stop-color="#00F0FF"/>
</linearGradient>
<linearGradient id="paint10_linear_170_1226" x1="334.333" y1="481.944" x2="345.5" y2="162.165" gradientUnits="userSpaceOnUse">
<stop stop-color="#FF1CF7"/>
<stop offset="1" stop-color="#00F0FF"/>
</linearGradient>
<linearGradient id="paint11_linear_170_1226" x1="328.61" y1="482.542" x2="345.325" y2="163.601" gradientUnits="userSpaceOnUse">
<stop stop-color="#FF1CF7"/>
<stop offset="1" stop-color="#00F0FF"/>
</linearGradient>
<linearGradient id="paint12_linear_170_1226" x1="322.899" y1="483.094" x2="345.136" y2="165.087" gradientUnits="userSpaceOnUse">
<stop stop-color="#FF1CF7"/>
<stop offset="1" stop-color="#00F0FF"/>
</linearGradient>
<linearGradient id="paint13_linear_170_1226" x1="317.202" y1="483.599" x2="344.934" y2="166.621" gradientUnits="userSpaceOnUse">
<stop stop-color="#FF1CF7"/>
<stop offset="1" stop-color="#00F0FF"/>
</linearGradient>
<linearGradient id="paint14_linear_170_1226" x1="311.519" y1="484.057" x2="344.717" y2="168.202" gradientUnits="userSpaceOnUse">
<stop stop-color="#FF1CF7"/>
<stop offset="1" stop-color="#00F0FF"/>
</linearGradient>
<linearGradient id="paint15_linear_170_1226" x1="305.851" y1="484.469" x2="344.483" y2="169.832" gradientUnits="userSpaceOnUse">
<stop stop-color="#FF1CF7"/>
<stop offset="1" stop-color="#00F0FF"/>
</linearGradient>
<linearGradient id="paint16_linear_170_1226" x1="300.198" y1="484.836" x2="344.233" y2="171.51" gradientUnits="userSpaceOnUse">
<stop stop-color="#FF1CF7"/>
<stop offset="1" stop-color="#00F0FF"/>
</linearGradient>
<linearGradient id="paint17_linear_170_1226" x1="294.562" y1="485.157" x2="343.966" y2="173.235" gradientUnits="userSpaceOnUse">
<stop stop-color="#FF1CF7"/>
<stop offset="1" stop-color="#00F0FF"/>
</linearGradient>
<linearGradient id="paint18_linear_170_1226" x1="288.944" y1="485.433" x2="343.68" y2="175.006" gradientUnits="userSpaceOnUse">
<stop stop-color="#FF1CF7"/>
<stop offset="1" stop-color="#00F0FF"/>
</linearGradient>
<linearGradient id="paint19_linear_170_1226" x1="283.343" y1="485.663" x2="343.376" y2="176.822" gradientUnits="userSpaceOnUse">
<stop stop-color="#FF1CF7"/>
<stop offset="1" stop-color="#00F0FF"/>
</linearGradient>
<linearGradient id="paint20_linear_170_1226" x1="277.762" y1="485.851" x2="343.051" y2="178.687" gradientUnits="userSpaceOnUse">
<stop stop-color="#FF1CF7"/>
<stop offset="1" stop-color="#00F0FF"/>
</linearGradient>
<linearGradient id="paint21_linear_170_1226" x1="272.199" y1="485.993" x2="342.706" y2="180.595" gradientUnits="userSpaceOnUse">
<stop stop-color="#FF1CF7"/>
<stop offset="1" stop-color="#00F0FF"/>
</linearGradient>
<linearGradient id="paint22_linear_170_1226" x1="266.657" y1="486.093" x2="342.339" y2="182.549" gradientUnits="userSpaceOnUse">
<stop stop-color="#FF1CF7"/>
<stop offset="1" stop-color="#00F0FF"/>
</linearGradient>
<linearGradient id="paint23_linear_170_1226" x1="261.137" y1="486.15" x2="341.951" y2="184.547" gradientUnits="userSpaceOnUse">
<stop stop-color="#FF1CF7"/>
<stop offset="1" stop-color="#00F0FF"/>
</linearGradient>
<linearGradient id="paint24_linear_170_1226" x1="255.637" y1="486.163" x2="341.539" y2="186.589" gradientUnits="userSpaceOnUse">
<stop stop-color="#FF1CF7"/>
<stop offset="1" stop-color="#00F0FF"/>
</linearGradient>
<linearGradient id="paint25_linear_170_1226" x1="250.161" y1="486.135" x2="341.104" y2="188.674" gradientUnits="userSpaceOnUse">
<stop stop-color="#FF1CF7"/>
<stop offset="1" stop-color="#00F0FF"/>
</linearGradient>
<linearGradient id="paint26_linear_170_1226" x1="244.707" y1="486.066" x2="340.644" y2="190.803" gradientUnits="userSpaceOnUse">
<stop stop-color="#FF1CF7"/>
<stop offset="1" stop-color="#00F0FF"/>
</linearGradient>
<linearGradient id="paint27_linear_170_1226" x1="239.278" y1="485.955" x2="340.159" y2="192.974" gradientUnits="userSpaceOnUse">
<stop stop-color="#FF1CF7"/>
<stop offset="1" stop-color="#00F0FF"/>
</linearGradient>
<linearGradient id="paint28_linear_170_1226" x1="233.873" y1="485.805" x2="339.649" y2="195.187" gradientUnits="userSpaceOnUse">
<stop stop-color="#FF1CF7"/>
<stop offset="1" stop-color="#00F0FF"/>
</linearGradient>
<linearGradient id="paint29_linear_170_1226" x1="228.493" y1="485.613" x2="339.112" y2="197.441" gradientUnits="userSpaceOnUse">
<stop stop-color="#FF1CF7"/>
<stop offset="1" stop-color="#00F0FF"/>
</linearGradient>
<linearGradient id="paint30_linear_170_1226" x1="223.139" y1="485.383" x2="338.547" y2="199.737" gradientUnits="userSpaceOnUse">
<stop stop-color="#FF1CF7"/>
<stop offset="1" stop-color="#00F0FF"/>
</linearGradient>
<linearGradient id="paint31_linear_170_1226" x1="217.812" y1="485.112" x2="337.955" y2="202.072" gradientUnits="userSpaceOnUse">
<stop stop-color="#FF1CF7"/>
<stop offset="1" stop-color="#00F0FF"/>
</linearGradient>
<linearGradient id="paint32_linear_170_1226" x1="212.512" y1="484.804" x2="337.335" y2="204.447" gradientUnits="userSpaceOnUse">
<stop stop-color="#FF1CF7"/>
<stop offset="1" stop-color="#00F0FF"/>
</linearGradient>
<linearGradient id="paint33_linear_170_1226" x1="207.239" y1="484.458" x2="336.685" y2="206.861" gradientUnits="userSpaceOnUse">
<stop stop-color="#FF1CF7"/>
<stop offset="1" stop-color="#00F0FF"/>
</linearGradient>
<linearGradient id="paint34_linear_170_1226" x1="201.995" y1="484.076" x2="336.005" y2="209.314" gradientUnits="userSpaceOnUse">
<stop stop-color="#FF1CF7"/>
<stop offset="1" stop-color="#00F0FF"/>
</linearGradient>
<linearGradient id="paint35_linear_170_1226" x1="196.78" y1="483.655" x2="335.295" y2="211.805" gradientUnits="userSpaceOnUse">
<stop stop-color="#FF1CF7"/>
<stop offset="1" stop-color="#00F0FF"/>
</linearGradient>
<linearGradient id="paint36_linear_170_1226" x1="191.595" y1="483.2" x2="334.554" y2="214.333" gradientUnits="userSpaceOnUse">
<stop stop-color="#FF1CF7"/>
<stop offset="1" stop-color="#00F0FF"/>
</linearGradient>
<linearGradient id="paint37_linear_170_1226" x1="186.44" y1="482.708" x2="333.782" y2="216.897" gradientUnits="userSpaceOnUse">
<stop stop-color="#FF1CF7"/>
<stop offset="1" stop-color="#00F0FF"/>
</linearGradient>
<linearGradient id="paint38_linear_170_1226" x1="181.316" y1="482.182" x2="332.976" y2="219.498" gradientUnits="userSpaceOnUse">
<stop stop-color="#FF1CF7"/>
<stop offset="1" stop-color="#00F0FF"/>
</linearGradient>
<linearGradient id="paint39_linear_170_1226" x1="176.223" y1="481.62" x2="332.139" y2="222.133" gradientUnits="userSpaceOnUse">
<stop stop-color="#FF1CF7"/>
<stop offset="1" stop-color="#00F0FF"/>
</linearGradient>
<linearGradient id="paint40_linear_170_1226" x1="171.162" y1="481.026" x2="331.267" y2="224.804" gradientUnits="userSpaceOnUse">
<stop stop-color="#FF1CF7"/>
<stop offset="1" stop-color="#00F0FF"/>
</linearGradient>
<linearGradient id="paint41_linear_170_1226" x1="166.134" y1="480.399" x2="330.362" y2="227.509" gradientUnits="userSpaceOnUse">
<stop stop-color="#FF1CF7"/>
<stop offset="1" stop-color="#00F0FF"/>
</linearGradient>
<linearGradient id="paint42_linear_170_1226" x1="161.138" y1="479.739" x2="329.423" y2="230.247" gradientUnits="userSpaceOnUse">
<stop stop-color="#FF1CF7"/>
<stop offset="1" stop-color="#00F0FF"/>
</linearGradient>
<linearGradient id="paint43_linear_170_1226" x1="156.176" y1="479.048" x2="328.448" y2="233.018" gradientUnits="userSpaceOnUse">
<stop stop-color="#FF1CF7"/>
<stop offset="1" stop-color="#00F0FF"/>
</linearGradient>
<linearGradient id="paint44_linear_170_1226" x1="151.248" y1="478.326" x2="327.438" y2="235.821" gradientUnits="userSpaceOnUse">
<stop stop-color="#FF1CF7"/>
<stop offset="1" stop-color="#00F0FF"/>
</linearGradient>
<linearGradient id="paint45_linear_170_1226" x1="146.355" y1="477.573" x2="326.392" y2="238.656" gradientUnits="userSpaceOnUse">
<stop stop-color="#FF1CF7"/>
<stop offset="1" stop-color="#00F0FF"/>
</linearGradient>
<linearGradient id="paint46_linear_170_1226" x1="141.496" y1="476.79" x2="325.31" y2="241.52" gradientUnits="userSpaceOnUse">
<stop stop-color="#FF1CF7"/>
<stop offset="1" stop-color="#00F0FF"/>
</linearGradient>
<linearGradient id="paint47_linear_170_1226" x1="136.673" y1="475.979" x2="324.19" y2="244.414" gradientUnits="userSpaceOnUse">
<stop stop-color="#FF1CF7"/>
<stop offset="1" stop-color="#00F0FF"/>
</linearGradient>
<linearGradient id="paint48_linear_170_1226" x1="131.885" y1="475.138" x2="323.033" y2="247.337" gradientUnits="userSpaceOnUse">
<stop stop-color="#FF1CF7"/>
<stop offset="1" stop-color="#00F0FF"/>
</linearGradient>
<linearGradient id="paint49_linear_170_1226" x1="127.134" y1="474.272" x2="321.838" y2="250.29" gradientUnits="userSpaceOnUse">
<stop stop-color="#FF1CF7"/>
<stop offset="1" stop-color="#00F0FF"/>
</linearGradient>
<linearGradient id="paint50_linear_170_1226" x1="122.42" y1="473.377" x2="320.605" y2="253.27" gradientUnits="userSpaceOnUse">
<stop stop-color="#FF1CF7"/>
<stop offset="1" stop-color="#00F0FF"/>
</linearGradient>
<linearGradient id="paint51_linear_170_1226" x1="117.742" y1="472.456" x2="319.333" y2="256.276" gradientUnits="userSpaceOnUse">
<stop stop-color="#FF1CF7"/>
<stop offset="1" stop-color="#00F0FF"/>
</linearGradient>
<linearGradient id="paint52_linear_170_1226" x1="113.102" y1="471.511" x2="318.023" y2="259.309" gradientUnits="userSpaceOnUse">
<stop stop-color="#FF1CF7"/>
<stop offset="1" stop-color="#00F0FF"/>
</linearGradient>
<linearGradient id="paint53_linear_170_1226" x1="108.5" y1="470.54" x2="316.672" y2="262.368" gradientUnits="userSpaceOnUse">
<stop stop-color="#FF1CF7"/>
<stop offset="1" stop-color="#00F0FF"/>
</linearGradient>
<linearGradient id="paint54_linear_170_1226" x1="103.936" y1="469.545" x2="315.282" y2="265.45" gradientUnits="userSpaceOnUse">
<stop stop-color="#FF1CF7"/>
<stop offset="1" stop-color="#00F0FF"/>
</linearGradient>
<linearGradient id="paint55_linear_170_1226" x1="99.4111" y1="468.527" x2="313.851" y2="268.558" gradientUnits="userSpaceOnUse">
<stop stop-color="#FF1CF7"/>
<stop offset="1" stop-color="#00F0FF"/>
</linearGradient>
<linearGradient id="paint56_linear_170_1226" x1="94.9247" y1="467.485" x2="312.38" y2="271.688" gradientUnits="userSpaceOnUse">
<stop stop-color="#FF1CF7"/>
<stop offset="1" stop-color="#00F0FF"/>
</linearGradient>
<linearGradient id="paint57_linear_170_1226" x1="90.4776" y1="466.423" x2="310.868" y2="274.841" gradientUnits="userSpaceOnUse">
<stop stop-color="#FF1CF7"/>
<stop offset="1" stop-color="#00F0FF"/>
</linearGradient>
<linearGradient id="paint58_linear_170_1226" x1="86.0699" y1="465.339" x2="309.315" y2="278.014" gradientUnits="userSpaceOnUse">
<stop stop-color="#FF1CF7"/>
<stop offset="1" stop-color="#00F0FF"/>
</linearGradient>
<linearGradient id="paint59_linear_170_1226" x1="81.7022" y1="464.236" x2="307.72" y2="281.21" gradientUnits="userSpaceOnUse">
<stop stop-color="#FF1CF7"/>
<stop offset="1" stop-color="#00F0FF"/>
</linearGradient>
<linearGradient id="paint60_linear_170_1226" x1="77.3746" y1="463.112" x2="306.084" y2="284.424" gradientUnits="userSpaceOnUse">
<stop stop-color="#FF1CF7"/>
<stop offset="1" stop-color="#00F0FF"/>
</linearGradient>
<linearGradient id="paint61_linear_170_1226" x1="73.0873" y1="461.97" x2="304.405" y2="287.659" gradientUnits="userSpaceOnUse">
<stop stop-color="#FF1CF7"/>
<stop offset="1" stop-color="#00F0FF"/>
</linearGradient>
<linearGradient id="paint62_linear_170_1226" x1="68.8406" y1="460.81" x2="302.684" y2="290.912" gradientUnits="userSpaceOnUse">
<stop stop-color="#FF1CF7"/>
<stop offset="1" stop-color="#00F0FF"/>
</linearGradient>
<linearGradient id="paint63_linear_170_1226" x1="64.6348" y1="459.632" x2="300.921" y2="294.183" gradientUnits="userSpaceOnUse">
<stop stop-color="#FF1CF7"/>
<stop offset="1" stop-color="#00F0FF"/>
</linearGradient>
<linearGradient id="paint64_linear_170_1226" x1="60.4701" y1="458.438" x2="299.115" y2="297.47" gradientUnits="userSpaceOnUse">
<stop stop-color="#FF1CF7"/>
<stop offset="1" stop-color="#00F0FF"/>
</linearGradient>
<linearGradient id="paint65_linear_170_1226" x1="56.3468" y1="457.227" x2="297.266" y2="300.773" gradientUnits="userSpaceOnUse">
<stop stop-color="#FF1CF7"/>
<stop offset="1" stop-color="#00F0FF"/>
</linearGradient>
<linearGradient id="paint66_linear_170_1226" x1="52.2647" y1="456.003" x2="295.373" y2="304.092" gradientUnits="userSpaceOnUse">
<stop stop-color="#FF1CF7"/>
<stop offset="1" stop-color="#00F0FF"/>
</linearGradient>
<linearGradient id="paint67_linear_170_1226" x1="48.2245" y1="454.763" x2="293.437" y2="307.425" gradientUnits="userSpaceOnUse">
<stop stop-color="#FF1CF7"/>
<stop offset="1" stop-color="#00F0FF"/>
</linearGradient>
<linearGradient id="paint68_linear_170_1226" x1="44.2262" y1="453.51" x2="291.458" y2="310.771" gradientUnits="userSpaceOnUse">
<stop stop-color="#FF1CF7"/>
<stop offset="1" stop-color="#00F0FF"/>
</linearGradient>
<linearGradient id="paint69_linear_170_1226" x1="40.2697" y1="452.245" x2="289.435" y2="314.131" gradientUnits="userSpaceOnUse">
<stop stop-color="#FF1CF7"/>
<stop offset="1" stop-color="#00F0FF"/>
</linearGradient>
<linearGradient id="paint70_linear_170_1226" x1="36.3555" y1="450.968" x2="287.368" y2="317.502" gradientUnits="userSpaceOnUse">
<stop stop-color="#FF1CF7"/>
<stop offset="1" stop-color="#00F0FF"/>
</linearGradient>
<linearGradient id="paint71_linear_170_1226" x1="32.4834" y1="449.68" x2="285.257" y2="320.885" gradientUnits="userSpaceOnUse">
<stop stop-color="#FF1CF7"/>
<stop offset="1" stop-color="#00F0FF"/>
</linearGradient>
<linearGradient id="paint72_linear_170_1226" x1="28.6539" y1="448.381" x2="283.102" y2="324.278" gradientUnits="userSpaceOnUse">
<stop stop-color="#FF1CF7"/>
<stop offset="1" stop-color="#00F0FF"/>
</linearGradient>
<linearGradient id="paint73_linear_170_1226" x1="24.8665" y1="447.073" x2="280.903" y2="327.682" gradientUnits="userSpaceOnUse">
<stop stop-color="#FF1CF7"/>
<stop offset="1" stop-color="#00F0FF"/>
</linearGradient>
<linearGradient id="paint74_linear_170_1226" x1="21.1218" y1="445.756" x2="278.659" y2="331.093" gradientUnits="userSpaceOnUse">
<stop stop-color="#FF1CF7"/>
<stop offset="1" stop-color="#00F0FF"/>
</linearGradient>
<linearGradient id="paint75_linear_170_1226" x1="17.4198" y1="444.431" x2="276.372" y2="334.512" gradientUnits="userSpaceOnUse">
<stop stop-color="#FF1CF7"/>
<stop offset="1" stop-color="#00F0FF"/>
</linearGradient>
<linearGradient id="paint76_linear_170_1226" x1="13.7603" y1="443.099" x2="274.04" y2="337.94" gradientUnits="userSpaceOnUse">
<stop stop-color="#FF1CF7"/>
<stop offset="1" stop-color="#00F0FF"/>
</linearGradient>
<linearGradient id="paint77_linear_170_1226" x1="10.1436" y1="441.761" x2="271.663" y2="341.373" gradientUnits="userSpaceOnUse">
<stop stop-color="#FF1CF7"/>
<stop offset="1" stop-color="#00F0FF"/>
</linearGradient>
<linearGradient id="paint78_linear_170_1226" x1="6.56945" y1="440.416" x2="269.243" y2="344.811" gradientUnits="userSpaceOnUse">
<stop stop-color="#FF1CF7"/>
<stop offset="1" stop-color="#00F0FF"/>
</linearGradient>
<linearGradient id="paint79_linear_170_1226" x1="3.03826" y1="439.068" x2="266.778" y2="348.255" gradientUnits="userSpaceOnUse">
<stop stop-color="#FF1CF7"/>
<stop offset="1" stop-color="#00F0FF"/>
</linearGradient>
<linearGradient id="paint80_linear_170_1226" x1="-0.45061" y1="437.714" x2="264.268" y2="351.702" gradientUnits="userSpaceOnUse">
<stop stop-color="#FF1CF7"/>
<stop offset="1" stop-color="#00F0FF"/>
</linearGradient>
<linearGradient id="paint81_linear_170_1226" x1="-3.89654" y1="436.358" x2="261.714" y2="355.153" gradientUnits="userSpaceOnUse">
<stop stop-color="#FF1CF7"/>
<stop offset="1" stop-color="#00F0FF"/>
</linearGradient>
<linearGradient id="paint82_linear_170_1226" x1="-7.29966" y1="434.998" x2="259.116" y2="358.605" gradientUnits="userSpaceOnUse">
<stop stop-color="#FF1CF7"/>
<stop offset="1" stop-color="#00F0FF"/>
</linearGradient>
<linearGradient id="paint83_linear_170_1226" x1="-10.6605" y1="433.638" x2="256.473" y2="362.06" gradientUnits="userSpaceOnUse">
<stop stop-color="#FF1CF7"/>
<stop offset="1" stop-color="#00F0FF"/>
</linearGradient>
<linearGradient id="paint84_linear_170_1226" x1="-13.9786" y1="432.276" x2="253.787" y2="365.514" gradientUnits="userSpaceOnUse">
<stop stop-color="#FF1CF7"/>
<stop offset="1" stop-color="#00F0FF"/>
</linearGradient>
<linearGradient id="paint85_linear_170_1226" x1="-17.2543" y1="430.914" x2="251.056" y2="368.969" gradientUnits="userSpaceOnUse">
<stop stop-color="#FF1CF7"/>
<stop offset="1" stop-color="#00F0FF"/>
</linearGradient>
<linearGradient id="paint86_linear_170_1226" x1="-20.4874" y1="429.553" x2="248.281" y2="372.424" gradientUnits="userSpaceOnUse">
<stop stop-color="#FF1CF7"/>
<stop offset="1" stop-color="#00F0FF"/>
</linearGradient>
<linearGradient id="paint87_linear_170_1226" x1="-23.6784" y1="428.192" x2="245.462" y2="375.876" gradientUnits="userSpaceOnUse">
<stop stop-color="#FF1CF7"/>
<stop offset="1" stop-color="#00F0FF"/>
</linearGradient>
<linearGradient id="paint88_linear_170_1226" x1="-26.8274" y1="426.834" x2="242.6" y2="379.327" gradientUnits="userSpaceOnUse">
<stop stop-color="#FF1CF7"/>
<stop offset="1" stop-color="#00F0FF"/>
</linearGradient>
<linearGradient id="paint89_linear_170_1226" x1="-29.934" y1="425.479" x2="239.694" y2="382.775" gradientUnits="userSpaceOnUse">
<stop stop-color="#FF1CF7"/>
<stop offset="1" stop-color="#00F0FF"/>
</linearGradient>
<linearGradient id="paint90_linear_170_1226" x1="-32.9989" y1="424.127" x2="236.744" y2="386.217" gradientUnits="userSpaceOnUse">
<stop stop-color="#FF1CF7"/>
<stop offset="1" stop-color="#00F0FF"/>
</linearGradient>
<linearGradient id="paint91_linear_170_1226" x1="-36.0221" y1="422.779" x2="233.751" y2="389.655" gradientUnits="userSpaceOnUse">
<stop stop-color="#FF1CF7"/>
<stop offset="1" stop-color="#00F0FF"/>
</linearGradient>
<linearGradient id="paint92_linear_170_1226" x1="-39.0036" y1="421.437" x2="230.715" y2="393.088" gradientUnits="userSpaceOnUse">
<stop stop-color="#FF1CF7"/>
<stop offset="1" stop-color="#00F0FF"/>
</linearGradient>
<linearGradient id="paint93_linear_170_1226" x1="-41.944" y1="420.101" x2="227.636" y2="396.516" gradientUnits="userSpaceOnUse">
<stop stop-color="#FF1CF7"/>
<stop offset="1" stop-color="#00F0FF"/>
</linearGradient>
<linearGradient id="paint94_linear_170_1226" x1="-44.8428" y1="418.77" x2="224.514" y2="399.934" gradientUnits="userSpaceOnUse">
<stop stop-color="#FF1CF7"/>
<stop offset="1" stop-color="#00F0FF"/>
</linearGradient>
<linearGradient id="paint95_linear_170_1226" x1="-47.7011" y1="417.447" x2="221.35" y2="403.347" gradientUnits="userSpaceOnUse">
<stop stop-color="#FF1CF7"/>
<stop offset="1" stop-color="#00F0FF"/>
</linearGradient>
<linearGradient id="paint96_linear_170_1226" x1="-50.5182" y1="416.131" x2="218.144" y2="406.749" gradientUnits="userSpaceOnUse">
<stop stop-color="#FF1CF7"/>
<stop offset="1" stop-color="#00F0FF"/>
</linearGradient>
<linearGradient id="paint97_linear_170_1226" x1="-53.295" y1="414.825" x2="214.895" y2="410.143" gradientUnits="userSpaceOnUse">
<stop stop-color="#FF1CF7"/>
<stop offset="1" stop-color="#00F0FF"/>
</linearGradient>
<linearGradient id="paint98_linear_170_1226" x1="-56.0313" y1="413.527" x2="211.605" y2="413.527" gradientUnits="userSpaceOnUse">
<stop stop-color="#FF1CF7"/>
<stop offset="1" stop-color="#00F0FF"/>
</linearGradient>
</defs>
</svg>
