<svg width="162" height="48" viewBox="0 0 162 48" fill="none" xmlns="http://www.w3.org/2000/svg">
<g id="Indonesia">
<path id="Vector" d="M46.4585 0H0.285522V45.4346H46.4585V0Z" fill="white"/>
<path id="Vector_2" fill-rule="evenodd" clip-rule="evenodd" d="M18.8505 30.6629L23.7642 26.7544C22.9494 25.7439 22.1721 24.7015 21.4305 23.649C15.7258 15.5485 12.3645 7.29371 14.8003 0H0.284546V7.87621L18.8505 30.6629Z" fill="#E7470B"/>
<path id="Vector_3" fill-rule="evenodd" clip-rule="evenodd" d="M26.6181 18.8846C26.9235 16.3162 27.7104 11.4603 32.5085 7.86362C36.6637 4.748 41.8527 4.15135 46.4574 6.07256V0H20.8352C19.1423 7.39735 23.5911 15.5206 26.6181 18.8846Z" fill="#E7470B"/>
<path id="Vector_4" fill-rule="evenodd" clip-rule="evenodd" d="M32.8261 11.4776L32.8093 11.4915C27.9893 15.3419 29.176 21.3882 33.6558 26.815C37.1188 31.0108 41.7448 33.949 46.4575 31.7215V13.8459C42.225 9.58161 37.144 8.02656 32.8261 11.4776Z" fill="#E7470B"/>
<path id="Vector_5" fill-rule="evenodd" clip-rule="evenodd" d="M0.284546 17.1973V45.4336H0.287465L14.2591 34.3165L0.284546 17.1973Z" fill="#E7470B"/>
<path id="Vector_6" fill-rule="evenodd" clip-rule="evenodd" d="M25.6888 29.001C24.326 30.1116 22.6257 31.4769 20.7385 32.9789L22.5505 35.2028C25.1819 38.434 29.0151 44.0191 33.775 42.5082L33.9499 42.7208L30.5713 45.4336H46.4575V34.6824C38.2828 39.0567 31.261 35.0762 25.6888 29.001Z" fill="#E7470B"/>
<path id="Vector_7" fill-rule="evenodd" clip-rule="evenodd" d="M18.0215 38.9283L16.144 36.627C12.2962 39.669 8.23348 42.8619 4.94983 45.4342H22.7299C21.5738 43.0191 19.4741 40.7089 18.0215 38.9283Z" fill="#E7470B"/>
<path id="Vector_8" fill-rule="evenodd" clip-rule="evenodd" d="M84.929 18.9834C89.1795 18.2513 91.9427 14.6316 91.9427 10.0076C91.9427 3.86894 86.5417 0 77.281 0H58.9641V0.206397C62.7041 2.22771 62.6197 5.48498 62.6197 8.59043V36.7649C62.6197 39.9375 62.7041 43.229 58.9641 45.2137V45.42H67.7838C76.404 45.42 83.0023 45.5644 87.9438 43.2823C93.1822 40.8594 96.3655 36.5167 96.3655 31.201C96.3655 24.4368 91.2414 20.2954 84.929 18.9834ZM69.8052 4.18561L75.5973 4.28328C79.8963 4.28328 84.2959 6.35144 84.2959 11.116C84.2959 16.7758 80.4088 18.2944 74.8622 18.2944L69.8052 18.3043V18.2944V4.18561ZM75.3909 40.7467L69.8052 40.7556V22.8501V22.594L75.807 22.5712C82.8028 22.5712 88.5756 25.1284 88.5756 31.8229C88.5756 38.3833 82.5156 40.7467 75.3909 40.7467Z" fill="#005667"/>
<path id="Vector_9" fill-rule="evenodd" clip-rule="evenodd" d="M110.403 36.7737C110.403 40.6415 110.332 43.404 114.05 45.5418V45.7482H101.633V45.5418C105.354 43.404 105.289 40.6415 105.289 36.7737V9.17293C105.289 5.30775 105.354 2.27677 101.639 0.206176V0H111.947V0.0696091C112.227 0.898952 112.675 1.35241 113.001 1.79459C113.324 2.23523 113.98 3.17373 113.98 3.17373L137.62 34.5321V8.90577C137.62 5.04036 137.692 2.27677 133.971 0.206176V0H146.32V0.206176C142.671 2.27677 142.671 5.04036 142.671 8.90577V48C140.424 47.1196 134.13 41.9738 129.655 36.0504C121.63 25.4261 110.403 10.6688 110.403 10.6688V36.7737Z" fill="#005667"/>
<path id="Vector_10" fill-rule="evenodd" clip-rule="evenodd" d="M157.828 8.22956C157.828 5.05561 157.782 2.23014 154.194 0.206396V0H168.721V0.206396C165.125 2.17048 165.092 5.12411 165.092 8.22956V37.2689C165.092 40.3704 165.01 43.5026 168.721 45.5341V45.7391H154.194V45.5341C157.927 43.4812 157.828 40.3947 157.828 37.2906V8.22956Z" fill="#005667"/>
</g>
</svg>
