<svg width="206" height="48" viewBox="0 0 206 48" fill="none" xmlns="http://www.w3.org/2000/svg">
<g id="Indonesia">
<path id="Vector" fill-rule="evenodd" clip-rule="evenodd" d="M9.31029 24.0713C9.67609 24.7001 12.4949 27.6081 13.0149 28.1332L16.8989 32.0702C18.2546 33.7921 19.1726 34.5531 19.1368 37.6183C19.1117 39.7832 17.3221 41.6409 16.1315 42.3947C14.9444 43.1485 14.5858 43.1557 12.9576 43.1557C11.6521 43.1557 10.3467 43.1592 9.04131 43.1557C7.80403 43.1521 6.91463 42.5519 6.34082 41.9267C5.44424 40.9479 5.39403 40.6335 5.39403 38.9437C5.39403 38.1327 5.30796 8.71664 5.41555 7.81636C5.54107 6.76605 6.38385 5.93722 7.04374 5.52638C8.04073 4.90477 8.7293 4.74043 10.1531 4.74043C12.9504 4.73686 14.8404 4.42248 16.8953 5.80861C18.6419 6.97682 19.603 8.67734 19.5994 10.8959C19.5958 13.3716 18.2366 14.9114 17.1428 16.2404C15.4716 18.2695 9.74782 22.8281 9.31029 24.0713ZM23.2503 4.74043C24.1397 4.68684 27.4355 4.63683 28.1743 4.78687C30.5484 5.27274 33.1736 7.23047 33.1987 9.86341C33.2202 11.9283 32.9513 12.4392 31.965 13.7146C30.6955 15.3508 27.4176 18.5661 25.671 20.0308C24.9538 20.631 21.8982 23.5068 21.952 23.9963L33.6362 35.9285C34.9632 37.3075 40.3391 42.4233 40.6188 43.145L23.5946 43.1485C23.7452 42.7913 24.1146 42.3126 24.3477 41.9624C25.2443 40.6156 25.6997 39.3295 25.7213 37.6111C25.7607 33.9171 24.2078 32.1809 21.9664 29.8874L16.3825 23.9963C17.3831 22.7852 16.7375 23.4211 18.129 22.01C19.352 20.7667 21.1057 19.4235 22.0776 18.366C22.655 17.7372 23.3005 17.0585 23.8133 16.2654C24.9251 14.5363 25.5957 12.8608 25.3662 10.2314C25.0327 6.40522 23.4977 5.85148 23.2503 4.74043ZM36.0821 4.73329C41.0635 4.65112 44.1944 4.26171 44.1119 11.1888L43.9828 17.8873C43.9182 24.8644 44.015 32.038 43.9828 39.0616L29.0099 23.9248C29.1605 23.4854 30.4516 22.1886 30.7744 21.8742L32.8293 20.0201C33.2274 19.6342 33.4677 19.4842 33.8335 19.1055C34.9453 17.9552 35.3039 17.9051 36.7241 16.0975C38.2662 14.1254 38.5208 13.1608 38.528 10.0885C38.5351 6.76247 36.5232 5.92293 36.0821 4.73329ZM8.61454 0.0497208C5.46934 0.217629 2.61464 2.09677 1.4455 4.87619C0.660099 6.74818 0.534578 7.62702 0.534578 9.93844V27.9725C0.534578 31.9237 0.419816 36.0392 0.538165 39.9726C0.642168 43.4808 3.11314 45.9529 5.40121 47.1319C7.09753 48.0071 8.3886 48 10.5189 48H40.6654C44.1513 48.0036 46.6438 45.4099 47.7914 43.17C48.6737 41.448 48.6844 40.2226 48.6844 38.0577L48.688 8.03071C48.6844 6.20159 47.9349 4.67613 47.1136 3.59365C46.2923 2.51476 45.2559 1.61091 43.7783 0.878544C42.0282 0.0104232 40.816 0.0425758 38.6678 0.0425758H14.5822C12.6599 0.0354307 10.4974 -0.0538821 8.61454 0.0497208Z" fill="#2356A7"/>
<path id="Vector_2" fill-rule="evenodd" clip-rule="evenodd" d="M101.647 36.022L107.55 36.0363L107.504 20.0136C107.783 20.2601 111.477 27.6945 111.632 28.0053L115.745 36.0435L123.671 36.0399L123.699 12.0755C123.05 12.0183 118.331 11.9933 117.908 12.1005L117.782 27.8267C117.581 27.6231 113.45 19.2027 112.887 18.0023L109.914 12.0576L101.669 12.0505L101.647 36.022Z" fill="#2356A7"/>
<path id="Vector_3" fill-rule="evenodd" clip-rule="evenodd" d="M162.31 31.4813L162.299 25.7832C163.328 25.6295 165.821 25.8189 166.768 26.0797C168.037 26.4334 169.074 27.0693 168.998 28.6304C168.927 30.1381 168.059 30.8561 166.789 31.2134C165.85 31.4777 163.332 31.6099 162.31 31.4813ZM162.317 21.5319L162.299 16.6054C163.397 16.5446 165.426 16.5339 166.373 16.7554C167.542 17.0305 168.41 17.6878 168.385 19.0668C168.342 21.6069 164.046 21.7498 162.317 21.5319ZM155.88 36.022C156.762 36.1149 163.461 36.0363 164.942 36.0363C169.877 36.0398 176.16 34.8931 175.378 28.4768C175.156 26.6406 174.216 25.1651 172.721 24.3363C172.007 23.9397 171.616 24.0648 170.928 23.8504C170.892 23.3574 171.147 23.6789 172.237 23.0216C175.902 20.8138 175.515 15.2442 172.04 13.1686C169.762 11.8075 167.463 12.054 164.498 12.054C163.357 12.054 156.382 11.9754 155.883 12.0933L155.88 36.022Z" fill="#2356A7"/>
<path id="Vector_4" fill-rule="evenodd" clip-rule="evenodd" d="M62.2768 25.9432C62.9905 25.8003 65.942 25.9111 66.6593 26.0647C67.9611 26.3433 68.8254 27.0257 68.829 28.4868C68.8326 29.9016 68.6174 30.4803 67.1434 31.0162C65.8774 31.4735 63.74 31.5914 62.2804 31.4663V26.572L62.2768 25.9432ZM62.2947 16.619C63.0837 16.4832 65.5332 16.6047 66.3114 16.7797C67.624 17.0762 68.2265 17.5764 68.2121 19.0661C68.2014 20.4487 67.3191 20.9274 66.1464 21.2704C65.3682 21.4954 63.0873 21.6955 62.2768 21.5169L62.2947 16.619ZM55.8394 36.0391C61.226 35.8355 72.4978 37.3252 74.7823 32.2165C75.2987 31.0626 75.3597 29.5193 75.2449 28.1153C75.0728 25.9575 73.1003 24.1498 70.9772 23.9069C70.5468 23.8569 70.6759 23.9462 70.5719 23.7032C70.7046 23.4889 70.5253 23.6247 70.9306 23.5175C71.0848 23.4782 71.1565 23.4675 71.3286 23.4103C71.6263 23.3103 71.8307 23.1995 72.0746 23.0495C73.2473 22.3385 74.6065 20.8131 74.6245 19.2126C74.6532 16.6475 74.6711 14.7684 72.0065 13.2322C69.6574 11.8782 67.5379 12.0533 64.529 12.0533C61.6599 12.0533 58.7084 12.1212 55.8465 12.0461L55.8394 36.0391Z" fill="#2356A7"/>
<path id="Vector_5" fill-rule="evenodd" clip-rule="evenodd" d="M183.247 16.6048C185.797 16.5727 190.366 16.3548 189.408 20.1059C188.884 22.1637 185.535 22.0529 183.25 22.0065L183.243 17.1514L183.247 16.6048ZM176.809 36.025L183.232 36.0322L183.24 26.5829C184.473 26.3614 186.026 26.615 186.769 27.2116C188.199 28.3584 188.77 30.952 189.451 32.8491C189.634 33.3635 189.803 33.8708 189.96 34.4067C190.086 34.8282 190.29 35.7428 190.452 36.0429H196.968C197.04 35.2105 194.246 28.0083 193.622 26.4257C192.872 24.5322 192.083 24.8716 191.596 24.05C193.575 23.8177 195.695 21.6421 195.885 19.5879C196.19 16.3369 195.487 14.472 193.349 13.2967C191.051 12.032 188.644 12.0642 185.703 12.0642C182.77 12.0642 179.732 11.9856 176.816 12.0677L176.809 36.025Z" fill="#2356A7"/>
<path id="Vector_6" fill-rule="evenodd" clip-rule="evenodd" d="M125.873 35.997L132.303 36.0292L132.307 25.208C133.139 25.6046 138.748 34.9003 139.817 35.8541C140.129 36.1328 140.745 36.0363 141.301 36.0363C142.381 36.0363 147.269 36.0935 147.904 36.022C147.868 35.3254 144.16 30.6597 143.614 29.9416C142.09 27.9303 140.494 26.0583 139.013 24.0005C138.411 23.161 138.472 23.2467 139.114 22.4072L144.97 15.0657C145.397 14.5477 147.057 12.5256 147.276 12.0791L139.687 12.1148C139.34 12.1719 137.873 14.3012 137.611 14.6548C136.75 15.823 135.857 16.9913 134.975 18.138C134.624 18.5953 132.529 21.464 132.307 21.5712V12.0648L125.877 12.0576L125.873 35.997Z" fill="#2356A7"/>
<path id="Vector_7" fill-rule="evenodd" clip-rule="evenodd" d="M87.6571 17.0728C87.9046 17.2443 89.5328 23.2032 89.7551 23.9677C89.938 24.5894 90.3576 25.779 90.4114 26.3577L84.5012 26.3613L86.0254 21.7028C86.2943 20.9168 86.5167 20.1809 86.7892 19.3806C86.9291 18.9734 87.0546 18.5697 87.173 18.216C87.3021 17.8337 87.3953 17.2335 87.6571 17.0728ZM74.6281 36.0214C76.1917 36.0928 78.6017 36.0393 80.2657 36.0357C81.0476 36.0357 81.026 35.8356 81.3416 35.2247C82.0732 33.8243 82.4606 32.481 82.9232 30.927C83.8269 30.8162 89.6726 30.8877 91.0498 30.8877C91.6774 30.8877 91.8424 30.8162 92.1257 31.3164C92.4771 31.9309 92.972 33.9029 93.241 34.6888C93.7718 36.2322 93.987 36.0214 94.8907 36.0178L100.797 36L91.663 12.0641L83.87 12.0605C82.7367 13.8968 82.2382 15.9582 81.4241 17.9481C79.9179 21.6242 78.3471 26.222 76.8408 30.0089C76.3961 31.1306 74.6747 35.0068 74.6281 36.0214Z" fill="#2356A7"/>
<path id="Vector_8" fill-rule="evenodd" clip-rule="evenodd" d="M205.285 36.0363V12.0576H198.861L198.858 36.0328L205.285 36.0363Z" fill="#2356A7"/>
</g>
</svg>
