<svg width="134" height="20" viewBox="0 0 134 20" fill="none" xmlns="http://www.w3.org/2000/svg">
<g id="Indonesia">
<path id="Vector" d="M21.2881 0H0.314087V20H21.2881V0Z" fill="#7B141F"/>
<path id="Vector_2" fill-rule="evenodd" clip-rule="evenodd" d="M2.95799 3.48926H14.1951L19.8128 9.96705L14.1951 17.0522H2.95799L7.9895 9.96705L2.95799 3.48926Z" fill="#E2071F"/>
<path id="Vector_3" fill-rule="evenodd" clip-rule="evenodd" d="M19.8128 9.96705L14.1951 3.48926H2.95799L7.9895 9.96705" fill="white"/>
<path id="Vector_4" d="M35.4952 7.19553C34.9163 6.49194 34.0793 6.09002 33.0002 6.09002C30.8005 6.09002 29.1786 7.9202 29.1786 10.4298C29.1786 12.9432 30.8005 14.7722 32.9066 14.7722C34.0791 14.7722 35.0271 14.2371 35.626 13.3245L38.0462 15.1684C36.949 16.7697 35.0866 17.5124 33.2781 17.5124C29.1607 17.5124 26.1602 14.7537 26.1602 10.43C26.1602 6.10993 29.1607 3.34961 33.2781 3.34961C34.7516 3.34961 36.614 3.86504 37.7323 5.33051L35.4952 7.19553Z" fill="#7B141F"/>
<path id="Vector_5" d="M42.5006 3.69336H39.5967V17.1675H42.5006V3.69336Z" fill="#7B141F"/>
<path id="Vector_6" d="M45.144 3.69238H49.5431L52.5794 12.4852H52.6188L55.675 3.69238H60.0506V17.1674H57.1467V6.83424H57.1109L53.6424 17.1674H51.4269L48.091 6.83424H48.0499V17.1674H45.144V3.69238Z" fill="#7B141F"/>
<path id="Vector_7" d="M62.7376 3.69238H67.656C69.9684 3.69238 72.4797 4.18861 72.4797 7.11932C72.4797 8.62081 71.569 9.64811 70.2102 10.0863V10.1287C71.94 10.3538 73.0982 11.6691 73.0982 13.4203C73.0982 16.2344 70.4865 17.1693 68.1363 17.1693H62.7376V3.69238ZM65.6415 9.07984H67.7492C68.642 9.07984 69.5776 8.69854 69.5776 7.6165C69.5776 6.49251 68.5325 6.20767 67.6168 6.20767H65.6415V9.07984ZM65.6415 14.6571H68.253C69.1637 14.6571 70.1907 14.2573 70.1907 13.0779C70.1907 11.8044 68.7922 11.5913 67.8442 11.5913H65.6413V14.6571H65.6415Z" fill="#7B141F"/>
<path id="Vector_8" d="M76.7957 3.90918H78.7138L86.1277 14.8943H86.1653V3.90918H87.6838V17.1378H85.7672L78.3538 6.15028H78.3197V17.1378H76.7957V3.90918Z" fill="#7B141F"/>
<path id="Vector_9" d="M92.391 3.90918H90.8675V17.1378H92.391V3.90918Z" fill="#7B141F"/>
<path id="Vector_10" d="M99.7346 3.91016H101.163L106.609 17.1378H104.834L103.533 13.8869H97.1304L95.8074 17.1378H94.0884L99.7346 3.91016ZM100.421 5.92684H100.386L97.727 12.4279H102.952L100.421 5.92684Z" fill="#7B141F"/>
<path id="Vector_11" d="M119.199 16.2401C117.733 17.0826 116.071 17.471 114.404 17.471C110.427 17.471 107.566 14.6701 107.566 10.5204C107.566 6.35552 110.622 3.57031 114.458 3.57031C116.14 3.57031 117.771 4.04048 118.982 5.31163L117.844 6.54368C116.975 5.57254 115.652 5.0301 114.347 5.0301C111.42 5.0301 109.192 7.30935 109.192 10.5204C109.192 13.6796 111.348 16.0162 114.498 16.0162C115.526 16.0162 116.736 15.7365 117.679 15.2498V11.1932H114.729V9.7379H119.199V16.2401Z" fill="#7B141F"/>
<path id="Vector_12" d="M126.545 3.91016H127.974L133.418 17.1378H131.645L130.34 13.8869H123.937L122.614 17.1378H120.899L126.545 3.91016ZM127.228 5.92684H127.194L124.535 12.4279H129.762L127.228 5.92684Z" fill="#7B141F"/>
</g>
</svg>
