<svg width="96" height="96" viewBox="0 0 96 96" fill="none" xmlns="http://www.w3.org/2000/svg">
<g id="cs_whatsapp 1" clip-path="url(#clip0_170_1968)">
<path id="Vector" d="M48.0007 0H48C21.4903 0 0 21.4903 0 48C0 74.5097 21.4903 96 48 96H48.0007C74.5104 96 96.0007 74.5097 96.0007 48C96.0007 21.4903 74.5104 0 48.0007 0Z" fill="#25D366" fill-opacity="0.3"/>
<g id="Group" filter="url(#filter0_ddd_170_1968)">
<path id="Vector_2" d="M19.2 76.8002L23.2701 62.0133C20.7675 57.6868 19.4337 52.7716 19.4475 47.747C19.4475 32.0018 32.3179 19.2002 48.131 19.2002C55.8038 19.2002 63.0088 22.1713 68.4129 27.5656C73.8304 32.9601 76.8144 40.1344 76.8007 47.7607C76.8007 63.5059 63.9302 76.3072 48.1171 76.3072H48.1034C43.3046 76.3072 38.5881 75.1024 34.3941 72.8296L19.2 76.8002ZM35.1093 67.6543L35.9755 68.1746C39.6331 70.3377 43.8271 71.4741 48.1034 71.4878H48.1171C61.2489 71.4878 71.9467 60.8496 71.9467 47.7607C71.9467 41.4216 69.4716 35.4657 64.9752 30.9748C60.4788 26.484 54.4836 24.0196 48.1171 24.0196C34.9718 24.0196 24.2738 34.6579 24.2738 47.747C24.2738 52.224 25.5252 56.5915 27.9177 60.3705L28.4815 61.2741L26.0889 70.0092L35.1093 67.6543Z" fill="white"/>
<path id="Vector_3" d="M20.1902 75.7994L24.1228 61.5191C21.7027 57.3431 20.4239 52.5923 20.4239 47.7455C20.4239 32.548 32.8543 20.1846 48.1036 20.1846C55.5151 20.1846 62.459 23.0598 67.6843 28.2626C72.9095 33.4653 75.7833 40.3931 75.7833 47.7592C75.7833 62.9567 63.353 75.3201 48.1036 75.3201H48.0899C43.456 75.3201 38.9047 74.1563 34.8619 71.9656L20.1902 75.7994Z" fill="url(#paint0_linear_170_1968)"/>
<path id="Vector_4" d="M19.2 76.8002L23.2701 62.0133C20.7675 57.6868 19.4337 52.7716 19.4475 47.747C19.4475 32.0018 32.3179 19.2002 48.131 19.2002C55.8038 19.2002 63.0088 22.1713 68.4129 27.5656C73.8304 32.9601 76.8144 40.1344 76.8007 47.7607C76.8007 63.5059 63.9302 76.3072 48.1171 76.3072H48.1034C43.3046 76.3072 38.5881 75.1024 34.3941 72.8296L19.2 76.8002ZM35.1093 67.6543L35.9755 68.1746C39.6331 70.3377 43.8271 71.4741 48.1034 71.4878H48.1171C61.2489 71.4878 71.9467 60.8496 71.9467 47.7607C71.9467 41.4216 69.4716 35.4657 64.9752 30.9748C60.4788 26.484 54.4836 24.0196 48.1171 24.0196C34.9718 24.0196 24.2738 34.6579 24.2738 47.747C24.2738 52.224 25.5252 56.5915 27.9177 60.3705L28.4815 61.2741L26.0889 70.0092L35.1093 67.6543Z" fill="url(#paint1_linear_170_1968)"/>
<path id="Vector_5" fill-rule="evenodd" clip-rule="evenodd" d="M40.9531 35.793C40.4169 34.6016 39.8531 34.5742 39.3443 34.5606C38.9318 34.5469 38.4506 34.5469 37.9694 34.5469C37.4879 34.5469 36.718 34.725 36.058 35.4368C35.398 36.1489 33.5553 37.874 33.5553 41.3926C33.5553 44.8976 36.1267 48.2931 36.4843 48.7724C36.8419 49.2517 41.4482 56.6862 48.7221 59.5477C54.7723 61.9299 56.0099 61.4506 57.3163 61.3275C58.6363 61.2042 61.5513 59.6024 62.1563 57.932C62.7477 56.2616 62.7477 54.8377 62.5689 54.5365C62.3901 54.2353 61.9089 54.0572 61.1939 53.7013C60.4787 53.3454 56.9587 51.6202 56.2987 51.3738C55.6387 51.141 55.1575 51.0178 54.6899 51.7297C54.2085 52.4418 52.8335 54.0435 52.421 54.5228C52.0084 55.0021 51.5822 55.0568 50.8672 54.7009C50.1523 54.3447 47.842 53.5918 45.1058 51.1546C42.9746 49.2654 41.5307 46.9242 41.1182 46.2121C40.7056 45.5002 41.0769 45.1167 41.4345 44.7608C41.7506 44.4459 42.1495 43.9256 42.5071 43.515C42.8644 43.1041 42.9883 42.8029 43.222 42.3236C43.4558 41.8446 43.3456 41.4337 43.1671 41.0778C42.9746 40.7355 41.5857 37.2032 40.9531 35.793Z" fill="white"/>
</g>
</g>
<defs>
<filter id="filter0_ddd_170_1968" x="12" y="14.4002" width="72.0008" height="71.9996" filterUnits="userSpaceOnUse" color-interpolation-filters="sRGB">
<feFlood flood-opacity="0" result="BackgroundImageFix"/>
<feColorMatrix in="SourceAlpha" type="matrix" values="0 0 0 0 0 0 0 0 0 0 0 0 0 0 0 0 0 0 127 0" result="hardAlpha"/>
<feOffset dy="2.4"/>
<feGaussianBlur stdDeviation="3.6"/>
<feColorMatrix type="matrix" values="0 0 0 0 0 0 0 0 0 0 0 0 0 0 0 0 0 0 0.1 0"/>
<feBlend mode="normal" in2="BackgroundImageFix" result="effect1_dropShadow_170_1968"/>
<feColorMatrix in="SourceAlpha" type="matrix" values="0 0 0 0 0 0 0 0 0 0 0 0 0 0 0 0 0 0 127 0" result="hardAlpha"/>
<feOffset dy="4.8"/>
<feGaussianBlur stdDeviation="2.4"/>
<feColorMatrix type="matrix" values="0 0 0 0 0 0 0 0 0 0 0 0 0 0 0 0 0 0 0.06 0"/>
<feBlend mode="normal" in2="effect1_dropShadow_170_1968" result="effect2_dropShadow_170_1968"/>
<feColorMatrix in="SourceAlpha" type="matrix" values="0 0 0 0 0 0 0 0 0 0 0 0 0 0 0 0 0 0 127 0" result="hardAlpha"/>
<feOffset/>
<feGaussianBlur stdDeviation="2.4"/>
<feColorMatrix type="matrix" values="0 0 0 0 0 0 0 0 0 0 0 0 0 0 0 0 0 0 0.07 0"/>
<feBlend mode="normal" in2="effect2_dropShadow_170_1968" result="effect3_dropShadow_170_1968"/>
<feBlend mode="normal" in="SourceGraphic" in2="effect3_dropShadow_170_1968" result="shape"/>
</filter>
<linearGradient id="paint0_linear_170_1968" x1="47.9959" y1="75.7982" x2="47.9959" y2="20.1844" gradientUnits="userSpaceOnUse">
<stop stop-color="#20B038"/>
<stop offset="1" stop-color="#60D66A"/>
</linearGradient>
<linearGradient id="paint1_linear_170_1968" x1="47.9959" y1="76.7964" x2="47.9959" y2="19.1882" gradientUnits="userSpaceOnUse">
<stop stop-color="#F9F9F9"/>
<stop offset="1" stop-color="white"/>
</linearGradient>
<clipPath id="clip0_170_1968">
<rect width="96" height="96" fill="white"/>
</clipPath>
</defs>
</svg>
