<svg width="81" height="20" viewBox="0 0 81 20" fill="none" xmlns="http://www.w3.org/2000/svg">
<g id="Indonesia">
<path id="Vector" d="M2.30414 12.7842H3.17418C3.67078 12.7842 4.07198 12.8236 4.51439 13.33C4.82746 13.6801 5.17138 14.4539 5.17138 15.7055C5.17138 16.1549 5.17468 16.5996 5.08898 17.0569C4.95106 17.7778 4.61551 18.9337 2.69609 18.9337C2.18252 18.9337 2.30392 18.9206 2.30392 18.9206V12.7849L2.30414 12.7842ZM3.29117 20.0002C5.87442 20.0002 7.03088 18.8572 7.03088 15.7356C7.03088 14.9103 6.78632 13.527 6.01102 12.6833C5.20927 11.8171 4.17245 11.709 3.29668 11.709H0.417542V20.0002H3.29117Z" fill="#046148"/>
<path id="Vector_2" d="M11.4443 17.8523C11.4443 18.1269 11.4364 18.4954 11.1427 18.7593C10.8964 18.9745 10.5494 18.9907 10.4172 18.9907C10.0896 18.9907 9.79456 18.8725 9.6703 18.4707C9.63923 18.344 9.62667 18.2165 9.62667 18.0943C9.62667 17.4888 10.0318 17.2338 10.4822 17.125C10.7181 17.0709 10.8772 17.0606 11.4443 17.0136V17.8523ZM11.4443 16.2663L10.5031 16.3582C9.48897 16.4736 9.10077 16.5653 8.66674 16.8513C7.96613 17.3236 7.95709 18.0144 7.95709 18.2411C7.95709 18.8076 8.13048 19.2338 8.36667 19.4794C8.67798 19.8392 9.17127 19.9707 9.6476 19.9707C10.8155 19.9707 11.3725 19.4446 11.3725 19.4446L11.3804 19.8189H12.955V15.8966C12.955 15.4551 12.9656 14.8343 12.4549 14.3952C12.1877 14.1682 11.9537 14.0635 11.5921 14.0126C11.2328 13.9486 11.1079 13.9229 10.7576 13.9229C9.69541 13.9229 8.89411 14.1083 8.43761 14.914C8.24175 15.2631 8.25166 15.6133 8.25166 15.8809H9.69519C9.70841 15.6474 9.71899 15.3241 9.90318 15.0995C9.99637 14.9719 10.2145 14.7897 10.6186 14.7897C10.7503 14.7897 11.1328 14.7897 11.3278 15.1058C11.4364 15.2924 11.4454 15.5349 11.4454 15.8101V16.2667L11.4443 16.2663Z" fill="#046148"/>
<path id="Vector_3" d="M23.9805 17.8523C23.9805 18.1269 23.9726 18.4954 23.6765 18.7593C23.4365 18.9745 23.0882 18.9907 22.9477 18.9907C22.6222 18.9907 22.3319 18.8725 22.2058 18.4707C22.1741 18.344 22.1653 18.2165 22.1653 18.0943C22.1653 17.4888 22.568 17.2338 23.0208 17.125C23.2568 17.0709 23.4141 17.0606 23.9807 17.0136L23.9805 17.8523ZM23.9805 16.2663L23.0431 16.3582C22.0225 16.4736 21.6401 16.5653 21.2034 16.8513C20.5067 17.3236 20.4959 18.0144 20.4959 18.2411C20.4959 18.8076 20.6643 19.2338 20.8982 19.4794C21.2142 19.8392 21.7101 19.9707 22.1842 19.9707C23.355 19.9707 23.9109 19.4446 23.9109 19.4446L23.9188 19.8189H25.4879V15.8966C25.4879 15.4551 25.5012 14.8343 24.9935 14.3952C24.7263 14.1682 24.4879 14.0635 24.1308 14.0126C23.7697 13.9486 23.6465 13.9229 23.294 13.9229C22.2323 13.9229 21.4327 14.1083 20.9734 14.914C20.7802 15.2631 20.7925 15.6133 20.7925 15.8809H22.2321C22.2453 15.6474 22.2561 15.3241 22.4405 15.0995C22.5326 14.9719 22.7507 14.7897 23.1552 14.7897C23.287 14.7897 23.6688 14.7897 23.8688 15.1058C23.9721 15.2924 23.9812 15.5349 23.9812 15.8101V16.2667L23.9805 16.2663Z" fill="#046148"/>
<path id="Vector_4" d="M47.7034 19.819H46.0603V16.3085C46.0603 16.0839 46.0603 15.8967 46.0418 15.7056C46.0259 15.5218 45.9728 14.9257 45.2563 14.9257C45.0664 14.9257 44.9056 14.9722 44.8027 15.0155C44.3184 15.2357 44.3061 15.6256 44.2942 15.9354V19.819H42.6477V14.0743H44.2942V14.7275C44.7077 14.3605 45.0818 13.959 46.0056 13.959C46.7814 13.959 47.1656 14.257 47.3245 14.4413C47.69 14.8486 47.69 15.377 47.7041 15.7888V19.8192L47.7034 19.819Z" fill="#046148"/>
<path id="Vector_5" d="M19.2873 19.819H17.6455V16.3085C17.6455 16.0839 17.6455 15.8967 17.6184 15.7056C17.6078 15.5218 17.5516 14.9257 16.8312 14.9257C16.6474 14.9257 16.4866 14.9722 16.3837 15.0155C15.8983 15.2357 15.8842 15.6256 15.8708 15.9354V19.819H14.2254V14.0743H15.8708V14.7275C16.2923 14.3605 16.6617 13.959 17.5844 13.959C18.3648 13.959 18.7422 14.257 18.9055 14.4413C19.2745 14.8486 19.2745 15.377 19.2875 15.7888L19.2873 19.819Z" fill="#046148"/>
<path id="Vector_6" d="M26.6953 14.0716H28.34V14.7401C28.6557 14.4605 29.2129 13.9541 30.2006 13.9541C31.3306 13.9541 31.6448 14.623 31.7217 14.8439C32.3947 14.1983 32.8369 13.9541 33.4818 13.9541C33.7975 13.9541 34.0141 14.0052 34.2232 14.0806C35.1091 14.4179 35.1282 15.1989 35.1448 15.7053V19.8152H33.4712V16.0719C33.4633 15.6651 33.4501 15.4348 33.3434 15.2544C33.3223 15.2078 33.1586 14.9217 32.7428 14.9217C32.6021 14.9217 32.3337 14.9553 32.2077 15.0241C31.7472 15.2421 31.7298 15.6214 31.7217 15.929V19.8154H30.0911V16.0959C30.0911 15.6539 30.0964 14.9217 29.3537 14.9217C29.1858 14.9217 28.8936 14.9686 28.7495 15.0477C28.34 15.2981 28.3287 15.6651 28.34 16.1761V19.8156H26.6953V14.0716Z" fill="#046148"/>
<path id="Vector_7" d="M40.0019 16.8223C40.0019 17.1484 39.9885 17.4615 39.9543 17.7776C39.9197 18.0946 39.8638 18.7322 39.3711 19.0001C39.2293 19.0674 39.0801 19.1025 38.927 19.1025C37.9941 19.1025 37.91 18.1321 37.8908 17.7776C37.8697 17.513 37.8529 17.2544 37.8529 16.9972C37.8529 16.7674 37.8688 16.4482 37.9025 16.0716C37.936 15.7675 38.0043 15.1853 38.4788 14.9103C38.641 14.8288 38.797 14.7954 38.9783 14.7954C39.8638 14.7954 39.944 15.7164 39.9649 16.0716C39.9889 16.3233 40.0017 16.5765 40.0017 16.8223H40.0019ZM41.679 16.8513C41.679 16.3414 41.679 15.3874 41.1073 14.7397C40.4174 13.9229 39.4297 13.9229 39.0799 13.9229C38.6743 13.9229 37.7414 13.9386 37.0091 14.5975C36.1809 15.3297 36.1809 16.4989 36.1809 17.0905C36.1809 18.2132 36.4363 19.4003 37.8686 19.8149C38.2856 19.941 38.507 19.9633 38.9268 19.9633C39.3194 19.9633 40.3016 19.9633 41.031 19.1593C41.679 18.448 41.679 17.3813 41.679 16.8513Z" fill="#046148"/>
<path id="Vector_8" d="M13.1421 5.85703H28.3614L14.863 1.75195L13.1421 2.66861L7.30078 4.16331L13.1421 5.85703Z" fill="#EF9826"/>
<path id="Vector_9" d="M0.417542 0V5.85691H13.1441V2.66849L0.417542 0Z" fill="#EB712D"/>
<path id="Vector_10" d="M28.3677 5.85669L13.1423 0L13.1445 2.66827L28.3677 5.85669Z" fill="#FEC02B"/>
<path id="Vector_11" d="M80.8342 16.867V5.85352H60.3354L56.0747 8.89928L60.3354 12.5692L80.8342 16.867Z" fill="#EF9826"/>
<path id="Vector_12" d="M60.3352 12.5691L54.7631 7.80562L28.3695 5.86133L60.3352 16.8737V12.5691Z" fill="#FEC02B"/>
<path id="Vector_13" d="M28.3627 5.85352V5.85876L60.3352 12.5677V5.85483H28.3627V5.85352Z" fill="#EB712D"/>
</g>
</svg>
