<svg width="166" height="48" viewBox="0 0 166 48" fill="none" xmlns="http://www.w3.org/2000/svg">
<g id="Indonesia">
<path id="Vector" fill-rule="evenodd" clip-rule="evenodd" d="M47.8292 25.7437C48.4954 18.448 45.2999 11.8586 41.8639 8.01609C38.472 4.22304 33.3993 0.701141 25.9339 0.0742313C22.2878 -0.231806 18.6828 0.433564 15.6883 1.60744C12.4538 2.87527 9.03023 5.16148 6.83388 7.69C5.39708 9.34409 4.20296 10.8504 3.17588 12.941C0.128331 19.1433 -0.406744 26.0025 2.06625 32.5499C3.2634 35.7193 4.50308 37.5119 6.5415 39.9899C8.15666 41.953 10.8944 44.0346 13.204 45.2527C15.9136 46.6817 18.8366 47.6295 22.4695 47.9292C26.1148 48.2298 29.8081 47.5466 32.7718 46.3782C35.9041 45.1433 38.0134 43.6085 40.112 41.786C40.5891 41.3717 41.1974 40.7434 41.6088 40.2731C45.3154 36.0405 47.2806 31.7494 47.8292 25.7437Z" fill="#2086C9"/>
<path id="Vector_2" fill-rule="evenodd" clip-rule="evenodd" d="M10.53 16.9737C11.5408 16.9289 13.6187 20.1678 20.5843 17.9673C22.176 17.4646 23.676 16.838 25.2031 16.2707C28.6159 15.0028 31.8231 13.7196 35.4278 15.1136C36.0943 15.3712 37.0167 15.8479 37.4844 16.2413C38.2241 16.8635 38.0457 17.6333 38.0457 18.8154V28.2836C38.0457 28.8446 38.1642 30.9094 37.8908 31.2547C37.5998 31.28 36.459 30.5811 35.769 30.3022C33.1748 29.2539 30.3327 29.6256 27.8017 30.338C23.0968 31.6626 17.8948 34.6782 12.8594 32.8393C9.9822 31.7885 10.3674 31.3113 10.3674 29.1495V19.8547C10.3671 19.1107 10.2268 17.4899 10.53 16.9737Z" fill="white"/>
<path id="Vector_3" fill-rule="evenodd" clip-rule="evenodd" d="M150.49 25.7725C150.39 24.8599 150.463 23.3074 150.475 22.3374C150.487 21.3132 150.792 20.3882 151.214 19.6781C153.207 16.3293 158.07 16.3545 160.01 19.7072C160.463 20.491 160.731 21.2984 160.741 22.3953C160.748 23.2574 160.834 25.0107 160.719 25.7865L150.49 25.7725ZM150.487 31.0056L160.739 31.0125L160.744 36.2019L165.891 36.1879C165.967 33.3399 165.897 30.3927 165.897 27.5334C165.897 24.9898 166.124 21.6503 165.453 19.3732C164.288 15.4183 160.606 11.9428 155.57 11.9522C150.57 11.9615 146.856 15.4928 145.744 19.4322C145.099 21.7187 145.316 25.011 145.316 27.5911C145.316 30.4455 145.276 33.3278 145.319 36.2019L150.474 36.1915L150.487 31.0056Z" fill="#2086C9"/>
<path id="Vector_4" fill-rule="evenodd" clip-rule="evenodd" d="M91.4911 25.7703C91.4008 24.8607 91.455 23.2901 91.4801 22.3354C91.5519 19.6075 93.622 17.1718 96.626 17.1743C99.6211 17.177 101.714 19.624 101.759 22.3931C101.776 23.4297 101.822 24.75 101.753 25.7859L91.4911 25.7703ZM91.4875 31.0053L101.761 31.0306L101.77 36.203L106.898 36.1978C106.991 33.3682 106.903 30.3809 106.903 27.5337C106.903 24.9782 107.133 21.6506 106.461 19.3616C105.32 15.4727 101.653 11.9527 96.6262 11.9521C91.598 11.9516 87.9372 15.4287 86.7663 19.3984C86.1081 21.6294 86.3364 25.0629 86.3364 27.5914C86.3364 29.0347 86.3364 30.4779 86.3364 31.9212C86.3364 33.2858 86.2646 34.8544 86.3488 36.2025L91.4773 36.1964L91.4875 31.0053Z" fill="#2086C9"/>
<path id="Vector_5" fill-rule="evenodd" clip-rule="evenodd" d="M62.0212 17.1751C63.1642 17.1315 65.1772 17.1001 66.2648 17.2276C72.4253 17.9501 74.5065 26.1148 69.3283 29.7537C67.2708 31.1996 64.5988 31.1117 61.9993 30.9669L62.0212 17.1751ZM56.8673 36.1992C59.5926 36.2338 62.3378 36.2017 65.0654 36.2025C67.7709 36.2033 69.6251 35.611 71.5481 34.5044C79.0599 30.1823 79.662 18.5095 71.539 13.6439C69.746 12.5698 67.6306 11.9522 65.0654 11.9525C62.3428 11.9527 59.5932 11.9143 56.8582 11.9525L56.8673 36.1992Z" fill="#2086C9"/>
<path id="Vector_6" fill-rule="evenodd" clip-rule="evenodd" d="M120.991 36.199C120.994 32.1749 120.996 28.1511 120.996 24.1273C120.996 21.8526 120.938 20.6669 122.094 19.1617C122.856 18.1689 124.263 17.1612 126.156 17.1747C128.109 17.1887 129.423 18.1958 130.213 19.2244C131.348 20.7048 131.26 21.9963 131.26 24.1847L131.264 36.2026L136.415 36.1825C136.474 33.3221 136.418 30.4002 136.418 27.533C136.418 25.0014 136.645 21.6405 135.977 19.3738C134.811 15.4198 131.141 11.9457 126.098 11.9512C121.081 11.9567 117.412 15.4756 116.267 19.4224C115.613 21.6787 115.838 25.0575 115.838 27.5907L115.843 36.2007L120.991 36.199Z" fill="#2086C9"/>
</g>
</svg>
