<svg width="207" height="48" viewBox="0 0 207 48" fill="none" xmlns="http://www.w3.org/2000/svg">
<path fill-rule="evenodd" clip-rule="evenodd" d="M24.6637 48C37.7355 48 48.3936 37.2174 48.3936 24C48.3936 10.7826 37.7355 0 24.6637 0C11.5918 0 0.933716 10.7826 0.933716 24C0.933716 37.2206 11.595 48 24.6637 48Z" fill="#00ADD9"/>
<path fill-rule="evenodd" clip-rule="evenodd" d="M10.9866 29.3878C11.286 33.3202 13.7157 36.3444 18.1993 36.5569C22.5109 36.763 26.8194 36.8307 31.1278 36.5569C35.086 36.3089 38.0411 33.3202 38.3404 29.3878C38.4965 27.3717 38.5601 25.3556 38.541 23.3428C37.5443 17.9031 33.0321 17.7099 32.6085 17.7035H32.5958H32.5831H32.5799H17.4127C16.8809 17.7035 16.4447 17.2622 16.4447 16.7244C16.4447 16.1833 16.8777 15.7453 17.4127 15.7453H32.6277C32.4875 12.0996 28.5039 11.4168 26.606 11.3009L25.622 11.2783H25.6188C23.1414 11.2429 20.6703 11.3009 18.1993 11.4973C13.6265 11.8581 11.286 14.7341 10.9866 18.6664C10.7128 22.2413 10.7128 25.813 10.9866 29.3878ZM33.8154 27.3202V28.6246C33.8154 29.1109 33.4206 29.5102 32.9397 29.5102C32.4589 29.5102 32.064 29.1109 32.064 28.6246V27.317C31.6787 27.0561 31.4271 26.6246 31.4271 26.1415C31.4271 25.3428 32.1054 24.6986 32.9397 24.6986C33.774 24.6986 34.4523 25.346 34.4523 26.1415C34.4523 26.6278 34.2007 27.0561 33.8154 27.3202Z" fill="white"/>
<path fill-rule="evenodd" clip-rule="evenodd" d="M168.107 21.8263L168.094 26.1613C168.094 26.1613 166.629 29.0727 161.569 29.7877C156.509 30.4995 156.506 27.3143 156.872 26.493C157.239 25.6685 158.43 24.5349 162.617 23.8424C167.085 23.1017 168.107 21.8263 168.107 21.8263ZM174.068 17.6524C174.068 10.9471 167.693 7.82312 161.987 8.37707C156.675 8.89559 152.214 11.4012 150.841 17.0083L156.341 18.3771C158.079 13.3529 164.591 11.8811 167.349 15.4721C168.088 16.4479 167.779 17.4656 166.693 18.0325C165.075 18.8763 161.987 18.6315 158.837 19.5043C145.52 23.1983 149.711 35.5139 160.745 35.1983C164.276 35.0985 166.82 33.4656 168.546 31.8328L168.604 34.5767H174.065V17.6524H174.068ZM69.8435 14.5961C65.8407 14.5961 62.5895 17.894 62.5895 21.9681C62.5895 26.0389 65.8375 29.34 69.8435 29.34C73.8526 29.34 77.1007 26.0421 77.1007 21.9681C77.1007 17.894 73.8526 14.5961 69.8435 14.5961ZM84.0585 9.16934V30.2257V34.0647C84.0585 42.7732 78.0655 48.0003 70.4485 48.0003C65.2739 48.0003 61.4877 46.77 57.8129 42.7056L62.3283 38.5993C64.5096 41.1983 67.1336 41.8263 70.353 41.8263C74.222 41.8263 77.0975 38.6766 77.0975 34.8151V32.2611C74.8589 34.2354 71.9579 35.427 68.7894 35.427C61.7042 35.427 55.9596 29.4689 55.9596 22.1194C55.9596 14.77 61.7042 8.81185 68.7894 8.81185C71.9579 8.81185 74.8589 10.0035 77.0975 11.9777V9.16934H84.0585ZM206.8 8.75388L199.342 8.741L191.971 25.0888L183.468 8.73778H175.988L188.27 32.0325L181.781 45.5526H189.261L206.8 8.75388ZM133.951 14.5961C137.954 14.5961 141.202 17.894 141.202 21.9681C141.202 26.0389 137.954 29.34 133.951 29.34C129.942 29.34 126.694 26.0421 126.694 21.9681C126.694 17.894 129.942 14.5961 133.951 14.5961ZM119.736 9.16934H126.697V11.9842C128.936 10.0099 131.837 8.81829 135.005 8.81829C142.091 8.81829 147.835 14.7764 147.835 22.1259C147.835 29.4753 142.087 35.4334 135.005 35.4334C131.837 35.4334 128.936 34.2418 126.697 32.2676V45.5558H119.736V9.16934ZM101.178 14.3932C105.54 14.3932 109.078 17.8553 109.078 22.1259C109.078 26.3996 105.543 29.8618 101.178 29.8618C96.8151 29.8618 93.2805 26.3996 93.2805 22.1259C93.2773 17.8553 96.8119 14.3932 101.178 14.3932ZM101.178 8.32876C93.3951 8.32876 87.0837 14.5091 87.0837 22.1291C87.0837 29.7523 93.3919 35.9294 101.178 35.9294C108.964 35.9294 115.272 29.7523 115.272 22.1291C115.269 14.5059 108.96 8.32876 101.178 8.32876Z" fill="white"/>
</svg>
