<svg width="89" height="20" viewBox="0 0 89 20" fill="none" xmlns="http://www.w3.org/2000/svg">
<g id="Indonesia">
<path id="Vector" d="M15.6501 17.7736C18.0451 16.3851 19.5424 14.0104 19.5424 11.4289C19.5424 5.67372 13.751 3.61502 13.751 3.61502C12.6857 3.00709 11.3718 2.68117 9.9178 2.68117C9.81032 2.68117 9.6169 2.68441 9.50858 2.68441C10.9866 1.60856 12.9074 0.945431 14.85 0.945431C19.3765 0.945431 22.8022 5.11137 22.8022 9.01124C22.8021 13.5468 19.4906 17.0683 15.6501 17.7736ZM12.7382 17.7567C9.79443 17.1977 7.37667 15.037 6.33808 12.4768C7.37006 13.4585 8.83813 14.1297 10.7132 14.1297C13.7052 14.1297 16.5504 11.9036 16.5504 8.6091C16.5504 6.98741 15.9586 5.92779 15.9586 5.92779C17.2098 7.15721 18.0002 8.88194 18.0002 10.9833C18.0001 13.9373 15.7192 16.6933 12.7382 17.7567ZM10.1062 18.225C6.59228 18.225 2.88075 14.9291 2.88075 10.8279C2.88075 8.82336 3.52855 6.82382 5.17162 5.47907C4.87901 6.06922 4.67898 6.77498 4.59809 7.624C4.55898 7.93058 4.53647 8.24747 4.53647 8.58002C4.53647 13.0096 7.04243 16.6825 10.9655 18.1694C10.6822 18.2058 10.3947 18.225 10.1062 18.225ZM10.4456 3.88251C12.9998 3.88251 14.9756 6.31863 14.9756 8.49025C14.9756 11.4289 13.1249 13.3958 10.5389 13.3958C8.22043 13.3958 6.14887 11.3148 6.14887 8.35446C6.14873 5.91057 8.02447 3.88251 10.4456 3.88251ZM14.0869 0C11.701 0 8.31117 0.995963 6.3122 3.42151C3.14676 4.76414 0.834229 7.75513 0.834229 11.0298C0.834229 16.107 5.29513 19.1401 10.6712 19.1401C11.5557 19.1401 12.4013 18.9501 13.1873 18.7531C13.7658 18.843 14.367 18.8907 14.9896 18.8907C20.0642 18.8907 24.5325 14.9044 24.5325 9.69285C24.5327 4.32163 20.1244 0 14.0869 0Z" fill="#00AAE7"/>
<path id="Vector_2" d="M32.9118 14.8871C32.9118 16.5208 31.8414 17.4429 29.559 17.5121V20C32.1491 20 35.4321 18.6381 35.4321 14.8871V2.69629H32.9118V14.8871Z" fill="#00AAE7"/>
<path id="Vector_3" d="M40.1464 7.71342C40.3139 6.19831 40.9792 4.86076 42.6424 4.86076C44.3081 4.86076 44.9725 6.19845 45.1419 7.71342H40.1464ZM47.7792 7.94547C47.7792 6.01227 46.6839 2.46387 42.6422 2.46387C38.8142 2.46387 37.5085 5.57583 37.5085 8.79704C37.5085 12.0221 38.8407 15.1322 43.2374 15.1322C44.4279 15.1322 45.9458 14.8568 47.6834 13.6573L46.4003 11.7244C45.3074 12.3934 44.2577 12.7374 43.2374 12.7374C41.2874 12.7374 40.3837 11.448 40.1705 10.1121H45.4716C47.0408 10.1123 47.7792 9.51479 47.7792 7.94547Z" fill="#00AAE7"/>
<path id="Vector_4" d="M54.6295 2.46387C51.4892 2.46387 49.8794 4.97622 49.8794 4.97622V14.9954H52.3962V5.78191C52.3962 5.78191 53.1806 4.86047 54.6295 4.86047C56.2235 4.86047 57.1013 6.1266 57.1013 7.25525V14.9953H59.6249V7.25525C59.6249 4.92851 57.9341 2.46387 54.6295 2.46387Z" fill="#00AAE7"/>
<path id="Vector_5" d="M64.9369 2.60254H62.4185V14.9955H64.9369V2.60254Z" fill="#00AAE7"/>
<path id="Vector_6" d="M83.997 7.48532H84.0195C83.16 7.2544 82.0488 6.84534 82.0488 5.99124C82.0488 5.36904 82.7131 4.86047 83.973 4.86047C85.2332 4.86047 86.6588 5.41365 87.2058 5.66546L88.0162 3.47634C87.1807 3.06178 85.4917 2.46387 83.973 2.46387C81.7869 2.46387 79.5028 3.54509 79.5028 5.99138C79.5028 8.24514 81.5483 9.37633 83.5685 9.85906C84.6648 10.0876 86.0403 10.528 86.0403 11.4035C86.0403 12.3254 84.9274 12.74 83.8303 12.74C82.7616 12.74 81.2876 12.0695 80.1707 11.4926L79.1953 13.7746C80.2639 14.3063 81.8356 15.0848 83.8304 15.1321C86.1337 15.1321 88.5614 14.0741 88.5614 11.4034C88.5613 8.81864 85.8985 7.94449 83.997 7.48532Z" fill="#00AAE7"/>
<path id="Vector_7" d="M75.0293 10.3412C75.0293 11.4663 74.1532 12.727 72.5693 12.7368C70.9927 12.727 70.1131 11.4663 70.1131 10.3412V2.60254H67.5948V10.3412C67.5948 12.6628 69.2745 15.1163 72.5584 15.1323H72.5875C75.8713 15.1162 77.5478 12.6628 77.5478 10.3412V2.60254H75.0293V10.3412Z" fill="#00AAE7"/>
</g>
</svg>
