<svg width="53" height="48" viewBox="0 0 53 48" fill="none" xmlns="http://www.w3.org/2000/svg">
<g id="Indonesia">
<path id="path826 1" d="M2.54163 47.0624C1.55145 46.5467 0.771311 46.0947 0.807875 46.0581C0.934431 45.9316 5.67254 44.9205 8.98114 44.3141C16.1408 43.0017 24.6531 41.9512 33.1321 41.3338C36.624 41.0796 49.2565 41.071 51.4473 41.3214L52.8838 41.4857L51.2647 41.5108C48.3904 41.5554 41.7985 42.0167 36.6336 42.5345C26.8576 43.5149 15.9892 45.3223 8.12668 47.275C6.52104 47.6739 5.01263 48 4.77464 48C4.53656 48.0002 3.53181 47.5782 2.54163 47.0624ZM16.2094 37.2224C16.0625 36.8165 16.6771 36.6351 16.9451 36.5196C18.1488 36.0036 18.9958 35.1625 19.2792 34.2019C19.4147 33.7421 19.8278 31.1439 20.1972 28.428C20.5664 25.7121 20.8982 23.6115 20.9345 23.4881C20.9613 23.397 21.0338 23.0728 21.4236 23.0379C22.4181 23.0283 23.1564 23.0411 24.1756 23.0411C24.7384 22.987 24.6279 23.603 24.5836 23.9977C24.5393 24.4961 24.4052 25.4585 24.249 26.6325C24.0584 28.0644 23.7735 30.2046 23.6161 31.3885C23.2621 34.0492 23.0658 34.8684 22.4535 36.239C21.7251 37.8697 20.6116 38.8173 18.5929 39.4915C18.1851 39.6194 17.016 40.0169 16.8888 39.6635C16.625 38.8175 16.4377 38.0823 16.2094 37.2224ZM39.3911 36.3303C38.0458 35.7874 38.1093 33.69 39.5204 32.8296C40.4134 32.2851 41.6682 32.3776 42.313 33.0224C43.9016 34.6111 41.5653 37.2077 39.3911 36.3303ZM29.2232 35.0774C25.2683 34.402 25.2945 29.6863 26.1806 26.9916C27.2902 23.8723 29.9938 22.9662 32.216 22.8871C34.0914 22.823 36.6911 23.1717 37.3438 23.5751C37.5242 23.6864 37.4392 24.7677 36.9358 28.7762C36.5863 31.5594 36.204 33.9527 36.0862 34.0946C35.46 34.8491 31.2644 35.4499 29.2232 35.0774ZM32.6734 31.3454C33.098 29.7659 33.2772 28.3398 33.5808 26.6734C33.543 26.099 32.5735 26.0951 32.3269 26.0938C31.0429 26.0938 30.2845 26.8146 29.8824 28.4171C29.331 30.615 29.9068 31.8397 31.4915 31.8397C31.9925 31.7931 32.5154 31.8211 32.6734 31.3454ZM3.76778 33.8048C4.84896 31.1638 9.19118 21.7071 10.2334 19.7487C10.4304 19.2604 10.9492 19.1642 11.3043 19.1299C12.3257 19.0832 13.2086 19.0956 14.1053 19.1022C15.0294 19.1103 15.043 19.4345 15.162 20.1216C15.3074 20.8059 17.1102 31.5707 17.5183 34.1547C17.5705 34.5839 17.6757 34.7174 17.1171 34.7182C16.3431 34.7203 14.4802 34.821 13.8483 34.7734C13.6462 34.7472 13.5145 34.6147 13.4832 34.4656C13.4254 34.1885 13.3602 33.7127 13.3158 33.2167L13.2008 31.9295H10.8807H8.56051L8.05328 33.1673C7.87284 33.6075 7.67563 34.0418 7.52863 34.33C7.42572 34.5942 7.27241 34.7161 7.04285 34.766C6.47495 34.7612 4.46196 34.836 3.70519 34.7693C3.33093 34.5971 3.66936 34.0455 3.76778 33.8048ZM12.7917 28.3451C12.7259 27.6498 12.282 24.0629 12.1778 23.5329C12.1504 23.476 12.1373 23.4945 12.1093 23.528C11.8351 23.9396 10.3521 27.58 10.0995 28.4255C10.069 28.5422 10.1448 28.5849 10.2551 28.5753C10.6312 28.5498 12.1691 28.5209 12.6368 28.503C12.7699 28.4928 12.7832 28.4461 12.7917 28.3451ZM39.5694 30.089C39.6295 29.6199 39.7609 28.3472 39.8616 27.2608C39.9623 26.1746 40.1235 24.4777 40.2198 23.4901C40.2929 22.7407 40.3572 22.0131 40.385 21.6303C40.4412 21.2871 40.8562 21.2468 41.1288 21.2441C42.0376 21.2537 42.8934 21.1998 43.7107 21.2753C44.0972 21.3148 44.2587 21.4 44.26 21.6299C43.8915 23.5207 42.5671 30.044 42.4652 30.4481C42.3772 30.7964 42.3415 30.8991 41.8099 30.9293C41.1586 30.9188 40.6154 30.9529 39.9545 30.9495C39.5754 30.9446 39.4741 30.8333 39.5694 30.089ZM21.2303 20.3975C21.2303 19.245 21.972 18.3666 22.9005 17.9971C23.703 17.7159 24.6023 17.7171 25.0811 18.264C25.9308 19.2518 25.373 20.7113 24.3806 21.4716C23.1088 22.3464 21.2511 21.8293 21.2303 20.3975ZM44.0143 17.9686C43.7365 17.3514 42.8455 15.4042 42.0343 13.6414C41.2229 11.8786 40.602 10.3246 40.6544 10.188C40.7067 10.0514 41.6111 8.92818 42.6638 7.69204L44.3773 5.67969C44.4895 5.54434 44.6181 5.37838 44.7734 5.37627C45.8063 5.38149 46.8764 5.44317 47.8617 5.43337C48.5957 5.42723 48.9652 5.37966 48.4207 5.93226C48.072 6.36389 47.3849 7.15411 46.5991 8.02103C45.4634 9.27394 44.5342 10.3326 44.5342 10.3736C44.5342 10.4147 45.3858 12.2858 46.4266 14.5317C47.2445 16.2962 47.92 17.8747 48.1477 18.5338C48.2449 18.7576 48.1595 18.9493 47.9516 19.0015C47.6761 19.0656 47.1804 19.0909 46.3277 19.0909H45.0505C44.7386 19.1235 44.509 19.0688 44.3889 18.8018L44.0143 17.9686ZM5.79222 16.6547C4.64286 16.0819 4.09962 15.3572 4.00064 14.2646C3.94126 13.6098 5.01245 4.80782 5.48678 2.00902C5.60271 1.35186 5.65284 1.3142 6.28305 1.3142H7.52277C8.17406 1.3142 8.76689 1.30329 9.13968 1.32446C9.64929 1.33179 9.5561 1.6529 9.51715 2.03724C9.42945 2.89555 9.15663 4.75486 8.81408 7.14879C8.20613 11.3964 8.05145 12.8952 8.19697 13.1262C8.36706 13.396 8.79923 13.4406 11.6627 13.4836L14.224 13.5219C14.8341 13.4879 14.9602 13.6376 14.9 14.1854C14.7507 15.0921 14.6687 15.8146 14.5201 16.6269C14.418 17.134 14.0908 17.0013 13.5811 17.0323L10.5869 17.074C6.74721 17.1222 6.72687 17.1205 5.79222 16.6547ZM35.3272 16.981C35.2884 16.9069 35.3956 15.8767 35.5654 14.6916C35.735 13.5065 36.0895 10.9612 36.353 9.0354C37.101 3.5682 37.3467 1.92086 37.4509 1.29083C37.5609 0.555504 37.5615 0.596009 38.282 0.596009H39.4248C39.8707 0.596009 40.2188 0.590235 40.4875 0.598941C41.5136 0.632299 41.3831 0.543682 41.1241 2.13301C41.0262 2.73372 40.7003 5.37691 40.3999 7.59893C39.6433 13.1946 39.1471 16.6257 39.056 16.8912C38.9707 17.14 35.4549 17.2247 35.3272 16.981ZM15.8044 16.5553C16.2811 12.5564 16.7362 9.53264 17.2656 5.81138C17.3052 5.36601 17.743 5.31432 18.2546 5.31386C18.8366 5.31322 19.4281 5.30553 19.9823 5.32395C21.0556 5.32761 21.3377 5.47121 21.2266 6.1894C20.751 9.68284 20.1633 12.8006 19.5462 16.3526C19.4309 16.9539 19.29 16.9361 18.7152 16.9361C18.0462 16.9383 16.8588 16.9609 16.2523 16.944C15.8974 16.8813 15.8168 16.841 15.8044 16.5553ZM23.3803 7.60314C23.6747 6.0568 23.8787 5.81551 24.3065 5.53518C24.8343 5.18942 28.7335 4.82908 30.0795 5.00164C30.2674 5.02849 30.4464 5.0624 30.6167 5.10291C34.5604 6.03975 33.9475 10.5053 33.6911 12.5597C33.4208 14.5223 33.1556 16.3099 33.1016 16.5321C33.0075 16.9188 32.9236 16.9361 31.1373 16.9361C30.5374 16.9361 30.2239 16.9154 29.8825 16.8834C29.3308 16.8474 29.2798 16.7235 29.3347 16.3221C29.5357 14.6825 29.8068 13.2685 30.009 11.737C30.281 9.64674 30.2085 7.58308 27.6149 8.0268C27.1704 8.13961 27.0488 8.17517 26.9875 8.61853C26.664 10.6831 26.3795 12.816 26.0836 14.8354C26.0185 15.3174 25.9277 15.8211 25.8346 16.2676C25.8104 16.3812 25.7973 16.483 25.7767 16.5583C25.7502 16.6474 25.6889 16.74 25.6301 16.6483C25.2134 15.8894 23.2525 16.016 22.4344 16.5729C22.0238 16.8582 21.9393 17.0116 22.107 16.1418C22.1365 15.9573 22.1651 15.773 22.1932 15.589C22.5993 12.9245 22.8731 10.3038 23.3803 7.60314ZM17.7818 3.02678C17.3436 1.53267 18.6479 0.0560606 20.1085 0.0046501C22.0877 -0.127588 22.6342 2.5946 20.6094 3.8291C19.4364 4.36575 18.2038 4.25193 17.7818 3.02678Z" fill="#EA232A"/>
</g>
</svg>
