<svg width="163" height="48" viewBox="0 0 163 48" fill="none" xmlns="http://www.w3.org/2000/svg">
<g id="Indonesia">
<path id="Vector" d="M0.968092 32.9853C0.968092 30.6036 0.927175 28.6031 0.800293 26.8183H5.22504L5.43499 29.8841H5.55857C6.55916 28.2657 8.39543 26.3486 11.8188 26.3486C14.4911 26.3486 16.5762 27.8836 17.4516 30.1773H17.5371C18.2463 29.0294 19.0787 28.1789 20.0384 27.5854C21.1654 26.7775 22.4624 26.3486 24.1288 26.3486C27.5099 26.3486 30.93 28.6878 30.93 35.3282V47.5324H25.9229V36.0906C25.9229 32.6483 24.7549 30.6036 22.2921 30.6036C20.5401 30.6036 19.2449 31.8808 18.7034 33.3703C18.5782 33.8762 18.453 34.5182 18.453 35.1104V47.5328H13.4447V35.5346C13.4447 32.6483 12.3193 30.6036 9.93826 30.6036C8.02222 30.6036 6.72861 32.1356 6.26531 33.5805C6.05824 34.0902 5.97393 34.6875 5.97393 35.2806V47.5328H0.968092V32.9853Z" fill="#003D79"/>
<path id="Vector_2" d="M50.4393 42.5577C50.4393 44.4271 50.522 46.2545 50.7291 47.5333H46.0964L45.7637 45.238H45.6373C44.3841 46.856 42.2561 48.0001 39.6317 48.0001C35.54 48.0001 33.245 44.9836 33.245 41.834C33.245 36.5992 37.7896 33.966 45.3062 34.0078V33.6678C45.3062 32.3064 44.7615 30.0515 41.172 30.0515C39.1675 30.0515 37.0824 30.6909 35.7058 31.5823L34.7048 28.1799C36.2071 27.2426 38.8361 26.3496 42.0478 26.3496C48.5605 26.3496 50.4398 30.5641 50.4398 35.0693V42.5577H50.4393ZM45.4298 37.4131C41.7977 37.3267 38.336 38.1338 38.336 41.2813C38.336 43.3226 39.6321 44.2599 41.2576 44.2599C43.2988 44.2599 44.8041 42.8947 45.2624 41.4073C45.386 41.0231 45.4294 40.601 45.4294 40.2602V37.4131H45.4298Z" fill="#003D79"/>
<path id="Vector_3" d="M53.985 32.9858C53.985 30.6041 53.9416 28.6037 53.8218 26.8189H58.3246L58.5743 29.928H58.7016C59.5769 28.3092 61.7897 26.3496 65.1692 26.3496C68.7178 26.3496 72.3879 28.6888 72.3879 35.2424V47.5334H67.2564V35.8393C67.2564 32.8599 66.169 30.6037 63.3747 30.6037C61.3322 30.6037 59.9096 32.0928 59.3695 33.6678C59.2033 34.135 59.1607 34.7731 59.1607 35.3663V47.5334H53.9859V32.9858H53.985Z" fill="#003D79"/>
<path id="Vector_4" d="M94.6396 18.498V41.705C94.6396 43.831 94.726 46.1305 94.807 47.5328H90.2194L90.0102 44.2594H89.9251C88.715 46.5551 86.2521 47.9992 83.2913 47.9992C78.4487 47.9992 74.6129 43.7893 74.6129 37.4126C74.5683 30.4773 78.824 26.3487 83.7075 26.3487C86.5022 26.3487 88.5063 27.54 89.4238 29.0771H89.5089V18.498H94.6396ZM89.5093 35.4521C89.5093 35.0292 89.4676 34.5182 89.382 34.0907C88.9237 32.0535 87.2986 30.393 84.9602 30.393C81.6633 30.393 79.825 33.3708 79.825 37.2411C79.825 41.0234 81.6633 43.7901 84.9201 43.7901C87.0023 43.7901 88.8406 42.3432 89.3403 40.0883C89.4676 39.622 89.5089 39.1093 89.5089 38.5575V35.4521H89.5093Z" fill="#003D79"/>
<path id="Vector_5" d="M98.2705 47.5328V26.8184H103.448V47.5328H98.2705Z" fill="#003D79"/>
<path id="Vector_6" d="M107.075 33.4982C107.075 30.6907 107.033 28.6885 106.911 26.8191H111.376L111.54 30.7707H111.71C112.712 27.8402 115.088 26.8191 117.263 26.8191C117.76 26.8191 118.053 26.734 118.468 26.8191V31.4148C118.053 31.3289 117.596 31.2446 116.969 31.2446C114.504 31.2446 112.834 32.8601 112.377 35.1963C112.296 35.6655 112.211 36.2211 112.211 36.8172V47.5335H107.076V33.4982H107.075Z" fill="#003D79"/>
<path id="Vector_7" d="M120.849 47.5328V26.8184H126.021V47.5328H120.849Z" fill="#003D79"/>
<path id="Vector_8" d="M158.229 4.91265C155.668 1.9349 152.944 3.28203 150.781 4.37809C149.872 4.83598 143.3 8.63346 143.3 8.63346C139.7 10.1466 136.896 8.49529 135.795 7.10562C135.681 6.95903 135.583 6.8217 135.509 6.68733L135.255 6.23492C134.861 5.55756 134.389 4.79091 133.81 4.03562C133.5 3.62576 133.155 3.21631 132.774 2.82919C130.312 0.292906 126.374 -1.48093 119.792 1.74281C116.678 3.58321 106.526 9.49447 106.526 9.49447C102.714 11.0956 99.7946 9.14526 98.8486 7.71558C98.8064 7.66166 98.7651 7.59721 98.7378 7.54329L98.6134 7.32635L97.9695 6.25514C97.6938 5.81241 97.3888 5.35705 97.0375 4.8899C96.7246 4.48214 96.3762 4.07606 95.9985 3.68515C93.5514 1.1653 89.6358 -0.605177 83.1132 2.55707C79.1682 4.85199 69.9947 10.1992 69.9947 10.1992C69.9927 10.2022 69.9927 10.2022 69.9918 10.2022C66.2168 12.4014 63.2766 14.1121 63.2766 14.1121L66.7508 18.4601C68.2122 19.8801 70.961 22.2088 75.2126 20.2454C75.2126 20.2454 86.9465 13.3198 86.9919 13.3C97.0239 7.68862 101.976 13.0502 104.162 16.6235C104.238 16.7352 104.301 16.8565 104.368 16.9652L104.374 16.9702C104.4 17.0136 104.418 17.054 104.44 17.0949L104.69 17.5081C105.753 19.1556 107.438 20.2197 109.441 20.1708C110.547 20.148 111.297 19.7799 112.39 19.1619L123.743 12.4503C123.75 12.4465 123.755 12.4427 123.767 12.4398C133.923 6.76062 138.957 12.4731 141.107 16.0464C141.274 16.3556 141.466 16.6501 141.659 16.9251C142.723 18.3965 144.192 19.3599 146.056 19.3136C147.287 19.2879 148.668 18.5347 148.872 18.3965L162.485 10.3904C162.485 10.3904 161.093 8.24971 158.229 4.91265Z" fill="url(#paint0_linear_270_506)"/>
</g>
<defs>
<linearGradient id="paint0_linear_270_506" x1="71.5921" y1="31.3935" x2="178.277" y2="-16.9471" gradientUnits="userSpaceOnUse">
<stop stop-color="#FDB913"/>
<stop offset="0.2247" stop-color="#FFCB05"/>
<stop offset="0.3933" stop-color="#FAA61A"/>
<stop offset="0.5281" stop-color="#FFCB05"/>
<stop offset="0.6461" stop-color="#FAA61A"/>
<stop offset="0.6683" stop-color="#FCB415"/>
<stop offset="0.6975" stop-color="#FFC10E"/>
<stop offset="0.7285" stop-color="#FFC907"/>
<stop offset="0.764" stop-color="#FFCB05"/>
<stop offset="0.7974" stop-color="#FFCB05"/>
<stop offset="1" stop-color="#FFCB05"/>
</linearGradient>
</defs>
</svg>
