<svg width="96" height="48" viewBox="0 0 96 48" fill="none" xmlns="http://www.w3.org/2000/svg">
<g id="Indonesia">
<path id="Vector" d="M95.5052 0H0V48H95.5052V0Z" fill="#412A8C"/>
<path id="Vector_2" fill-rule="evenodd" clip-rule="evenodd" d="M22.0913 11.2129C29.0341 11.2129 34.6623 16.9382 34.6623 23.9996C34.6623 31.0622 29.0341 36.7862 22.0913 36.7862C15.1485 36.7862 9.52026 31.0609 9.52026 23.9996C9.52026 16.9369 15.1485 11.2129 22.0913 11.2129ZM22.0913 15.9996C17.7471 15.9996 14.2266 19.5809 14.2266 23.9996C14.2266 28.4182 17.7484 31.9996 22.0913 31.9996C26.4355 31.9996 29.9573 28.4182 29.9573 23.9996C29.9573 19.5809 26.4355 15.9996 22.0913 15.9996ZM73.4141 11.2129C80.3569 11.2129 85.9851 16.9382 85.9851 23.9996C85.9851 31.0622 80.3569 36.7862 73.4141 36.7862C66.4713 36.7862 60.8431 31.0609 60.8431 23.9996C60.8431 16.9369 66.4713 11.2129 73.4141 11.2129ZM73.4141 15.9996C69.0699 15.9996 65.5494 19.5809 65.5494 23.9996C65.5494 28.4182 69.0712 31.9996 73.4141 31.9996C77.7583 31.9996 81.2788 28.4182 81.2788 23.9996C81.2788 19.5809 77.757 15.9996 73.4141 15.9996ZM37.566 16.1742L45.2039 33.4009C45.3498 33.7302 46.5184 36.6702 50.1636 36.5076L59.437 14.7129V12.0929H51.502V16.1742H54.0462L48.6421 29.4822L42.6491 16.1742H45.3206V12.0929H35.2632V16.1742H37.566Z" fill="white"/>
</g>
</svg>
