<svg width="80" height="20" viewBox="0 0 80 20" fill="none" xmlns="http://www.w3.org/2000/svg">
<path d="M46.0797 17.6107C46.0716 16.8389 45.7994 16.2922 45.2556 15.9864C45.0905 15.9008 44.8809 15.8343 44.6288 15.7869C44.3773 15.7399 44.0995 15.7163 43.7959 15.7155H42.7031V19.5848H43.7959C44.5877 19.5881 45.1666 19.4367 45.5231 19.1196C45.7032 18.9668 45.8405 18.7608 45.9357 18.5012C46.0307 18.2419 46.0779 17.9443 46.0797 17.6107ZM42.7031 12.1238V15.4384H43.8393C45.1604 15.4303 45.8447 14.8683 45.8518 13.7424C45.8612 12.6492 45.1404 12.1159 43.742 12.124H42.7031V12.1238ZM41.8069 19.0602C41.813 18.9357 41.8203 18.737 41.8265 18.4656V13.242L41.8098 12.7353C41.8059 12.6279 41.8007 12.5548 41.7956 12.5158C41.7902 12.4751 41.7817 12.4401 41.7702 12.4084C41.7316 12.28 41.647 12.1889 41.52 12.1336C41.4025 12.0831 41.2286 12.0587 41.0036 12.0571V11.8799L43.915 11.8789C44.3385 11.8807 44.7204 11.9082 45.0617 11.9651C45.4031 12.0203 45.6778 12.0976 45.8883 12.1962C46.4965 12.4922 46.7973 12.9901 46.7939 13.6976C46.8014 14.7102 46.1515 15.3562 44.8062 15.5228L44.5806 15.5601C44.8832 15.5715 45.2919 15.674 45.4826 15.7197C45.6713 15.7645 45.8564 15.8351 46.0384 15.9319C46.752 16.2995 47.1038 16.8867 47.0967 17.7002C47.1003 18.6869 46.6307 19.3277 45.6774 19.631C45.4695 19.6922 45.208 19.74 44.8926 19.775C44.5756 19.81 44.2323 19.8279 43.861 19.8285H41.0036V19.6505C41.3403 19.6464 41.5717 19.5934 41.674 19.4699C41.7166 19.4284 41.7472 19.382 41.767 19.3291C41.7877 19.2758 41.8002 19.1837 41.8069 19.0602Z" fill="black"/>
<path d="M48.516 18.3796C48.5201 18.7418 48.6059 19.0352 48.7772 19.2565C48.9492 19.4794 49.1813 19.594 49.4679 19.599C49.7579 19.5948 50.0322 19.5175 50.2877 19.3678C50.5433 19.2174 50.7451 19.0165 50.8908 18.7675C50.9797 18.6088 51.0448 18.4048 51.0853 18.1568C51.1258 17.9111 51.1458 17.6044 51.1458 17.2376V16.6683C50.6266 16.7148 50.2553 16.7651 49.9859 16.8237C49.7141 16.8824 49.4743 16.9662 49.265 17.0767C48.7691 17.3291 48.5201 17.7665 48.516 18.3796ZM51.2638 19.6023C51.2047 19.4827 51.163 19.3403 51.1456 18.9758L51.1402 18.8684L51.0703 18.9499C50.9868 19.0449 50.9052 19.1294 50.8259 19.2003C50.7453 19.2717 50.652 19.345 50.5473 19.419C50.3179 19.5923 50.0961 19.7142 49.884 19.7848C49.6716 19.8557 49.4324 19.8899 49.1659 19.8873C48.7015 19.8899 48.345 19.7768 48.09 19.5547C47.9479 19.4237 47.8356 19.2587 47.7535 19.0586C47.6724 18.8584 47.6304 18.644 47.6288 18.4129C47.6336 17.5621 48.1434 17.0139 49.1861 16.7706C49.462 16.7047 49.7532 16.651 50.0599 16.6095C50.367 16.5672 50.7159 16.5322 51.1053 16.5055L51.1458 15.7637C51.1458 15.51 51.1342 15.304 51.1101 15.1479C51.0859 14.9893 51.0457 14.851 50.9893 14.7346C50.8347 14.4256 50.5193 14.2777 50.0637 14.2777C49.3324 14.2735 48.9363 14.6305 48.895 15.3391C48.8912 15.4522 48.8808 15.5318 48.866 15.579C48.8522 15.6247 48.8284 15.6579 48.795 15.6823C48.7221 15.7328 48.6063 15.7612 48.4402 15.7637C48.0814 15.7685 47.9472 15.6597 47.9531 15.4758C47.9554 15.2838 48.0178 15.0975 48.1424 14.9185C48.2678 14.7387 48.4421 14.5818 48.6671 14.4492C49.0719 14.2191 49.5904 14.1018 50.2259 14.0995C50.9217 14.102 51.3882 14.2629 51.643 14.5719C51.7463 14.7014 51.8227 14.8625 51.8721 15.0568C51.922 15.2503 51.9471 15.4968 51.9468 15.7962L51.9458 15.8587L51.9404 16.1493L51.9253 16.9156L51.9141 17.9687L51.9034 18.4788C51.9045 18.7187 51.9141 18.9017 51.9306 19.1066C51.9462 19.3059 52.0159 19.5287 52.172 19.5872C52.334 19.6489 52.4903 19.6733 52.7881 19.6751C53.0066 19.671 53.1747 19.645 53.2886 19.5954C53.4184 19.5394 53.4986 19.419 53.5334 19.2481C53.5668 19.082 53.581 18.8283 53.5777 18.4892V15.5167C53.5848 15.1117 53.5389 14.8271 53.4266 14.6781C53.3166 14.5334 53.1118 14.4706 52.8309 14.474V14.3152L54.3789 14.2006V15.4638L54.4595 15.3158C54.6884 14.8985 54.9486 14.6024 55.2383 14.4252C55.5274 14.248 55.8899 14.1591 56.3265 14.1642C56.9835 14.1543 57.4402 14.3798 57.7077 14.8304C57.8062 14.9817 57.8772 15.1628 57.9198 15.376C57.9623 15.5891 57.9841 15.8609 57.9824 16.1925V18.4896C57.9784 18.832 57.9924 19.0874 58.0247 19.2534C58.0581 19.4241 58.1366 19.5439 58.2671 19.5982C58.3754 19.6446 58.6269 19.669 58.8412 19.6747C59.0424 19.6692 59.1975 19.643 59.3041 19.596C59.4306 19.539 59.5076 19.4188 59.5401 19.2486C59.5715 19.0818 59.5854 18.8289 59.5813 18.4898V13.0888C59.5854 12.779 59.5727 12.5497 59.5425 12.4016C59.5109 12.247 59.4331 12.1413 59.306 12.0947C59.1958 12.055 59.0301 12.0363 58.8132 12.0353V11.8775L60.4232 11.793C60.4031 12.1596 60.3879 12.5339 60.3771 12.9169C60.3668 13.3162 60.3614 13.6653 60.3614 13.9637V17.592L62.1348 15.6011C62.3858 15.3164 62.523 15.0773 62.5253 14.8853C62.5376 14.6185 62.2754 14.498 61.8434 14.4761V14.3182H64.1486V14.4783C64.01 14.4946 63.8896 14.5208 63.7869 14.5564C63.6758 14.5953 63.5613 14.6514 63.4448 14.724C63.3265 14.7972 63.2267 14.8648 63.1466 14.9256C63.0648 14.9881 62.9683 15.0776 62.8577 15.1931C62.7469 15.3088 62.5856 15.4836 62.3744 15.7187L61.7892 16.3644L63.3213 18.8348C63.4964 19.1275 63.6573 19.334 63.8053 19.4512C63.9463 19.5636 64.1265 19.6357 64.3433 19.67V19.8311H62.9416C62.9032 19.7514 62.85 19.6472 62.7824 19.5195L62.5595 19.1023L62.3886 18.7882L61.2549 16.8947L60.3635 17.917L60.3612 18.4888C60.3572 18.8281 60.3706 19.0818 60.4029 19.2477C60.4359 19.4184 60.5136 19.538 60.6423 19.595C60.755 19.6446 60.922 19.6708 61.1399 19.6747V19.8309H56.4023V19.6747C56.7231 19.6656 56.9437 19.6121 57.0319 19.4916C57.0672 19.4453 57.0941 19.3922 57.1133 19.3328C57.1319 19.2734 57.1434 19.1963 57.149 19.1019C57.1553 19.0278 57.1616 18.9204 57.1688 18.7797C57.1768 18.6381 57.1807 18.5413 57.1814 18.4892V16.2592C57.1835 15.7094 57.1259 15.3021 57.0044 15.0432C56.8193 14.6359 56.486 14.4317 56.0131 14.4299C55.4856 14.4283 55.0651 14.6854 54.7535 15.1937C54.6362 15.3859 54.5448 15.6046 54.4788 15.8485C54.4137 16.0924 54.3795 16.3334 54.3787 16.5692V18.4896C54.3749 18.832 54.3887 19.0874 54.4208 19.2534C54.4542 19.4241 54.5327 19.5439 54.6634 19.5982C54.7777 19.647 54.9472 19.6715 55.1688 19.6757V19.8319H52.8386C52.6322 19.8391 52.238 19.8498 52.0429 19.8472C51.8383 19.8439 51.7398 19.822 51.5532 19.8075C51.3881 19.7575 51.3186 19.7138 51.2638 19.6023Z" fill="black"/>
<path d="M2.92944 16.1743H3.42862C4.02821 16.1717 4.46922 16.0272 4.7524 15.7382C4.90619 15.5714 5.02273 15.3519 5.1026 15.081C5.18189 14.811 5.22202 14.502 5.22259 14.1538C5.21933 12.8444 4.65948 12.1888 3.54381 12.187H2.92944V16.1743ZM2.92944 16.4827V18.4601C2.92541 18.7772 2.94326 19.0133 2.98262 19.1669C3.02256 19.3205 3.10818 19.4224 3.24085 19.472C3.37294 19.5215 3.57664 19.55 3.85062 19.555V19.8315H0.819061V19.555C1.0771 19.5502 1.26813 19.5215 1.39273 19.472C1.51657 19.4224 1.59663 19.3205 1.6333 19.1669C1.66978 19.0133 1.68648 18.7774 1.68245 18.4601V13.261C1.6861 12.9437 1.67016 12.7079 1.63484 12.554C1.59951 12.3994 1.52233 12.297 1.40387 12.2458C1.28522 12.1945 1.10302 12.1646 0.857076 12.1555V11.879H3.74464C4.71823 11.8748 5.43129 12.0507 5.88401 12.4069C6.33692 12.7633 6.56078 13.3237 6.5554 14.0909C6.55886 15.1678 6.14934 15.8728 5.32742 16.2064C5.11316 16.2919 4.83976 16.3592 4.50781 16.408C4.17508 16.4568 3.80569 16.4821 3.39924 16.4829H2.92944V16.4827Z" fill="black"/>
<path d="M7.91893 16.5101H10.1253C10.1165 16.1829 10.0994 15.9194 10.074 15.7201C10.0493 15.5199 10.0093 15.3419 9.95577 15.1849C9.76916 14.6286 9.48309 14.3527 9.09718 14.3576C8.66443 14.3617 8.34169 14.6725 8.12858 15.2905C8.07406 15.4506 8.03067 15.6265 7.99726 15.8169C7.96443 16.0073 7.93813 16.2382 7.91893 16.5101ZM11.4362 16.8165H7.90933C7.91298 17.202 7.93486 17.5256 7.97518 17.7868C8.01512 18.0473 8.08001 18.2855 8.16871 18.5018C8.46169 19.2015 8.91421 19.5512 9.52667 19.5512C9.87341 19.5487 10.1875 19.4446 10.4701 19.2371C10.752 19.0298 10.9868 18.7314 11.1738 18.3433L11.4236 18.5124C11.178 19.0134 10.8779 19.3811 10.5235 19.6161C10.1695 19.8502 9.73728 19.9666 9.22697 19.9643C8.42406 19.9537 7.68566 19.6909 7.22334 19.1761C6.76064 18.6612 6.52487 17.9552 6.51546 17.0604C6.52468 16.1584 6.75277 15.4451 7.19972 14.9195C7.64611 14.3942 8.35897 14.1259 9.12733 14.1143C9.63822 14.1152 10.1316 14.2346 10.4818 14.4722C10.832 14.7089 11.0903 15.0562 11.2569 15.5134C11.311 15.6646 11.3527 15.8377 11.3805 16.0338C11.4082 16.2294 11.4268 16.4904 11.4362 16.8165Z" fill="black"/>
<path d="M11.6618 14.2658L13.6182 14.1275C13.6288 14.3277 13.6365 14.4951 13.6418 14.631C13.6472 14.7677 13.6497 14.8873 13.6497 14.9914V15.311C14.0748 14.5148 14.5884 14.1129 15.1899 14.1064C15.4498 14.1114 15.6612 14.1895 15.8234 14.3391C15.9859 14.4896 16.0696 14.6824 16.0744 14.9168C16.0707 15.112 16.0005 15.2682 15.8638 15.3862C15.7272 15.5032 15.5475 15.5642 15.3252 15.5667C15.058 15.5756 14.8952 15.4627 14.8362 15.2261C14.7976 15.0795 14.7579 14.9804 14.7164 14.9275C14.6753 14.8744 14.6148 14.85 14.5342 14.8525H14.5137C14.3088 14.8704 14.1149 15.037 13.9308 15.3545C13.8478 15.5123 13.7852 15.6863 13.7438 15.8773C13.7019 16.0685 13.6812 16.289 13.6812 16.5378V18.5101C13.6772 18.8251 13.6921 19.0566 13.7259 19.2065C13.7597 19.3552 13.8365 19.4527 13.9555 19.4991C14.0752 19.5446 14.2608 19.5705 14.5137 19.5764V19.832H11.6203V19.5764C11.8561 19.5772 12.031 19.5538 12.1443 19.5058C12.2581 19.4578 12.3317 19.3577 12.3655 19.2067C12.3996 19.0536 12.4146 18.8219 12.4115 18.5103V15.5559C12.4208 15.1167 12.3781 14.8311 12.2825 14.6995C12.1869 14.5677 11.9801 14.5083 11.6618 14.5223V14.2658Z" fill="black"/>
<path d="M18.3986 14.1277L18.4092 15.1834C18.8308 14.4728 19.4342 14.1138 20.2201 14.1065C21.0191 14.1018 21.512 14.4741 21.6976 15.2265C21.9234 14.8384 22.1816 14.5546 22.4716 14.3748C22.7613 14.1934 23.0999 14.1039 23.4874 14.1065C24.0998 14.1098 24.5508 14.3164 24.8405 14.7247C24.9534 14.8801 25.0345 15.0687 25.0823 15.2926C25.1306 15.517 25.1541 15.8074 25.1527 16.1646V18.5104C25.1489 18.822 25.1644 19.0537 25.1982 19.2057C25.232 19.3578 25.3059 19.4579 25.4192 19.5059C25.5332 19.5539 25.7078 19.5773 25.9435 19.5757V19.832H23.123V19.5757C23.3486 19.5773 23.516 19.5539 23.6252 19.5059C23.7347 19.4579 23.8059 19.3578 23.8382 19.2057C23.8716 19.0537 23.8861 18.822 23.8831 18.5104V16.175C23.8854 15.6146 23.818 15.2104 23.6813 14.9623C23.5444 14.7133 23.3236 14.5921 23.0187 14.5971C22.6528 14.5898 22.3439 14.7851 22.0928 15.1834C21.8762 15.5155 21.7685 15.875 21.77 16.2605V18.5104C21.7667 18.822 21.7815 19.0537 21.8147 19.2057C21.8482 19.3578 21.9202 19.4579 22.0307 19.5059C22.1417 19.5539 22.3112 19.5773 22.5405 19.5757V19.832H19.7514V19.5757C19.9768 19.5773 20.1444 19.5539 20.2539 19.5059C20.3631 19.4579 20.4341 19.3578 20.4668 19.2057C20.4998 19.0537 20.515 18.822 20.5111 18.5104V16.1646C20.5165 15.1089 20.2356 14.5866 19.6681 14.5971C19.3152 14.61 19.0193 14.7818 18.7811 15.1112C18.5424 15.4415 18.4184 15.853 18.4092 16.3457V18.5102C18.4059 18.8251 18.4207 19.0592 18.4535 19.2106C18.4862 19.3625 18.5572 19.4618 18.6665 19.5082C18.7757 19.5547 18.9431 19.5775 19.1687 19.5759V19.8322H16.3484V19.5759C16.5845 19.5775 16.7588 19.5549 16.8727 19.5082C16.986 19.462 17.0601 19.3627 17.0937 19.2106C17.1278 19.0592 17.1428 18.8251 17.1392 18.5102V15.5463C17.1503 15.112 17.1077 14.8313 17.0117 14.7029C16.9161 14.5737 16.702 14.5143 16.3695 14.5223V14.266L18.3986 14.1277Z" fill="black"/>
<path d="M33.3427 14.6152V18.1763C33.3423 18.4082 33.3508 18.6 33.3675 18.7522C33.3842 18.9041 33.4105 19.0319 33.4468 19.136C33.4907 19.2548 33.5589 19.35 33.6507 19.4216C33.7428 19.4922 33.845 19.5288 33.9563 19.5305C34.1788 19.5272 34.4213 19.4167 34.6851 19.2003L34.8309 19.4662C34.4129 19.8258 33.9377 20.003 33.4051 19.9999C32.8307 19.991 32.439 19.7949 32.2288 19.4133C32.1879 19.3287 32.1558 19.2327 32.1328 19.1238C32.1103 19.0156 32.0942 18.87 32.0856 18.6853C32.0767 18.5012 32.0723 18.2534 32.0727 17.9418V14.6152H31.4796V14.2956C31.7066 14.2866 31.8984 14.2378 32.056 14.1491C32.2138 14.0598 32.3511 13.9207 32.4686 13.7303C32.5605 13.5855 32.6364 13.4244 32.6959 13.248C32.7558 13.0715 32.808 12.8518 32.8535 12.589L33.3738 12.5361C33.3669 12.6768 33.3608 12.82 33.3564 12.9657C33.3519 13.1103 33.3483 13.2854 33.346 13.4893C33.3437 13.6935 33.3423 13.9555 33.3423 14.2734H34.6018V14.615H33.3427V14.6152Z" fill="black"/>
<path d="M29.533 17.5743V16.7537C28.7879 16.805 28.2593 16.9462 27.9472 17.1766C27.6356 17.4075 27.4839 17.767 27.4933 18.2558C27.4966 18.6396 27.5734 18.9439 27.7237 19.1693C27.8736 19.3947 28.0781 19.5094 28.3361 19.5141C28.5479 19.5126 28.7436 19.45 28.9229 19.3263C29.1022 19.2035 29.2429 19.031 29.3456 18.8107C29.4126 18.6756 29.4606 18.5114 29.4904 18.316C29.5194 18.1209 29.5338 17.8737 29.533 17.5743ZM31.4746 19.6062V19.8316C31.1703 19.8521 31.0473 19.8521 30.7272 19.8521C30.4732 19.8521 30.2102 19.8479 29.9919 19.7641C29.8569 19.712 29.7817 19.6674 29.6809 19.5592C29.6106 19.4445 29.5659 19.438 29.5436 19.1201C29.2748 19.4177 28.9953 19.6357 28.7046 19.7765C28.4133 19.9164 28.1 19.9854 27.764 19.984C27.2644 19.9783 26.8737 19.8375 26.5915 19.5602C26.3095 19.283 26.1664 18.9014 26.1611 18.4167C26.1595 17.5017 26.7144 16.933 27.826 16.711C28.3275 16.611 28.8962 16.5434 29.533 16.5078V15.8148C29.5382 15.2601 29.4808 14.8756 29.3614 14.6616C29.2416 14.4476 29.0281 14.3453 28.7213 14.3549C28.3951 14.3474 28.1628 14.4686 28.024 14.7168C27.9737 14.803 27.9366 14.9008 27.9134 15.0121C27.8903 15.1226 27.8715 15.2764 27.8573 15.4741C27.8493 15.6645 27.7953 15.7995 27.6959 15.8793C27.5966 15.9598 27.439 15.9987 27.2224 15.9973C26.7403 15.9932 26.4976 15.8296 26.494 15.5068C26.4955 15.3181 26.5525 15.1376 26.6647 14.9668C26.7764 14.7951 26.935 14.6446 27.1395 14.5146C27.5728 14.2412 28.1418 14.1063 28.8465 14.1094C29.5624 14.1061 30.076 14.2518 30.3864 14.5471C30.5262 14.6822 30.6291 14.8543 30.6946 15.0636C30.7604 15.2733 30.7929 15.542 30.7919 15.8697L30.7814 16.7969L30.7712 17.7242C30.7627 18.0285 30.7589 18.2202 30.7606 18.3001C30.7568 18.6848 30.7687 18.9655 30.7959 19.142C30.8236 19.3192 30.8534 19.3973 30.9666 19.4933C31.1657 19.6085 31.3362 19.6054 31.4746 19.6062Z" fill="black"/>
<path d="M38.4935 17.5757V16.754C37.7484 16.8062 37.2198 16.9476 36.9076 17.1777C36.5953 17.4089 36.4443 17.7682 36.4538 18.257C36.457 18.641 36.5338 18.9451 36.6841 19.1705C36.8341 19.3959 37.0386 19.5106 37.2966 19.5153C37.5086 19.5137 37.704 19.4512 37.8833 19.3275C38.0627 19.2047 38.2034 19.0322 38.3059 18.8119C38.3731 18.6768 38.4211 18.5127 38.4507 18.3172C38.4798 18.1221 38.4943 17.8748 38.4935 17.5757ZM40.4351 19.6066V19.832C40.1306 19.8524 40.0077 19.853 39.6877 19.853C39.4337 19.853 39.171 19.8489 38.9523 19.7651C38.8174 19.7132 38.7421 19.6693 38.6417 19.5594C38.571 19.4455 38.5263 19.439 38.504 19.1209C38.2353 19.4177 37.9557 19.6365 37.665 19.7773C37.3738 19.9164 37.0605 19.9862 36.7245 19.9848C36.2249 19.9791 35.8342 19.8375 35.552 19.5611C35.2699 19.2838 35.1269 18.9022 35.1215 18.4175C35.12 17.5025 35.6748 16.934 36.7865 16.712C37.288 16.6118 37.8566 16.5442 38.4935 16.5086V15.8156C38.4987 15.2611 38.4413 14.8764 38.3218 14.6616C38.202 14.4476 37.9885 14.3461 37.6817 14.3557C37.3555 14.3484 37.1232 14.4696 36.9844 14.7176C36.9339 14.8038 36.8971 14.9015 36.8738 15.0129C36.8508 15.1234 36.832 15.2772 36.8182 15.4749C36.8097 15.6645 36.7558 15.7995 36.6563 15.8801C36.557 15.9606 36.3994 15.9995 36.1829 15.9981C35.7008 15.994 35.4581 15.8305 35.4544 15.5078C35.456 15.3189 35.513 15.1384 35.6251 14.9676C35.7369 14.7961 35.8954 14.6454 36.0999 14.5162C36.5332 14.242 37.1023 14.1071 37.8067 14.1104C38.5229 14.1071 39.0364 14.2528 39.3469 14.5481C39.4868 14.6832 39.5896 14.8555 39.655 15.0646C39.7207 15.2743 39.7533 15.543 39.7524 15.8699L39.7418 16.7979L39.7316 17.7252C39.7232 18.0294 39.7194 18.2212 39.7211 18.3011C39.7172 18.6858 39.7291 18.9665 39.7564 19.143C39.7841 19.3202 39.8138 19.3985 39.9271 19.4943C40.126 19.6097 40.2969 19.6058 40.4351 19.6066Z" fill="black"/>
<path d="M61.8641 6.4925L61.8434 6.9034L69.5332 16.1459L69.8095 16.1913L69.8444 16.1736L69.9794 15.9181L66.6998 4.67146L66.1432 4.28711L61.8641 6.4925Z" fill="#0096B8"/>
<path d="M61.8434 6.90332L69.5332 16.1458L69.8091 16.1912L64.1382 7.35219L61.8434 6.90332Z" fill="#005675"/>
<path d="M66.1432 4.28711L64.1828 6.65163L64.9834 7.01021L66.6998 4.67185V4.67146L66.1432 4.28711Z" fill="#0BBBEF"/>
<path d="M61.8434 6.90308L64.1382 7.35195L64.1824 6.65131L61.8633 6.49316L61.8434 6.90308Z" fill="#007290"/>
<path d="M64.9826 7.01082L69.8444 16.1742L69.9794 15.9179L66.7002 4.67285L64.9826 7.01082Z" fill="#007290"/>
<path d="M74.2046 4.06445L79.1772 6.40655L79.1864 7.06746L71.0262 19.7313L70.6539 19.8314L70.5988 19.8061L70.4826 19.5207L73.7715 4.31131L74.2046 4.06445Z" fill="#81B73E"/>
<path d="M75.8738 7.35653L70.6543 19.8314L71.0258 19.7313L79.1864 7.06738L75.8738 7.35653Z" fill="#69931D"/>
<path d="M73.7711 4.31152L70.4823 19.5197L70.5988 19.8051L74.9351 6.82691L73.7711 4.31152Z" fill="#277933"/>
<path d="M75.686 6.45365L75.8742 7.35728L79.1864 7.06774L79.1772 6.40723H79.1768L75.686 6.45365Z" fill="#AECC53"/>
<path d="M73.7715 4.31092L74.9342 6.82591L75.686 6.45297L74.2046 4.06445L73.7715 4.31092Z" fill="#69931D"/>
<path d="M66.6092 0.460669L66.8079 0.0702215L73.1734 0L73.5848 0.437262L70.5352 10.8775L70.3415 10.9921L70.3356 10.9913L70.1267 10.8472L66.6092 0.460669Z" fill="#E4032E"/>
<path d="M66.6096 0.460556L69.0759 1.71923L69.5344 1.16336L66.8073 0.0712891L66.6096 0.460556Z" fill="#B51227"/>
<path d="M66.6092 0.461331L70.1267 10.8478L70.3344 10.992L69.0759 1.71883L66.6092 0.460938V0.461331Z" fill="#791B15"/>
<path d="M70.2728 1.72017L70.3415 10.9924L70.5352 10.8769L73.5846 0.4375L70.2728 1.72017Z" fill="#B51227"/>
<path d="M73.1734 0L69.535 1.16347L70.2728 1.71994L73.5846 0.437655L73.1734 0Z" fill="#EA5160"/>
</svg>
