<svg width="83" height="20" viewBox="0 0 83 20" fill="none" xmlns="http://www.w3.org/2000/svg">
<g id="Indonesia">
<path id="Vector" fill-rule="evenodd" clip-rule="evenodd" d="M0.186401 1.82139C0.186401 0.815268 0.985935 0 1.97307 0H18.0215C19.0083 0 19.8086 0.815268 19.8086 1.82139V18.1786C19.8086 19.1847 19.0083 20 18.0215 20H1.97307C0.985935 19.9996 0.186401 19.1844 0.186401 18.1786V1.82139Z" fill="#ED1C24"/>
<path id="Vector_2" d="M15.6987 10.1841C15.5904 14.0075 12.5152 17.0735 8.73761 17.0735C4.95973 17.0735 1.88481 14.0079 1.77648 10.1841H2.12121C2.15063 13.1795 4.54197 15.5982 7.48778 15.5982C10.4336 15.5982 12.8249 13.1795 12.8547 10.1841H15.6987ZM18.9318 10.1841C18.8356 15.1293 14.8722 19.1076 9.99749 19.1076C5.12275 19.1076 1.1597 15.1293 1.06347 10.1841H1.42898C1.54493 14.2026 4.77733 17.4238 8.748 17.4238C12.7187 17.4238 15.9511 14.2026 16.0674 10.1841H18.9318ZM12.4923 10.1841C12.4708 12.9848 10.2363 15.2482 7.48363 15.2482C4.7306 15.2482 2.49675 12.9848 2.47495 10.1841H2.8446C2.84322 10.2261 2.84252 10.2684 2.84252 10.3108C2.84252 12.3258 4.44505 13.9592 6.42208 13.9592C8.39911 13.9592 10.002 12.3258 10.002 10.3108C10.002 10.2684 10.0013 10.2261 9.99956 10.1841H12.4923ZM7.50301 9.81546C7.52447 7.01476 9.75866 4.75134 12.5117 4.75134C15.2644 4.75134 17.4986 7.01476 17.5204 9.81546H17.1507C17.1521 9.77347 17.1528 9.73114 17.1528 9.68881C17.1528 7.67374 15.5499 6.04039 13.5732 6.04039C11.5959 6.04039 9.99333 7.67374 9.99333 9.68881C9.99333 9.73114 9.99402 9.77347 9.99541 9.81546H7.50301ZM1.06313 9.81546C1.15935 4.87022 5.12275 0.891602 9.99749 0.891602C14.8726 0.891602 18.8356 4.87022 18.9318 9.8151H18.5663C18.45 5.79697 15.218 2.57576 11.2473 2.57576C7.2763 2.57576 4.0439 5.79697 3.92795 9.81546H1.06313ZM4.29622 9.81546C4.40456 5.99205 7.47982 2.92642 11.2574 2.92642C15.0349 2.92642 18.1102 5.99205 18.2185 9.81546H17.8738C17.844 6.82002 15.4527 4.40138 12.5068 4.40138C9.56103 4.40138 7.1697 6.82002 7.14028 9.81546H4.29622Z" fill="white"/>
<path id="Vector_3" fill-rule="evenodd" clip-rule="evenodd" d="M23.79 3.42441C23.79 3.83716 23.8547 4.14266 23.9838 4.34057C24.1648 4.62103 24.4054 4.76108 24.7055 4.76108C24.9363 4.76108 25.1322 4.6623 25.2935 4.4644C25.4572 4.26437 25.5389 3.95005 25.5389 3.52178C25.5389 3.06634 25.4572 2.73826 25.2935 2.53788C25.1298 2.33503 24.9201 2.23379 24.665 2.23379C24.414 2.23379 24.206 2.33256 24.0395 2.53047C23.873 2.72591 23.79 3.02365 23.79 3.42441ZM27.852 2.73332L26.9033 2.56081C27.0103 2.17522 27.1934 1.89018 27.454 1.70462C27.7146 1.51941 28.1016 1.42698 28.6149 1.42663C29.0814 1.42663 29.4286 1.48308 29.6567 1.59561C29.8848 1.70568 30.045 1.84714 30.1368 2.02C30.2309 2.19039 30.278 2.50437 30.2783 2.96227L30.2672 4.19382C30.2672 4.54412 30.2832 4.80342 30.3157 4.97098C30.3503 5.13608 30.4133 5.31424 30.5054 5.50438H29.4712C29.4438 5.43418 29.4102 5.33046 29.3708 5.19253C29.3531 5.13009 29.341 5.08881 29.3334 5.0687C29.1548 5.24403 28.9641 5.37562 28.7606 5.46311C28.5571 5.5506 28.3401 5.59434 28.1095 5.59434C27.7025 5.59434 27.3813 5.48322 27.1459 5.26026C26.9127 5.03766 26.796 4.75614 26.796 4.41536C26.796 4.18994 26.849 3.98991 26.9559 3.81458C27.0629 3.63713 27.2114 3.50167 27.4024 3.40924C27.5962 3.31434 27.8738 3.23179 28.2359 3.16159C28.7246 3.06881 29.0631 2.98273 29.2517 2.90265V2.79717C29.2517 2.59432 29.2022 2.45074 29.1029 2.36537C29.0036 2.27788 28.8163 2.23414 28.5411 2.23414C28.3549 2.23414 28.2099 2.27189 28.1057 2.34667C28.0009 2.41935 27.9164 2.54846 27.852 2.73332ZM29.251 3.58951C29.1171 3.63466 28.9053 3.68864 28.6149 3.75108C28.3245 3.81388 28.1348 3.87491 28.0455 3.93488C27.9088 4.03224 27.8406 4.15642 27.8406 4.3067C27.8406 4.45452 27.8953 4.58222 28.0043 4.68982C28.1133 4.79742 28.2525 4.85104 28.4214 4.85104C28.6097 4.85104 28.7893 4.7886 28.961 4.66336C29.0873 4.56847 29.1704 4.45205 29.2102 4.31447C29.2375 4.22415 29.251 4.05271 29.251 3.80012V3.58951ZM34.5221 5.50438H33.4765V3.46921C33.4765 3.03882 33.454 2.76083 33.4093 2.6356C33.3647 2.50789 33.2913 2.40912 33.1899 2.33891C33.0905 2.26871 32.9701 2.23379 32.8289 2.23379C32.6478 2.23379 32.4852 2.28388 32.3415 2.38407C32.1975 2.48426 32.0982 2.6169 32.0439 2.782C31.9919 2.9471 31.9656 3.25261 31.9656 3.69816V5.50438H30.92V1.51694H31.8912V2.10255C32.236 1.65206 32.67 1.42663 33.1937 1.42663C33.4242 1.42663 33.635 1.46932 33.826 1.55434C34.0171 1.63689 34.1611 1.74343 34.2576 1.8736C34.357 2.00377 34.4248 2.15159 34.4625 2.31669C34.502 2.48179 34.5217 2.7185 34.5221 3.02648V5.50438ZM35.1645 5.50438V0H36.2101V2.921L37.4343 1.51659H38.7219L37.3713 2.97356L38.8188 5.50438H37.6915L36.6978 3.71333L36.2104 4.22768V5.50438H35.1645ZM22.752 5.50438V0H23.7976V1.98261C24.1202 1.61219 24.5023 1.42698 24.9439 1.42698C25.4254 1.42698 25.8231 1.60337 26.1384 1.95615C26.4534 2.30681 26.6105 2.81128 26.6108 3.46956C26.6108 4.15042 26.4495 4.675 26.1273 5.04295C25.8072 5.4109 25.4178 5.59469 24.9588 5.59469C24.7331 5.59469 24.5099 5.5386 24.2891 5.42607C24.0707 5.31106 23.882 5.14173 23.7232 4.91913V5.50509H22.752V5.50438Z" fill="black"/>
<path id="Vector_4" fill-rule="evenodd" clip-rule="evenodd" d="M75.0124 15.7252L77.088 15.4028C77.1766 15.8131 77.3552 16.1256 77.6255 16.3405C77.8952 16.5507 78.2731 16.6559 78.7591 16.6559C79.2942 16.6559 79.6964 16.556 79.9663 16.3557C80.1477 16.2156 80.2384 16.0279 80.2387 15.793C80.2387 15.6332 80.1892 15.5005 80.0913 15.3954C79.9882 15.2956 79.7576 15.2031 79.3994 15.1178C77.7308 14.7428 76.673 14.4002 76.2265 14.0898C75.6084 13.6597 75.2989 13.0621 75.2989 12.2966C75.2989 11.6066 75.5661 11.0262 76.1012 10.556C76.636 10.0857 77.4653 9.85079 78.5895 9.85079C79.659 9.85079 80.454 10.0286 80.9746 10.3835C81.4948 10.7387 81.8527 11.264 82.0493 11.959L80.0982 12.3266C80.0148 12.0168 79.8552 11.7794 79.6195 11.614C79.389 11.4489 79.0578 11.3663 78.6258 11.3663C78.081 11.3663 77.691 11.4439 77.4553 11.5988C77.2981 11.7089 77.2195 11.8517 77.2195 12.0264C77.2195 12.1767 77.2881 12.304 77.4258 12.4091C77.6124 12.5492 78.2551 12.7467 79.3544 13.0018C80.4585 13.2569 81.2293 13.5694 81.6661 13.9395C82.0981 14.3145 82.3137 14.8373 82.3141 15.5076C82.3141 16.2378 82.0147 16.8658 81.4159 17.3907C80.8171 17.916 79.931 18.1785 78.7581 18.1785C77.693 18.1785 76.8489 17.9583 76.2258 17.5181C75.6087 17.0781 75.2038 16.4805 75.0124 15.7252ZM72.4241 14.1723C72.1589 14.2623 71.7395 14.3699 71.1652 14.4948C70.591 14.62 70.2155 14.7424 70.039 14.8623C69.769 15.0574 69.634 15.3051 69.634 15.6049C69.634 15.9002 69.742 16.1553 69.958 16.3701C70.174 16.5853 70.4488 16.6929 70.7824 16.6929C71.1556 16.6929 71.511 16.568 71.8499 16.3179C72.1005 16.1281 72.2645 15.8953 72.3434 15.6201C72.3971 15.4398 72.4237 15.0976 72.4241 14.5921V14.1723ZM69.6562 12.4613L67.7788 12.1163C67.9896 11.3459 68.3527 10.7758 68.8684 10.4054C69.3834 10.0356 70.149 9.85044 71.1652 9.85044C72.0876 9.85044 72.7747 9.96298 73.2264 10.188C73.6777 10.4082 73.9944 10.6908 74.1761 11.0358C74.3623 11.3758 74.4558 12.0034 74.4558 12.9189L74.4336 15.3799C74.4336 16.0801 74.4655 16.5977 74.5292 16.9328C74.5977 17.263 74.7227 17.6182 74.9047 17.9982H72.8581C72.8041 17.8585 72.7377 17.6507 72.6594 17.3755C72.6248 17.2506 72.6006 17.1677 72.5857 17.1279C72.2327 17.4782 71.8547 17.7407 71.4522 17.9156C71.0496 18.0906 70.6205 18.1781 70.1639 18.1785C69.3592 18.1785 68.7234 17.9559 68.2572 17.5103C67.7958 17.0654 67.5653 16.5028 67.5653 15.8223C67.5653 15.3721 67.6705 14.9721 67.882 14.6218C68.0927 14.2669 68.3873 13.997 68.7653 13.8118C69.1481 13.6216 69.6974 13.4569 70.4145 13.3165C71.3812 13.1316 72.0506 12.9588 72.4241 12.799V12.589C72.4241 12.1837 72.3261 11.8962 72.1295 11.7262C71.9333 11.5512 71.5626 11.464 71.0178 11.4637C70.6499 11.4637 70.3626 11.5388 70.1567 11.6888C69.9507 11.8338 69.7835 12.0916 69.6562 12.4613ZM55.304 10.0307H57.2108V11.1183C57.893 10.2731 58.705 9.85079 59.6475 9.85044C60.1479 9.85044 60.5823 9.95557 60.9506 10.1655C61.3185 10.3757 61.6207 10.6932 61.856 11.1183C62.1994 10.6932 62.5697 10.3761 62.9678 10.1655C63.3651 9.95557 63.7898 9.85044 64.2415 9.85044C64.8154 9.85044 65.3013 9.97038 65.699 10.2106C66.0963 10.4459 66.3933 10.7934 66.5896 11.2534C66.7318 11.5935 66.8028 12.1438 66.8028 12.9041V17.9985H64.734V13.4442C64.734 12.6543 64.6631 12.1438 64.5208 11.9138C64.3294 11.6136 64.0352 11.4637 63.6375 11.4637C63.3475 11.4637 63.0754 11.5536 62.8203 11.7339C62.5652 11.9138 62.3808 12.1791 62.2679 12.5291C62.1551 12.8744 62.099 13.422 62.099 14.1723V17.9985H60.0303V13.6322C60.0303 12.8572 59.9936 12.3569 59.9199 12.1315C59.8461 11.9064 59.7309 11.7392 59.5737 11.6288C59.4218 11.5191 59.2131 11.464 58.948 11.4637C58.6288 11.4637 58.3419 11.5515 58.0868 11.7262C57.8314 11.9011 57.6472 12.1537 57.5344 12.4839C57.4264 12.8141 57.3724 13.3616 57.3724 14.1268V17.9985H55.3037V10.0307H55.304ZM52.0993 17.9985H50.0306V10.0307H51.9519V11.1635C52.2807 10.6283 52.5752 10.2759 52.8355 10.1055C53.1006 9.93581 53.3997 9.85079 53.7337 9.85044C54.2044 9.85044 54.6585 9.98308 55.0953 10.248L54.455 12.0863C54.1064 11.8563 53.7828 11.7413 53.4831 11.7413C53.1934 11.7413 52.948 11.8235 52.7469 11.989C52.5458 12.1491 52.3862 12.4416 52.2686 12.8667C52.1554 13.2921 52.0993 14.1825 52.0993 15.5376V17.9985ZM47.0283 14.1723C46.7635 14.2623 46.3437 14.3699 45.7695 14.4948C45.1953 14.62 44.8201 14.7424 44.6432 14.8623C44.3732 15.0574 44.2383 15.3051 44.2383 15.6049C44.2383 15.9002 44.3462 16.1553 44.5622 16.3701C44.7782 16.5853 45.053 16.6929 45.3867 16.6929C45.7598 16.6929 46.1153 16.568 46.4541 16.3179C46.7047 16.1281 46.8688 15.8953 46.9477 15.6201C47.0013 15.4398 47.028 15.0976 47.0283 14.5921V14.1723ZM44.2604 12.4613L42.3834 12.1163C42.5942 11.3459 42.9573 10.7758 43.4726 10.4054C43.9877 10.0356 44.7536 9.85044 45.7695 9.85044C46.6919 9.85044 47.3789 9.96298 47.8306 10.188C48.2823 10.4082 48.5987 10.6908 48.7804 11.0358C48.9666 11.3758 49.06 12.0034 49.06 12.9189L49.0382 15.3799C49.0382 16.0801 49.0701 16.5977 49.1338 16.9328C49.2023 17.263 49.3276 17.6182 49.5093 17.9982H47.4627C47.4087 17.8585 47.3423 17.6507 47.264 17.3755C47.2294 17.2506 47.2052 17.1677 47.1903 17.1279C46.8373 17.4782 46.4593 17.7407 46.0568 17.9156C45.6542 18.0906 45.2254 18.1781 44.7685 18.1785C43.9638 18.1785 43.328 17.9559 42.8617 17.5103C42.4004 17.0654 42.1699 16.5028 42.1699 15.8223C42.1699 15.3721 42.2754 14.9721 42.4865 14.6218C42.6973 14.2669 42.9919 13.997 43.3698 13.8118C43.7527 13.6216 44.3023 13.4569 45.0191 13.3165C45.9858 13.1316 46.6559 12.9588 47.0287 12.799V12.589C47.0287 12.1837 46.9307 11.8962 46.7341 11.7262C46.5379 11.5512 46.1672 11.464 45.6227 11.4637C45.2548 11.4637 44.9672 11.5388 44.7612 11.6888C44.5546 11.8338 44.3878 12.0916 44.2604 12.4613ZM41.3703 17.9985H39.3016V13.9321C39.3016 13.0716 39.2573 12.5164 39.169 12.2663C39.0804 12.0112 38.9357 11.814 38.7346 11.6736C38.5384 11.5335 38.3002 11.4637 38.0202 11.4633C37.662 11.4633 37.3405 11.5635 37.056 11.7636C36.7714 11.9636 36.5748 12.2285 36.4672 12.5587C36.3641 12.8893 36.3128 13.4992 36.3128 14.3896V17.9985H34.2444V10.0307H36.1657V11.2012C36.8479 10.3009 37.7067 9.85079 38.7422 9.85079C39.1984 9.85079 39.6155 9.93581 39.9935 10.1059C40.3714 10.271 40.6559 10.4837 40.8477 10.7437C41.0436 11.004 41.1786 11.2989 41.2526 11.6291C41.3309 11.9593 41.37 12.4317 41.3703 13.0473V17.9985ZM30.8241 17.9985V10.0307H32.8928V17.9985H30.8241ZM30.8241 8.95051V7H32.8928V8.95051H30.8241ZM22.4643 15.7252L24.5403 15.4028C24.6289 15.8131 24.8075 16.1256 25.0778 16.3405C25.3478 16.5507 25.7254 16.6559 26.2114 16.6559C26.7465 16.6559 27.1487 16.556 27.4186 16.3557C27.6 16.2156 27.6907 16.0279 27.691 15.793C27.691 15.6332 27.6415 15.5005 27.5436 15.3954C27.4408 15.2956 27.2096 15.2031 26.8517 15.1178C25.183 14.7428 24.1253 14.4002 23.6788 14.0898C23.0606 13.6597 22.7512 13.0621 22.7512 12.2966C22.7512 11.6066 23.0184 11.0262 23.5535 10.556C24.0883 10.0857 24.9176 9.85079 26.0414 9.85079C27.1113 9.85079 27.9063 10.0286 28.4269 10.3835C28.9471 10.7387 29.305 11.264 29.5016 11.959L27.5505 12.3266C27.4671 12.0168 27.3075 11.7794 27.0718 11.614C26.8413 11.4489 26.5101 11.3663 26.0781 11.3663C25.5337 11.3663 25.1432 11.4439 24.9075 11.5988C24.7504 11.7089 24.6718 11.8517 24.6718 12.0264C24.6718 12.1767 24.7404 12.304 24.8781 12.4091C25.0643 12.5492 25.7074 12.7467 26.8067 13.0018C27.9108 13.2569 28.6816 13.5694 29.1184 13.9395C29.5504 14.3145 29.766 14.8373 29.7663 15.5076C29.7663 16.2378 29.467 16.8658 28.8678 17.3907C28.2694 17.916 27.3833 18.1785 26.2103 18.1785C25.1453 18.1785 24.3011 17.9583 23.6781 17.5181C23.061 17.0781 22.656 16.4805 22.4643 15.7252Z" fill="black"/>
</g>
</svg>
