<svg width="32" height="32" viewBox="0 0 32 32" fill="none" xmlns="http://www.w3.org/2000/svg">
<g id="diamond-svgrepo-com (1) 1" clip-path="url(#clip0_270_3232)">
<path id="Vector" d="M30.9459 8.65595L26.4749 3.29088C26.2719 3.04719 25.971 2.90625 25.6537 2.90625H6.34608C6.02883 2.90625 5.72808 3.04713 5.52489 3.29088L1.05394 8.65595C0.731318 9.04307 0.722943 9.60301 1.03382 9.99964L15.1586 28.0209C15.5865 28.5669 16.4132 28.5669 16.8412 28.0209L30.9661 9.99964C31.2769 9.60295 31.2685 9.04307 30.9459 8.65595Z" fill="#00C3FF"/>
<path id="Vector_2" d="M16 2.90625L10.6555 9.31958H21.3444L16 2.90625Z" fill="#40D2FF"/>
<path id="Vector_3" d="M10.6555 9.31916L5.91532 2.99902C5.76632 3.06477 5.63176 3.16227 5.52495 3.29046L1.054 8.65553C0.893751 8.84785 0.811813 9.08285 0.807251 9.31922L10.6555 9.31916Z" fill="#00AAF0"/>
<path id="Vector_4" d="M21.3444 9.31922L26.0846 2.99902C26.2336 3.06477 26.3681 3.16227 26.4749 3.29046L30.9459 8.65553C31.1061 8.84785 31.1881 9.08285 31.1926 9.31922H21.3444Z" fill="#80E1FF"/>
<g id="Group">
<path id="Vector_5" d="M31.1926 9.31934H0.807316C0.802691 9.55877 0.877503 9.79965 1.034 9.99927L15.1588 28.0205C15.5867 28.5665 16.4134 28.5665 16.8413 28.0205L30.9661 9.99927C31.1224 9.79977 31.1973 9.55884 31.1926 9.31934Z" fill="#00C3FF"/>
<path id="Vector_6" d="M16 28.43C16.3136 28.43 16.6273 28.2935 16.8413 28.0205L30.9661 9.99928C31.1225 9.79965 31.1972 9.55877 31.1927 9.31934H16V28.43Z" fill="#00C3FF"/>
</g>
<path id="Vector_7" d="M16.1849 28.4098C16.5295 27.1347 21.3445 9.31934 21.3445 9.31934H10.6555L15.815 28.4098C15.9377 28.4312 16.0623 28.4312 16.1849 28.4098Z" fill="#00AAF0"/>
<path id="Vector_8" d="M31.8839 8.99898L26.5394 2.5856C26.4442 2.47135 26.3032 2.40528 26.1545 2.40528H5.84926C5.83789 2.40522 5.82657 2.40547 5.8152 2.40622C5.81495 2.40622 5.81457 2.40622 5.81457 2.40622C5.80026 2.4071 5.78614 2.4086 5.77207 2.41072C5.65476 2.42803 5.54307 2.48678 5.46101 2.58491C5.46089 2.5851 5.4607 2.58535 5.46045 2.5856L0.116062 8.99886C0.115749 8.99917 0.115374 8.99961 0.115062 8.99998C0.114999 9.00011 0.114874 9.00023 0.114749 9.00036C0.114562 9.00061 0.114374 9.00092 0.114124 9.00117C0.113999 9.0013 0.113874 9.00148 0.113749 9.00173C0.113624 9.00192 0.113437 9.00211 0.113312 9.00236C0.113187 9.00255 0.112999 9.00273 0.112749 9.00305C0.112687 9.00317 0.112562 9.0033 0.112437 9.00342C0.112249 9.00367 0.112062 9.00398 0.111749 9.00423L0.111687 9.00436C0.0364989 9.09717 -6.36457e-05 9.20892 6.13546e-05 9.32005C6.13546e-05 9.32661 0.000186355 9.33317 0.000436355 9.33967C0.00206136 9.37998 0.00849887 9.42011 0.0198114 9.45917C0.0381864 9.52286 0.0693115 9.58323 0.112749 9.63642L15.6058 29.4034C15.7007 29.5246 15.8462 29.5953 16.0002 29.5953C16.1542 29.5953 16.2995 29.5245 16.3945 29.4034L31.8935 9.6288C32.039 9.44286 32.0351 9.18042 31.8839 8.99898ZM16 3.68897L20.2747 8.81867H11.7253L16 3.68897ZM10.6762 8.51223L6.84758 3.40741H14.9302L10.6762 8.51223ZM17.0697 3.40735H25.1524L21.3237 8.51217L17.0697 3.40735ZM20.69 9.82073L16 27.1739L11.3099 9.82073H20.69ZM10.2719 9.82073L14.8728 26.8438L1.53031 9.82073H10.2719ZM21.728 9.82073H30.4696L17.1272 26.8438L21.728 9.82073ZM30.4292 8.81867H22.3465L26.1752 3.71385L30.4292 8.81867ZM5.82476 3.71379L9.65339 8.81861H1.57075L5.82476 3.71379Z" fill="#B1CFFF"/>
</g>
<defs>
<clipPath id="clip0_270_3232">
<rect width="32" height="32" fill="white"/>
</clipPath>
</defs>
</svg>
