<svg width="25" height="25" viewBox="0 0 25 25" fill="none" xmlns="http://www.w3.org/2000/svg">
<path fill-rule="evenodd" clip-rule="evenodd" d="M13.9482 20.9003V12.8727H16.6943L17.1063 9.74327H13.9482V7.74559C13.9482 6.83983 14.2036 6.22256 15.5293 6.22256L17.2174 6.22188V3.42282C16.9255 3.3856 15.9234 3.30029 14.7571 3.30029C12.3216 3.30029 10.6542 4.75842 10.6542 7.43565V9.74327H7.89978V12.8727H10.6542V20.9003H13.9482Z" fill="#8896AB"/>
<mask id="mask0_49_1124" style="mask-type:luminance" maskUnits="userSpaceOnUse" x="7" y="3" width="11" height="18">
<path fill-rule="evenodd" clip-rule="evenodd" d="M13.9482 20.9003V12.8727H16.6943L17.1063 9.74327H13.9482V7.74559C13.9482 6.83983 14.2036 6.22256 15.5293 6.22256L17.2174 6.22188V3.42282C16.9255 3.3856 15.9234 3.30029 14.7571 3.30029C12.3216 3.30029 10.6542 4.75842 10.6542 7.43565V9.74327H7.89978V12.8727H10.6542V20.9003H13.9482Z" fill="white"/>
</mask>
<g mask="url(#mask0_49_1124)">
</g>
</svg>
