<svg width="25" height="25" viewBox="0 0 25 25" fill="none" xmlns="http://www.w3.org/2000/svg">
<path fill-rule="evenodd" clip-rule="evenodd" d="M8.26377 2.19971H17.1356C20.1487 2.19971 22.5999 4.65096 22.5998 7.66379V16.5356C22.5998 19.5485 20.1487 21.9997 17.1356 21.9997H8.26377C5.25094 21.9997 2.7998 19.5486 2.7998 16.5356V7.66379C2.7998 4.65096 5.25094 2.19971 8.26377 2.19971ZM17.1358 20.243C19.1801 20.243 20.8432 18.58 20.8432 16.5357H20.8431V7.66386C20.8431 5.6197 19.1799 3.95653 17.1357 3.95653H8.26384C6.21968 3.95653 4.55662 5.6197 4.55662 7.66386V16.5357C4.55662 18.58 6.21968 20.2431 8.26384 20.243H17.1358ZM7.51417 12.0999C7.51417 9.2404 9.84044 6.91407 12.6999 6.91407C15.5593 6.91407 17.8856 9.2404 17.8856 12.0999C17.8856 14.9593 15.5593 17.2855 12.6999 17.2855C9.84044 17.2855 7.51417 14.9593 7.51417 12.0999ZM9.29993 12.1C9.29993 13.9748 10.8253 15.5 12.7 15.5C14.5748 15.5 16.1002 13.9748 16.1002 12.1C16.1002 10.2251 14.5749 8.69983 12.7 8.69983C10.8252 8.69983 9.29993 10.2251 9.29993 12.1Z" fill="#8896AB"/>
<mask id="mask0_49_1126" style="mask-type:luminance" maskUnits="userSpaceOnUse" x="2" y="2" width="21" height="20">
<path fill-rule="evenodd" clip-rule="evenodd" d="M8.26377 2.19971H17.1356C20.1487 2.19971 22.5999 4.65096 22.5998 7.66379V16.5356C22.5998 19.5485 20.1487 21.9997 17.1356 21.9997H8.26377C5.25094 21.9997 2.7998 19.5486 2.7998 16.5356V7.66379C2.7998 4.65096 5.25094 2.19971 8.26377 2.19971ZM17.1358 20.243C19.1801 20.243 20.8432 18.58 20.8432 16.5357H20.8431V7.66386C20.8431 5.6197 19.1799 3.95653 17.1357 3.95653H8.26384C6.21968 3.95653 4.55662 5.6197 4.55662 7.66386V16.5357C4.55662 18.58 6.21968 20.2431 8.26384 20.243H17.1358ZM7.51417 12.0999C7.51417 9.2404 9.84044 6.91407 12.6999 6.91407C15.5593 6.91407 17.8856 9.2404 17.8856 12.0999C17.8856 14.9593 15.5593 17.2855 12.6999 17.2855C9.84044 17.2855 7.51417 14.9593 7.51417 12.0999ZM9.29993 12.1C9.29993 13.9748 10.8253 15.5 12.7 15.5C14.5748 15.5 16.1002 13.9748 16.1002 12.1C16.1002 10.2251 14.5749 8.69983 12.7 8.69983C10.8252 8.69983 9.29993 10.2251 9.29993 12.1Z" fill="white"/>
</mask>
<g mask="url(#mask0_49_1126)">
</g>
</svg>
