<svg width="25" height="25" viewBox="0 0 25 25" fill="none" xmlns="http://www.w3.org/2000/svg">
<path d="M20.16 3.0249H5.63995C4.6417 3.0249 3.82495 3.84165 3.82495 4.8399V19.3599C3.82495 20.3582 4.6417 21.1749 5.63995 21.1749H20.16C21.1582 21.1749 21.975 20.3582 21.975 19.3599V4.8399C21.975 3.84165 21.1582 3.0249 20.16 3.0249ZM9.26995 18.4524H6.54745V10.2849H9.26995V18.4524ZM7.9087 8.74215C7.0012 8.74215 6.2752 8.01615 6.2752 7.10865C6.2752 6.20115 7.0012 5.47515 7.9087 5.47515C8.8162 5.47515 9.5422 6.20115 9.5422 7.10865C9.5422 8.01615 8.8162 8.74215 7.9087 8.74215ZM19.2525 18.4524H16.53V13.6427C16.53 12.9167 15.8947 12.2814 15.1687 12.2814C14.4427 12.2814 13.8075 12.9167 13.8075 13.6427V18.4524H11.085V10.2849H13.8075V11.3739C14.2612 10.6479 15.2595 10.1034 16.0762 10.1034C17.8005 10.1034 19.2525 11.5554 19.2525 13.2797V18.4524Z" fill="#8896AB"/>
</svg>
