<svg width="32" height="32" viewBox="0 0 32 32" fill="none" xmlns="http://www.w3.org/2000/svg">
<circle cx="16" cy="16" r="16" fill="#10B981"/>
<path d="M11.9048 21V19.6676L15.4396 16.2024C15.7777 15.861 16.0594 15.5578 16.2848 15.2926C16.5102 15.0275 16.6792 14.7706 16.7919 14.522C16.9046 14.2734 16.9609 14.0083 16.9609 13.7266C16.9609 13.4051 16.888 13.13 16.7422 12.9013C16.5964 12.6693 16.3958 12.4903 16.1406 12.3643C15.8854 12.2384 15.5954 12.1754 15.2706 12.1754C14.9358 12.1754 14.6425 12.245 14.3906 12.3842C14.1387 12.5201 13.9432 12.714 13.804 12.9659C13.6681 13.2178 13.6001 13.5178 13.6001 13.8658H11.8452C11.8452 13.2195 11.9927 12.6577 12.2876 12.1804C12.5826 11.7031 12.9886 11.3336 13.5057 11.0717C14.026 10.8099 14.6226 10.679 15.2955 10.679C15.9782 10.679 16.5781 10.8066 17.0952 11.0618C17.6122 11.317 18.0133 11.6667 18.2983 12.1108C18.5866 12.5549 18.7308 13.062 18.7308 13.6321C18.7308 14.0133 18.6579 14.3878 18.5121 14.7557C18.3662 15.1236 18.1094 15.5312 17.7415 15.9787C17.3769 16.4261 16.8648 16.968 16.2053 17.6044L14.4503 19.3892V19.4588H18.8849V21H11.9048Z" fill="white"/>
</svg>
