<svg width="32" height="32" viewBox="0 0 32 32" fill="none" xmlns="http://www.w3.org/2000/svg">
<circle cx="16" cy="16" r="16" fill="#10B981"/>
<path d="M15.5589 21.1392C14.843 21.1392 14.2067 21.0166 13.6499 20.7713C13.0964 20.526 12.6589 20.1847 12.3374 19.7472C12.0159 19.3097 11.8452 18.8042 11.8253 18.2308H13.6946C13.7112 18.5059 13.8023 18.7462 13.968 18.9517C14.1338 19.1539 14.3542 19.3113 14.6293 19.424C14.9044 19.5367 15.2126 19.593 15.554 19.593C15.9186 19.593 16.2417 19.5301 16.5234 19.4041C16.8052 19.2749 17.0256 19.0959 17.1847 18.8672C17.3438 18.6385 17.4216 18.375 17.4183 18.0767C17.4216 17.7685 17.3421 17.4967 17.1797 17.2614C17.0173 17.026 16.782 16.8421 16.4737 16.7095C16.1688 16.5769 15.8009 16.5107 15.37 16.5107H14.4702V15.0888H15.37C15.7247 15.0888 16.0346 15.0275 16.2997 14.9048C16.5682 14.7822 16.7786 14.6098 16.9311 14.3878C17.0836 14.1624 17.1581 13.9022 17.1548 13.6072C17.1581 13.3189 17.0935 13.0687 16.9609 12.8565C16.8317 12.6411 16.6477 12.4737 16.4091 12.3544C16.1738 12.2351 15.897 12.1754 15.5788 12.1754C15.2673 12.1754 14.9789 12.2318 14.7138 12.3445C14.4486 12.4571 14.2348 12.6179 14.0724 12.8267C13.91 13.0322 13.8239 13.2775 13.8139 13.5625H12.0391C12.0523 12.9924 12.2164 12.492 12.5312 12.0611C12.8494 11.6269 13.2737 11.2888 13.804 11.0469C14.3343 10.8016 14.9292 10.679 15.5888 10.679C16.2682 10.679 16.8582 10.8066 17.3587 11.0618C17.8625 11.3137 18.2519 11.6534 18.527 12.081C18.8021 12.5085 18.9396 12.9808 18.9396 13.4979C18.9429 14.0713 18.7739 14.5518 18.4325 14.9396C18.0945 15.3274 17.6503 15.581 17.1001 15.7003V15.7798C17.8161 15.8793 18.3646 16.1444 18.7457 16.5753C19.1302 17.0028 19.3208 17.5348 19.3175 18.1712C19.3175 18.7412 19.1551 19.2517 18.8303 19.7024C18.5088 20.1499 18.0646 20.5012 17.4979 20.7564C16.9344 21.0116 16.2881 21.1392 15.5589 21.1392Z" fill="white"/>
</svg>
