<svg width="54" height="54" viewBox="0 0 54 54" fill="none" xmlns="http://www.w3.org/2000/svg">
<circle cx="27" cy="27" r="27" fill="#10B981"/>
<path d="M27.4403 36.2386C26.3722 36.2386 25.4119 36.0341 24.5597 35.625C23.7131 35.2102 23.0369 34.642 22.5312 33.9205C22.0256 33.1989 21.7557 32.375 21.7216 31.4489H24.2784C24.3409 32.1989 24.6733 32.8153 25.2756 33.2983C25.8778 33.7812 26.5994 34.0227 27.4403 34.0227C28.1108 34.0227 28.7045 33.8693 29.2216 33.5625C29.7443 33.25 30.1534 32.821 30.4489 32.2756C30.75 31.7301 30.9006 31.108 30.9006 30.4091C30.9006 29.6989 30.7472 29.0653 30.4403 28.5085C30.1335 27.9517 29.7102 27.5142 29.1705 27.196C28.6364 26.8778 28.0227 26.7159 27.3295 26.7102C26.8011 26.7102 26.2699 26.8011 25.7358 26.983C25.2017 27.1648 24.7699 27.4034 24.4403 27.6989L22.0284 27.3409L23.0085 18.5455H32.6051V20.804H25.1989L24.6449 25.6875H24.7472C25.0881 25.358 25.5398 25.0824 26.1023 24.8608C26.6705 24.6392 27.2784 24.5284 27.9261 24.5284C28.9886 24.5284 29.9347 24.7812 30.7642 25.2869C31.5994 25.7926 32.2557 26.483 32.733 27.358C33.2159 28.2273 33.4545 29.2273 33.4489 30.358C33.4545 31.4886 33.1989 32.4972 32.6818 33.3835C32.1705 34.2699 31.4602 34.9687 30.5511 35.4801C29.6477 35.9858 28.6108 36.2386 27.4403 36.2386Z" fill="white"/>
</svg>
