<svg width="32" height="33" viewBox="0 0 32 33" fill="none" xmlns="http://www.w3.org/2000/svg">
<path d="M7.59995 7.06671C6.433 7.06671 5.31384 7.53028 4.48868 8.35544C3.66352 9.1806 3.19995 10.2998 3.19995 11.4667V13.4667H28.8V11.4667C28.8 10.2998 28.3364 9.1806 27.5112 8.35544C26.6861 7.53028 25.5669 7.06671 24.4 7.06671H7.59995ZM28.8 15.0667H3.19995V21.8667C3.19995 23.0337 3.66352 24.1528 4.48868 24.978C5.31384 25.8031 6.433 26.2667 7.59995 26.2667H24.4C25.5669 26.2667 26.6861 25.8031 27.5112 24.978C28.3364 24.1528 28.8 23.0337 28.8 21.8667V15.0667ZM21.6 21.4667H24.8C25.0121 21.4667 25.2156 21.551 25.3656 21.701C25.5157 21.8511 25.6 22.0545 25.6 22.2667C25.6 22.4789 25.5157 22.6824 25.3656 22.8324C25.2156 22.9824 25.0121 23.0667 24.8 23.0667H21.6C21.3878 23.0667 21.1843 22.9824 21.0343 22.8324C20.8842 22.6824 20.8 22.4789 20.8 22.2667C20.8 22.0545 20.8842 21.8511 21.0343 21.701C21.1843 21.551 21.3878 21.4667 21.6 21.4667Z" fill="white"/>
</svg>
