<svg width="25" height="25" viewBox="0 0 25 25" fill="none" xmlns="http://www.w3.org/2000/svg">
<path fill-rule="evenodd" clip-rule="evenodd" d="M22.4 6.19709C21.7118 6.50206 20.9733 6.70889 20.1974 6.80123C20.9896 6.3268 21.5961 5.57427 21.8835 4.68034C21.1404 5.1197 20.32 5.43873 19.446 5.61167C18.746 4.86499 17.7504 4.3999 16.6462 4.3999C14.5276 4.3999 12.8099 6.11764 12.8099 8.23502C12.8099 8.53532 12.8438 8.82862 12.9092 9.10909C9.72147 8.94898 6.89481 7.42172 5.00296 5.101C4.67226 5.66658 4.48413 6.32561 4.48413 7.02909C4.48413 8.36006 5.16188 9.53443 6.1902 10.2215C5.56152 10.2005 4.97024 10.0275 4.4526 9.74007V9.78798C4.4526 11.6459 5.77538 13.1966 7.52933 13.5495C7.20797 13.636 6.86911 13.6839 6.51855 13.6839C6.27083 13.6839 6.03128 13.6593 5.7964 13.6126C6.28483 15.1375 7.70111 16.2464 9.37913 16.2768C8.06686 17.3052 6.41221 17.9163 4.61503 17.9163C4.30538 17.9163 4.00037 17.8976 3.70007 17.8637C5.39795 18.954 7.41367 19.5896 9.58012 19.5896C16.6369 19.5896 20.4942 13.7446 20.4942 8.67557L20.4813 8.17895C21.235 7.64139 21.887 6.96599 22.4 6.19709Z" fill="#8896AB"/>
<mask id="mask0_49_1125" style="mask-type:luminance" maskUnits="userSpaceOnUse" x="3" y="4" width="20" height="16">
<path fill-rule="evenodd" clip-rule="evenodd" d="M22.4 6.19709C21.7118 6.50206 20.9733 6.70889 20.1974 6.80123C20.9896 6.3268 21.5961 5.57427 21.8835 4.68034C21.1404 5.1197 20.32 5.43873 19.446 5.61167C18.746 4.86499 17.7504 4.3999 16.6462 4.3999C14.5276 4.3999 12.8099 6.11764 12.8099 8.23502C12.8099 8.53532 12.8438 8.82862 12.9092 9.10909C9.72147 8.94898 6.89481 7.42172 5.00296 5.101C4.67226 5.66658 4.48413 6.32561 4.48413 7.02909C4.48413 8.36006 5.16188 9.53443 6.1902 10.2215C5.56152 10.2005 4.97024 10.0275 4.4526 9.74007V9.78798C4.4526 11.6459 5.77538 13.1966 7.52933 13.5495C7.20797 13.636 6.86911 13.6839 6.51855 13.6839C6.27083 13.6839 6.03128 13.6593 5.7964 13.6126C6.28483 15.1375 7.70111 16.2464 9.37913 16.2768C8.06686 17.3052 6.41221 17.9163 4.61503 17.9163C4.30538 17.9163 4.00037 17.8976 3.70007 17.8637C5.39795 18.954 7.41367 19.5896 9.58012 19.5896C16.6369 19.5896 20.4942 13.7446 20.4942 8.67557L20.4813 8.17895C21.235 7.64139 21.887 6.96599 22.4 6.19709Z" fill="white"/>
</mask>
<g mask="url(#mask0_49_1125)">
</g>
</svg>
