<svg width="32" height="32" viewBox="0 0 32 32" fill="none" xmlns="http://www.w3.org/2000/svg">
<g id="Group 26">
<path id="Vector" d="M0.549915 31.444L2.73472 23.5105C1.39022 21.1905 0.679783 18.5512 0.679783 15.8585C0.679783 7.41546 7.58552 0.546875 16.0574 0.546875C20.1748 0.546875 24.0326 2.14421 26.9355 5.03466C29.8384 7.92506 31.435 11.7739 31.435 15.8661C31.435 24.3092 24.5292 31.1777 16.0574 31.1777H16.0498C13.4754 31.1777 10.9468 30.5312 8.70085 29.3141L0.549915 31.444Z" fill="url(#paint0_linear_196_2709)"/>
<path id="Vector_2" d="M-0.000213623 32L2.26097 23.7851C0.870654 21.3815 0.129653 18.6508 0.137294 15.8593C0.137294 7.112 7.28752 0 16.0726 0C20.3353 0 24.3381 1.65059 27.3403 4.64747C30.3501 7.6444 32.0078 11.6301 32.0002 15.8669C32.0002 24.6143 24.8499 31.7261 16.0649 31.7261H16.0573C13.3913 31.7261 10.771 31.0568 8.44099 29.7941L-0.000213623 32ZM8.83832 26.9189L9.31952 27.208C11.3515 28.4097 13.6815 29.0411 16.0573 29.0487H16.0649C23.3603 29.0487 29.3035 23.1385 29.3035 15.8669C29.3035 12.3452 27.9285 9.0364 25.4305 6.54147C22.9325 4.04653 19.6018 2.67747 16.0649 2.67747C8.76192 2.67747 2.81859 8.5876 2.81859 15.8593C2.81859 18.3465 3.51379 20.7729 4.84299 22.8724L5.15619 23.3744L3.82699 28.2272L8.83832 26.9189Z" fill="url(#paint1_linear_196_2709)"/>
<path id="Vector_3" fill-rule="evenodd" clip-rule="evenodd" d="M12.0848 9.21815C11.787 8.55628 11.4738 8.54108 11.1911 8.53348C10.9619 8.52588 10.6946 8.52588 10.4272 8.52588C10.1598 8.52588 9.73205 8.62481 9.36538 9.02028C8.99871 9.41588 7.97498 10.3743 7.97498 12.3291C7.97498 14.2763 9.40351 16.1627 9.60218 16.4289C9.80085 16.6952 12.3599 20.8255 16.401 22.4152C19.7622 23.7387 20.4498 23.4724 21.1755 23.404C21.9088 23.3355 23.5283 22.4456 23.8644 21.5176C24.193 20.5896 24.193 19.7985 24.0936 19.6312C23.9943 19.4639 23.727 19.3649 23.3298 19.1672C22.9324 18.9695 20.9768 18.0111 20.6102 17.8741C20.2435 17.7448 19.9762 17.6764 19.7164 18.0719C19.449 18.4675 18.6851 19.3573 18.4559 19.6236C18.2267 19.8899 17.9899 19.9203 17.5927 19.7225C17.1955 19.5247 15.912 19.1064 14.3919 17.7524C13.2079 16.7028 12.4058 15.4021 12.1766 15.0065C11.9474 14.6111 12.1536 14.398 12.3523 14.2003C12.5279 14.0253 12.7495 13.7363 12.9482 13.5081C13.1467 13.2799 13.2155 13.1125 13.3454 12.8463C13.4752 12.5801 13.414 12.3519 13.3148 12.1541C13.2079 11.964 12.4363 10.0016 12.0848 9.21815Z" fill="white"/>
</g>
<defs>
<linearGradient id="paint0_linear_196_2709" x1="15.9975" y1="31.4433" x2="15.9975" y2="0.546755" gradientUnits="userSpaceOnUse">
<stop stop-color="#20B038"/>
<stop offset="1" stop-color="#60D66A"/>
</linearGradient>
<linearGradient id="paint1_linear_196_2709" x1="15.9975" y1="31.9979" x2="15.9975" y2="-0.00665377" gradientUnits="userSpaceOnUse">
<stop stop-color="#F9F9F9"/>
<stop offset="1" stop-color="white"/>
</linearGradient>
</defs>
</svg>
